<svg width="116" height="365" viewBox="0 0 116 365" fill="none" xmlns="http://www.w3.org/2000/svg">
<path d="M-0.000684356 2.39963C-0.000684408 3.72512 1.07383 4.79963 2.39932 4.79963C3.7248 4.79963 4.79932 3.72512 4.79932 2.39963C4.79932 1.07415 3.7248 -0.000366263 2.39932 -0.000366327C1.07383 -0.000366392 -0.000684304 1.07415 -0.000684356 2.39963Z" fill="black"/>
<path d="M27.5994 2.39963C27.5994 3.72512 28.6739 4.79963 29.9994 4.79963C31.3249 4.79963 32.3994 3.72512 32.3994 2.39963C32.3994 1.07415 31.3249 -0.000366263 29.9994 -0.000366327C28.6739 -0.000366392 27.5994 1.07415 27.5994 2.39963Z" fill="black"/>
<path d="M55.199 2.39963C55.199 3.72512 56.2735 4.79963 57.599 4.79963C58.9245 4.79963 59.999 3.72512 59.999 2.39963C59.999 1.07415 58.9245 -0.000366263 57.599 -0.000366327C56.2735 -0.000366392 55.199 1.07415 55.199 2.39963Z" fill="black"/>
<path d="M82.7991 2.39963C82.7991 3.72512 83.8736 4.79963 85.1991 4.79963C86.5246 4.79963 87.5991 3.72512 87.5991 2.39963C87.5991 1.07415 86.5246 -0.000366263 85.1991 -0.000366327C83.8736 -0.000366392 82.7991 1.07415 82.7991 2.39963Z" fill="black"/>
<path d="M110.399 2.39963C110.399 3.72512 111.474 4.79963 112.799 4.79963C114.125 4.79963 115.199 3.72512 115.199 2.39963C115.199 1.07415 114.125 -0.000366263 112.799 -0.000366327C111.474 -0.000366392 110.399 1.07415 110.399 2.39963Z" fill="black"/>
<path d="M-0.000684346 32.3996C-0.000684393 33.7251 1.07383 34.7996 2.39932 34.7996C3.7248 34.7996 4.79932 33.7251 4.79932 32.3996C4.79932 31.0742 3.7248 29.9996 2.39932 29.9996C1.07383 29.9996 -0.000684299 31.0742 -0.000684346 32.3996Z" fill="black"/>
<path d="M27.5994 32.3996C27.5994 33.7251 28.6739 34.7996 29.9994 34.7996C31.3249 34.7996 32.3994 33.7251 32.3994 32.3996C32.3994 31.0742 31.3249 29.9996 29.9994 29.9996C28.6739 29.9996 27.5994 31.0742 27.5994 32.3996Z" fill="black"/>
<path d="M55.199 32.3996C55.199 33.7251 56.2735 34.7996 57.599 34.7996C58.9245 34.7996 59.999 33.7251 59.999 32.3996C59.999 31.0742 58.9245 29.9996 57.599 29.9996C56.2735 29.9996 55.199 31.0742 55.199 32.3996Z" fill="black"/>
<path d="M82.7991 32.3996C82.7991 33.7251 83.8736 34.7996 85.1991 34.7996C86.5246 34.7996 87.5991 33.7251 87.5991 32.3996C87.5991 31.0742 86.5246 29.9996 85.1991 29.9996C83.8736 29.9996 82.7991 31.0742 82.7991 32.3996Z" fill="black"/>
<path d="M110.399 32.3996C110.399 33.7251 111.474 34.7996 112.799 34.7996C114.125 34.7996 115.199 33.7251 115.199 32.3996C115.199 31.0742 114.125 29.9996 112.799 29.9996C111.474 29.9996 110.399 31.0742 110.399 32.3996Z" fill="black"/>
<path d="M-0.000684346 62.3996C-0.000684393 63.7251 1.07383 64.7996 2.39932 64.7996C3.7248 64.7996 4.79932 63.7251 4.79932 62.3996C4.79932 61.0742 3.7248 59.9996 2.39932 59.9996C1.07383 59.9996 -0.000684299 61.0742 -0.000684346 62.3996Z" fill="black"/>
<path d="M27.5994 62.3996C27.5994 63.7251 28.6739 64.7996 29.9994 64.7996C31.3249 64.7996 32.3994 63.7251 32.3994 62.3996C32.3994 61.0742 31.3249 59.9996 29.9994 59.9996C28.6739 59.9996 27.5994 61.0742 27.5994 62.3996Z" fill="black"/>
<path d="M55.199 62.3996C55.199 63.7251 56.2735 64.7996 57.599 64.7996C58.9245 64.7996 59.999 63.7251 59.999 62.3996C59.999 61.0742 58.9245 59.9996 57.599 59.9996C56.2735 59.9996 55.199 61.0742 55.199 62.3996Z" fill="black"/>
<path d="M82.7991 62.3996C82.7991 63.7251 83.8736 64.7996 85.1991 64.7996C86.5246 64.7996 87.5991 63.7251 87.5991 62.3996C87.5991 61.0742 86.5246 59.9996 85.1991 59.9996C83.8736 59.9996 82.7991 61.0742 82.7991 62.3996Z" fill="black"/>
<path d="M110.399 62.3996C110.399 63.7251 111.474 64.7996 112.799 64.7996C114.125 64.7996 115.199 63.7251 115.199 62.3996C115.199 61.0742 114.125 59.9996 112.799 59.9996C111.474 59.9996 110.399 61.0742 110.399 62.3996Z" fill="black"/>
<path d="M-0.000684346 92.3996C-0.000684393 93.7251 1.07383 94.7996 2.39932 94.7996C3.7248 94.7996 4.79932 93.7251 4.79932 92.3996C4.79932 91.0742 3.7248 89.9996 2.39932 89.9996C1.07383 89.9996 -0.000684299 91.0742 -0.000684346 92.3996Z" fill="black"/>
<path d="M27.5994 92.3996C27.5994 93.7251 28.6739 94.7996 29.9994 94.7996C31.3249 94.7996 32.3994 93.7251 32.3994 92.3996C32.3994 91.0742 31.3249 89.9996 29.9994 89.9996C28.6739 89.9996 27.5994 91.0742 27.5994 92.3996Z" fill="black"/>
<path d="M55.199 92.3996C55.199 93.7251 56.2735 94.7996 57.599 94.7996C58.9245 94.7996 59.999 93.7251 59.999 92.3996C59.999 91.0742 58.9245 89.9996 57.599 89.9996C56.2735 89.9996 55.199 91.0742 55.199 92.3996Z" fill="black"/>
<path d="M82.7991 92.3996C82.7991 93.7251 83.8736 94.7996 85.1991 94.7996C86.5246 94.7996 87.5991 93.7251 87.5991 92.3996C87.5991 91.0742 86.5246 89.9996 85.1991 89.9996C83.8736 89.9996 82.7991 91.0742 82.7991 92.3996Z" fill="black"/>
<path d="M110.399 92.3996C110.399 93.7251 111.474 94.7996 112.799 94.7996C114.125 94.7996 115.199 93.7251 115.199 92.3996C115.199 91.0742 114.125 89.9996 112.799 89.9996C111.474 89.9996 110.399 91.0742 110.399 92.3996Z" fill="black"/>
<path d="M-0.000684346 122.4C-0.000684393 123.725 1.07383 124.8 2.39932 124.8C3.7248 124.8 4.79932 123.725 4.79932 122.4C4.79932 121.074 3.7248 120 2.39932 120C1.07383 120 -0.000684299 121.074 -0.000684346 122.4Z" fill="black"/>
<path d="M27.5994 122.4C27.5994 123.725 28.6739 124.8 29.9994 124.8C31.3249 124.8 32.3994 123.725 32.3994 122.4C32.3994 121.074 31.3249 120 29.9994 120C28.6739 120 27.5994 121.074 27.5994 122.4Z" fill="black"/>
<path d="M55.199 122.4C55.199 123.725 56.2735 124.8 57.599 124.8C58.9245 124.8 59.999 123.725 59.999 122.4C59.999 121.074 58.9245 120 57.599 120C56.2735 120 55.199 121.074 55.199 122.4Z" fill="black"/>
<path d="M82.7991 122.4C82.7991 123.725 83.8736 124.8 85.1991 124.8C86.5246 124.8 87.5991 123.725 87.5991 122.4C87.5991 121.074 86.5246 120 85.1991 120C83.8736 120 82.7991 121.074 82.7991 122.4Z" fill="black"/>
<path d="M110.399 122.4C110.399 123.725 111.474 124.8 112.799 124.8C114.125 124.8 115.199 123.725 115.199 122.4C115.199 121.074 114.125 120 112.799 120C111.474 120 110.399 121.074 110.399 122.4Z" fill="black"/>
<path d="M-0.000684346 152.4C-0.000684393 153.725 1.07383 154.8 2.39932 154.8C3.7248 154.8 4.79932 153.725 4.79932 152.4C4.79932 151.074 3.7248 150 2.39932 150C1.07383 150 -0.000684299 151.074 -0.000684346 152.4Z" fill="black"/>
<path d="M27.5994 152.4C27.5994 153.725 28.6739 154.8 29.9994 154.8C31.3249 154.8 32.3994 153.725 32.3994 152.4C32.3994 151.074 31.3249 150 29.9994 150C28.6739 150 27.5994 151.074 27.5994 152.4Z" fill="black"/>
<path d="M55.199 152.4C55.199 153.725 56.2735 154.8 57.599 154.8C58.9245 154.8 59.999 153.725 59.999 152.4C59.999 151.074 58.9245 150 57.599 150C56.2735 150 55.199 151.074 55.199 152.4Z" fill="black"/>
<path d="M82.7991 152.4C82.7991 153.725 83.8736 154.8 85.1991 154.8C86.5246 154.8 87.5991 153.725 87.5991 152.4C87.5991 151.074 86.5246 150 85.1991 150C83.8736 150 82.7991 151.074 82.7991 152.4Z" fill="black"/>
<path d="M110.399 152.4C110.399 153.725 111.474 154.8 112.799 154.8C114.125 154.8 115.199 153.725 115.199 152.4C115.199 151.074 114.125 150 112.799 150C111.474 150 110.399 151.074 110.399 152.4Z" fill="black"/>
<path d="M-0.000684346 182.4C-0.000684393 183.725 1.07383 184.8 2.39932 184.8C3.7248 184.8 4.79932 183.725 4.79932 182.4C4.79932 181.074 3.7248 180 2.39932 180C1.07383 180 -0.000684299 181.074 -0.000684346 182.4Z" fill="black"/>
<path d="M27.5994 182.4C27.5994 183.725 28.6739 184.8 29.9994 184.8C31.3249 184.8 32.3994 183.725 32.3994 182.4C32.3994 181.074 31.3249 180 29.9994 180C28.6739 180 27.5994 181.074 27.5994 182.4Z" fill="black"/>
<path d="M55.199 182.4C55.199 183.725 56.2735 184.8 57.599 184.8C58.9245 184.8 59.999 183.725 59.999 182.4C59.999 181.074 58.9245 180 57.599 180C56.2735 180 55.199 181.074 55.199 182.4Z" fill="black"/>
<path d="M82.7991 182.4C82.7991 183.725 83.8736 184.8 85.1991 184.8C86.5246 184.8 87.5991 183.725 87.5991 182.4C87.5991 181.074 86.5246 180 85.1991 180C83.8736 180 82.7991 181.074 82.7991 182.4Z" fill="black"/>
<path d="M110.399 182.4C110.399 183.725 111.474 184.8 112.799 184.8C114.125 184.8 115.199 183.725 115.199 182.4C115.199 181.074 114.125 180 112.799 180C111.474 180 110.399 181.074 110.399 182.4Z" fill="black"/>
<path d="M-0.000684346 212.4C-0.000684393 213.725 1.07383 214.8 2.39932 214.8C3.7248 214.8 4.79932 213.725 4.79932 212.4C4.79932 211.074 3.7248 210 2.39932 210C1.07383 210 -0.000684299 211.074 -0.000684346 212.4Z" fill="black"/>
<path d="M27.5994 212.4C27.5994 213.725 28.6739 214.8 29.9994 214.8C31.3249 214.8 32.3994 213.725 32.3994 212.4C32.3994 211.074 31.3249 210 29.9994 210C28.6739 210 27.5994 211.074 27.5994 212.4Z" fill="black"/>
<path d="M55.199 212.4C55.199 213.725 56.2735 214.8 57.599 214.8C58.9245 214.8 59.999 213.725 59.999 212.4C59.999 211.074 58.9245 210 57.599 210C56.2735 210 55.199 211.074 55.199 212.4Z" fill="black"/>
<path d="M82.7991 212.4C82.7991 213.725 83.8736 214.8 85.1991 214.8C86.5246 214.8 87.5991 213.725 87.5991 212.4C87.5991 211.074 86.5246 210 85.1991 210C83.8736 210 82.7991 211.074 82.7991 212.4Z" fill="black"/>
<path d="M110.399 212.4C110.399 213.725 111.474 214.8 112.799 214.8C114.125 214.8 115.199 213.725 115.199 212.4C115.199 211.074 114.125 210 112.799 210C111.474 210 110.399 211.074 110.399 212.4Z" fill="black"/>
<path d="M-0.000684346 242.4C-0.000684393 243.725 1.07383 244.8 2.39932 244.8C3.7248 244.8 4.79932 243.725 4.79932 242.4C4.79932 241.074 3.7248 240 2.39932 240C1.07383 240 -0.000684299 241.074 -0.000684346 242.4Z" fill="black"/>
<path d="M27.5994 242.4C27.5994 243.725 28.6739 244.8 29.9994 244.8C31.3249 244.8 32.3994 243.725 32.3994 242.4C32.3994 241.074 31.3249 240 29.9994 240C28.6739 240 27.5994 241.074 27.5994 242.4Z" fill="black"/>
<path d="M55.199 242.4C55.199 243.725 56.2735 244.8 57.599 244.8C58.9245 244.8 59.999 243.725 59.999 242.4C59.999 241.074 58.9245 240 57.599 240C56.2735 240 55.199 241.074 55.199 242.4Z" fill="black"/>
<path d="M82.7991 242.4C82.7991 243.725 83.8736 244.8 85.1991 244.8C86.5246 244.8 87.5991 243.725 87.5991 242.4C87.5991 241.074 86.5246 240 85.1991 240C83.8736 240 82.7991 241.074 82.7991 242.4Z" fill="black"/>
<path d="M110.399 242.4C110.399 243.725 111.474 244.8 112.799 244.8C114.125 244.8 115.199 243.725 115.199 242.4C115.199 241.074 114.125 240 112.799 240C111.474 240 110.399 241.074 110.399 242.4Z" fill="black"/>
<path d="M-0.000684346 272.4C-0.000684393 273.725 1.07383 274.8 2.39932 274.8C3.7248 274.8 4.79932 273.725 4.79932 272.4C4.79932 271.074 3.7248 270 2.39932 270C1.07383 270 -0.000684299 271.074 -0.000684346 272.4Z" fill="black"/>
<path d="M27.5994 272.4C27.5994 273.725 28.6739 274.8 29.9994 274.8C31.3249 274.8 32.3994 273.725 32.3994 272.4C32.3994 271.074 31.3249 270 29.9994 270C28.6739 270 27.5994 271.074 27.5994 272.4Z" fill="black"/>
<path d="M55.199 272.4C55.199 273.725 56.2735 274.8 57.599 274.8C58.9245 274.8 59.999 273.725 59.999 272.4C59.999 271.074 58.9245 270 57.599 270C56.2735 270 55.199 271.074 55.199 272.4Z" fill="black"/>
<path d="M82.7991 272.4C82.7991 273.725 83.8736 274.8 85.1991 274.8C86.5246 274.8 87.5991 273.725 87.5991 272.4C87.5991 271.074 86.5246 270 85.1991 270C83.8736 270 82.7991 271.074 82.7991 272.4Z" fill="black"/>
<path d="M110.399 272.4C110.399 273.725 111.474 274.8 112.799 274.8C114.125 274.8 115.199 273.725 115.199 272.4C115.199 271.074 114.125 270 112.799 270C111.474 270 110.399 271.074 110.399 272.4Z" fill="black"/>
<path d="M-0.000684346 302.4C-0.000684393 303.725 1.07383 304.8 2.39932 304.8C3.7248 304.8 4.79932 303.725 4.79932 302.4C4.79932 301.074 3.7248 300 2.39932 300C1.07383 300 -0.000684299 301.074 -0.000684346 302.4Z" fill="black"/>
<path d="M27.5994 302.4C27.5994 303.725 28.6739 304.8 29.9994 304.8C31.3249 304.8 32.3994 303.725 32.3994 302.4C32.3994 301.074 31.3249 300 29.9994 300C28.6739 300 27.5994 301.074 27.5994 302.4Z" fill="black"/>
<path d="M55.199 302.4C55.199 303.725 56.2735 304.8 57.599 304.8C58.9245 304.8 59.999 303.725 59.999 302.4C59.999 301.074 58.9245 300 57.599 300C56.2735 300 55.199 301.074 55.199 302.4Z" fill="black"/>
<path d="M82.7991 302.4C82.7991 303.725 83.8736 304.8 85.1991 304.8C86.5246 304.8 87.5991 303.725 87.5991 302.4C87.5991 301.074 86.5246 300 85.1991 300C83.8736 300 82.7991 301.074 82.7991 302.4Z" fill="black"/>
<path d="M110.399 302.4C110.399 303.725 111.474 304.8 112.799 304.8C114.125 304.8 115.199 303.725 115.199 302.4C115.199 301.074 114.125 300 112.799 300C111.474 300 110.399 301.074 110.399 302.4Z" fill="black"/>
<path d="M-0.000684346 332.4C-0.000684393 333.725 1.07383 334.8 2.39932 334.8C3.7248 334.8 4.79932 333.725 4.79932 332.4C4.79932 331.074 3.7248 330 2.39932 330C1.07383 330 -0.000684299 331.074 -0.000684346 332.4Z" fill="black"/>
<path d="M27.5994 332.4C27.5994 333.725 28.6739 334.8 29.9994 334.8C31.3249 334.8 32.3994 333.725 32.3994 332.4C32.3994 331.074 31.3249 330 29.9994 330C28.6739 330 27.5994 331.074 27.5994 332.4Z" fill="black"/>
<path d="M55.199 332.4C55.199 333.725 56.2735 334.8 57.599 334.8C58.9245 334.8 59.999 333.725 59.999 332.4C59.999 331.074 58.9245 330 57.599 330C56.2735 330 55.199 331.074 55.199 332.4Z" fill="black"/>
<path d="M82.7991 332.4C82.7991 333.725 83.8736 334.8 85.1991 334.8C86.5246 334.8 87.5991 333.725 87.5991 332.4C87.5991 331.074 86.5246 330 85.1991 330C83.8736 330 82.7991 331.074 82.7991 332.4Z" fill="black"/>
<path d="M110.399 332.4C110.399 333.725 111.474 334.8 112.799 334.8C114.125 334.8 115.199 333.725 115.199 332.4C115.199 331.074 114.125 330 112.799 330C111.474 330 110.399 331.074 110.399 332.4Z" fill="black"/>
<path d="M-0.000684346 362.4C-0.000684393 363.725 1.07383 364.8 2.39932 364.8C3.7248 364.8 4.79932 363.725 4.79932 362.4C4.79932 361.074 3.7248 360 2.39932 360C1.07383 360 -0.000684299 361.074 -0.000684346 362.4Z" fill="black"/>
<path d="M27.5994 362.4C27.5994 363.725 28.6739 364.8 29.9994 364.8C31.3249 364.8 32.3994 363.725 32.3994 362.4C32.3994 361.074 31.3249 360 29.9994 360C28.6739 360 27.5994 361.074 27.5994 362.4Z" fill="black"/>
<path d="M55.199 362.4C55.199 363.725 56.2735 364.8 57.599 364.8C58.9245 364.8 59.999 363.725 59.999 362.4C59.999 361.074 58.9245 360 57.599 360C56.2735 360 55.199 361.074 55.199 362.4Z" fill="black"/>
<path d="M82.7991 362.4C82.7991 363.725 83.8736 364.8 85.1991 364.8C86.5246 364.8 87.5991 363.725 87.5991 362.4C87.5991 361.074 86.5246 360 85.1991 360C83.8736 360 82.7991 361.074 82.7991 362.4Z" fill="black"/>
<path d="M110.399 362.4C110.399 363.725 111.474 364.8 112.799 364.8C114.125 364.8 115.199 363.725 115.199 362.4C115.199 361.074 114.125 360 112.799 360C111.474 360 110.399 361.074 110.399 362.4Z" fill="black"/>
</svg>
