<svg width="116" height="351" viewBox="0 0 116 351" fill="none" xmlns="http://www.w3.org/2000/svg">
<path d="M4.8066e-05 2.4C4.80139e-05 3.72548 1.07456 4.8 2.40005 4.8C3.72553 4.8 4.80005 3.72548 4.80005 2.4C4.80005 1.07452 3.72553 -5.21371e-08 2.40005 -1.16451e-07C1.07456 -1.80766e-07 4.81182e-05 1.07452 4.8066e-05 2.4Z" fill="#D9D9D9"/>
<path d="M27.5997 2.4C27.5997 3.72548 28.6742 4.8 29.9997 4.8C31.3251 4.8 32.3997 3.72548 32.3997 2.4C32.3997 1.07452 31.3251 -5.21371e-08 29.9997 -1.16451e-07C28.6742 -1.80766e-07 27.5997 1.07452 27.5997 2.4Z" fill="#D9D9D9"/>
<path d="M55.2012 2.4C55.2012 3.72548 56.2757 4.8 57.6012 4.8C58.9267 4.8 60.0012 3.72548 60.0012 2.4C60.0012 1.07452 58.9267 -5.21371e-08 57.6012 -1.16451e-07C56.2757 -1.80766e-07 55.2012 1.07452 55.2012 2.4Z" fill="#D9D9D9"/>
<path d="M82.8008 2.4C82.8008 3.72548 83.8753 4.8 85.2008 4.8C86.5263 4.8 87.6008 3.72548 87.6008 2.4C87.6008 1.07452 86.5263 -5.21371e-08 85.2008 -1.16451e-07C83.8753 -1.80766e-07 82.8008 1.07452 82.8008 2.4Z" fill="#D9D9D9"/>
<path d="M110.4 2.4C110.4 3.72548 111.475 4.8 112.8 4.8C114.126 4.8 115.2 3.72548 115.2 2.4C115.2 1.07452 114.126 -5.21371e-08 112.8 -1.16451e-07C111.475 -1.80766e-07 110.4 1.07452 110.4 2.4Z" fill="#D9D9D9"/>
<path d="M4.80754e-05 31.1998C4.80284e-05 32.5253 1.07456 33.5998 2.40005 33.5998C3.72553 33.5998 4.80005 32.5253 4.80005 31.1998C4.80005 29.8743 3.72553 28.7998 2.40005 28.7998C1.07456 28.7998 4.81224e-05 29.8743 4.80754e-05 31.1998Z" fill="#D9D9D9"/>
<path d="M27.5997 31.1998C27.5997 32.5253 28.6742 33.5998 29.9997 33.5998C31.3251 33.5998 32.3997 32.5253 32.3997 31.1998C32.3997 29.8743 31.3251 28.7998 29.9997 28.7998C28.6742 28.7998 27.5997 29.8743 27.5997 31.1998Z" fill="#D9D9D9"/>
<path d="M55.2012 31.1998C55.2012 32.5253 56.2757 33.5998 57.6012 33.5998C58.9267 33.5998 60.0012 32.5253 60.0012 31.1998C60.0012 29.8743 58.9267 28.7998 57.6012 28.7998C56.2757 28.7998 55.2012 29.8743 55.2012 31.1998Z" fill="#D9D9D9"/>
<path d="M82.8008 31.1998C82.8008 32.5253 83.8753 33.5998 85.2008 33.5998C86.5263 33.5998 87.6008 32.5253 87.6008 31.1998C87.6008 29.8743 86.5263 28.7998 85.2008 28.7998C83.8753 28.7998 82.8008 29.8743 82.8008 31.1998Z" fill="#D9D9D9"/>
<path d="M110.4 31.1998C110.4 32.5253 111.475 33.5998 112.8 33.5998C114.126 33.5998 115.2 32.5253 115.2 31.1998C115.2 29.8743 114.126 28.7998 112.8 28.7998C111.475 28.7998 110.4 29.8743 110.4 31.1998Z" fill="#D9D9D9"/>
<path d="M4.80754e-05 59.9996C4.80284e-05 61.3251 1.07456 62.3996 2.40005 62.3996C3.72553 62.3996 4.80005 61.3251 4.80005 59.9996C4.80005 58.6741 3.72553 57.5996 2.40005 57.5996C1.07456 57.5996 4.81224e-05 58.6741 4.80754e-05 59.9996Z" fill="#D9D9D9"/>
<path d="M27.5997 59.9996C27.5997 61.3251 28.6742 62.3996 29.9997 62.3996C31.3251 62.3996 32.3997 61.3251 32.3997 59.9996C32.3997 58.6741 31.3251 57.5996 29.9997 57.5996C28.6742 57.5996 27.5997 58.6741 27.5997 59.9996Z" fill="#D9D9D9"/>
<path d="M55.2012 59.9996C55.2012 61.3251 56.2757 62.3996 57.6012 62.3996C58.9267 62.3996 60.0012 61.3251 60.0012 59.9996C60.0012 58.6741 58.9267 57.5996 57.6012 57.5996C56.2757 57.5996 55.2012 58.6741 55.2012 59.9996Z" fill="#D9D9D9"/>
<path d="M82.8008 59.9996C82.8008 61.3251 83.8753 62.3996 85.2008 62.3996C86.5263 62.3996 87.6008 61.3251 87.6008 59.9996C87.6008 58.6741 86.5263 57.5996 85.2008 57.5996C83.8753 57.5996 82.8008 58.6741 82.8008 59.9996Z" fill="#D9D9D9"/>
<path d="M110.4 59.9996C110.4 61.3251 111.475 62.3996 112.8 62.3996C114.126 62.3996 115.2 61.3251 115.2 59.9996C115.2 58.6741 114.126 57.5996 112.8 57.5996C111.475 57.5996 110.4 58.6741 110.4 59.9996Z" fill="#D9D9D9"/>
<path d="M4.80754e-05 88.7994C4.80284e-05 90.1249 1.07456 91.1994 2.40005 91.1994C3.72553 91.1994 4.80005 90.1249 4.80005 88.7994C4.80005 87.4739 3.72553 86.3994 2.40005 86.3994C1.07456 86.3994 4.81224e-05 87.4739 4.80754e-05 88.7994Z" fill="#D9D9D9"/>
<path d="M27.5997 88.7994C27.5997 90.1249 28.6742 91.1994 29.9997 91.1994C31.3251 91.1994 32.3997 90.1249 32.3997 88.7994C32.3997 87.4739 31.3251 86.3994 29.9997 86.3994C28.6742 86.3994 27.5997 87.4739 27.5997 88.7994Z" fill="#D9D9D9"/>
<path d="M55.2012 88.7994C55.2012 90.1249 56.2757 91.1994 57.6012 91.1994C58.9267 91.1994 60.0012 90.1249 60.0012 88.7994C60.0012 87.4739 58.9267 86.3994 57.6012 86.3994C56.2757 86.3994 55.2012 87.4739 55.2012 88.7994Z" fill="#D9D9D9"/>
<path d="M82.8008 88.7994C82.8008 90.1249 83.8753 91.1994 85.2008 91.1994C86.5263 91.1994 87.6008 90.1249 87.6008 88.7994C87.6008 87.4739 86.5263 86.3994 85.2008 86.3994C83.8753 86.3994 82.8008 87.4739 82.8008 88.7994Z" fill="#D9D9D9"/>
<path d="M110.4 88.7994C110.4 90.1249 111.475 91.1994 112.8 91.1994C114.126 91.1994 115.2 90.1249 115.2 88.7994C115.2 87.4739 114.126 86.3994 112.8 86.3994C111.475 86.3994 110.4 87.4739 110.4 88.7994Z" fill="#D9D9D9"/>
<path d="M4.80754e-05 117.599C4.80284e-05 118.925 1.07456 119.999 2.40005 119.999C3.72553 119.999 4.80005 118.925 4.80005 117.599C4.80005 116.274 3.72553 115.199 2.40005 115.199C1.07456 115.199 4.81224e-05 116.274 4.80754e-05 117.599Z" fill="#D9D9D9"/>
<path d="M27.5997 117.599C27.5997 118.925 28.6742 119.999 29.9997 119.999C31.3251 119.999 32.3997 118.925 32.3997 117.599C32.3997 116.274 31.3251 115.199 29.9997 115.199C28.6742 115.199 27.5997 116.274 27.5997 117.599Z" fill="#D9D9D9"/>
<path d="M55.2012 117.599C55.2012 118.925 56.2757 119.999 57.6012 119.999C58.9267 119.999 60.0012 118.925 60.0012 117.599C60.0012 116.274 58.9267 115.199 57.6012 115.199C56.2757 115.199 55.2012 116.274 55.2012 117.599Z" fill="#D9D9D9"/>
<path d="M82.8008 117.599C82.8008 118.925 83.8753 119.999 85.2008 119.999C86.5263 119.999 87.6008 118.925 87.6008 117.599C87.6008 116.274 86.5263 115.199 85.2008 115.199C83.8753 115.199 82.8008 116.274 82.8008 117.599Z" fill="#D9D9D9"/>
<path d="M110.4 117.599C110.4 118.925 111.475 119.999 112.8 119.999C114.126 119.999 115.2 118.925 115.2 117.599C115.2 116.274 114.126 115.199 112.8 115.199C111.475 115.199 110.4 116.274 110.4 117.599Z" fill="#D9D9D9"/>
<path d="M4.80754e-05 146.399C4.80284e-05 147.724 1.07456 148.799 2.40005 148.799C3.72553 148.799 4.80005 147.724 4.80005 146.399C4.80005 145.074 3.72553 143.999 2.40005 143.999C1.07456 143.999 4.81224e-05 145.074 4.80754e-05 146.399Z" fill="#D9D9D9"/>
<path d="M27.5997 146.399C27.5997 147.724 28.6742 148.799 29.9997 148.799C31.3251 148.799 32.3997 147.724 32.3997 146.399C32.3997 145.074 31.3251 143.999 29.9997 143.999C28.6742 143.999 27.5997 145.074 27.5997 146.399Z" fill="#D9D9D9"/>
<path d="M55.2012 146.399C55.2012 147.725 56.2757 148.799 57.6012 148.799C58.9267 148.799 60.0012 147.725 60.0012 146.399C60.0012 145.074 58.9267 143.999 57.6012 143.999C56.2757 143.999 55.2012 145.074 55.2012 146.399Z" fill="#D9D9D9"/>
<path d="M82.8008 146.399C82.8008 147.725 83.8753 148.799 85.2008 148.799C86.5263 148.799 87.6008 147.725 87.6008 146.399C87.6008 145.074 86.5263 143.999 85.2008 143.999C83.8753 143.999 82.8008 145.074 82.8008 146.399Z" fill="#D9D9D9"/>
<path d="M110.4 146.399C110.4 147.725 111.475 148.799 112.8 148.799C114.126 148.799 115.2 147.725 115.2 146.399C115.2 145.074 114.126 143.999 112.8 143.999C111.475 143.999 110.4 145.074 110.4 146.399Z" fill="#D9D9D9"/>
<path d="M4.80754e-05 175.199C4.80284e-05 176.524 1.07456 177.599 2.40005 177.599C3.72553 177.599 4.80005 176.524 4.80005 175.199C4.80005 173.873 3.72553 172.799 2.40005 172.799C1.07456 172.799 4.81224e-05 173.873 4.80754e-05 175.199Z" fill="#D9D9D9"/>
<path d="M27.5997 175.199C27.5997 176.524 28.6742 177.599 29.9997 177.599C31.3251 177.599 32.3997 176.524 32.3997 175.199C32.3997 173.873 31.3251 172.799 29.9997 172.799C28.6742 172.799 27.5997 173.873 27.5997 175.199Z" fill="#D9D9D9"/>
<path d="M55.2012 175.199C55.2012 176.524 56.2757 177.599 57.6012 177.599C58.9267 177.599 60.0012 176.524 60.0012 175.199C60.0012 173.873 58.9267 172.799 57.6012 172.799C56.2757 172.799 55.2012 173.873 55.2012 175.199Z" fill="#D9D9D9"/>
<path d="M82.8008 175.199C82.8008 176.524 83.8753 177.599 85.2008 177.599C86.5263 177.599 87.6008 176.524 87.6008 175.199C87.6008 173.873 86.5263 172.799 85.2008 172.799C83.8753 172.799 82.8008 173.873 82.8008 175.199Z" fill="#D9D9D9"/>
<path d="M110.4 175.199C110.4 176.524 111.475 177.599 112.8 177.599C114.126 177.599 115.2 176.524 115.2 175.199C115.2 173.873 114.126 172.799 112.8 172.799C111.475 172.799 110.4 173.873 110.4 175.199Z" fill="#D9D9D9"/>
<path d="M4.80754e-05 203.999C4.80284e-05 205.324 1.07456 206.399 2.40005 206.399C3.72553 206.399 4.80005 205.324 4.80005 203.999C4.80005 202.673 3.72553 201.599 2.40005 201.599C1.07456 201.599 4.81224e-05 202.673 4.80754e-05 203.999Z" fill="#D9D9D9"/>
<path d="M27.5997 203.999C27.5997 205.324 28.6742 206.399 29.9997 206.399C31.3251 206.399 32.3997 205.324 32.3997 203.999C32.3997 202.673 31.3251 201.599 29.9997 201.599C28.6742 201.599 27.5997 202.673 27.5997 203.999Z" fill="#D9D9D9"/>
<path d="M55.2012 203.999C55.2012 205.324 56.2757 206.399 57.6012 206.399C58.9267 206.399 60.0012 205.324 60.0012 203.999C60.0012 202.673 58.9267 201.599 57.6012 201.599C56.2757 201.599 55.2012 202.673 55.2012 203.999Z" fill="#D9D9D9"/>
<path d="M82.8008 203.999C82.8008 205.324 83.8753 206.399 85.2008 206.399C86.5263 206.399 87.6008 205.324 87.6008 203.999C87.6008 202.673 86.5263 201.599 85.2008 201.599C83.8753 201.599 82.8008 202.673 82.8008 203.999Z" fill="#D9D9D9"/>
<path d="M110.4 203.999C110.4 205.324 111.475 206.399 112.8 206.399C114.126 206.399 115.2 205.324 115.2 203.999C115.2 202.673 114.126 201.599 112.8 201.599C111.475 201.599 110.4 202.673 110.4 203.999Z" fill="#D9D9D9"/>
<path d="M4.80754e-05 232.798C4.80284e-05 234.124 1.07456 235.198 2.40005 235.198C3.72553 235.198 4.80005 234.124 4.80005 232.798C4.80005 231.473 3.72553 230.398 2.40005 230.398C1.07456 230.398 4.81224e-05 231.473 4.80754e-05 232.798Z" fill="#D9D9D9"/>
<path d="M27.5997 232.798C27.5997 234.124 28.6742 235.198 29.9997 235.198C31.3251 235.198 32.3997 234.124 32.3997 232.798C32.3997 231.473 31.3251 230.398 29.9997 230.398C28.6742 230.398 27.5997 231.473 27.5997 232.798Z" fill="#D9D9D9"/>
<path d="M55.2012 232.798C55.2012 234.124 56.2757 235.198 57.6012 235.198C58.9267 235.198 60.0012 234.124 60.0012 232.798C60.0012 231.473 58.9267 230.398 57.6012 230.398C56.2757 230.398 55.2012 231.473 55.2012 232.798Z" fill="#D9D9D9"/>
<path d="M82.8008 232.798C82.8008 234.124 83.8753 235.198 85.2008 235.198C86.5263 235.198 87.6008 234.124 87.6008 232.798C87.6008 231.473 86.5263 230.398 85.2008 230.398C83.8753 230.398 82.8008 231.473 82.8008 232.798Z" fill="#D9D9D9"/>
<path d="M110.4 232.798C110.4 234.124 111.475 235.198 112.8 235.198C114.126 235.198 115.2 234.124 115.2 232.798C115.2 231.473 114.126 230.398 112.8 230.398C111.475 230.398 110.4 231.473 110.4 232.798Z" fill="#D9D9D9"/>
<path d="M4.80754e-05 261.598C4.80284e-05 262.924 1.07456 263.998 2.40005 263.998C3.72553 263.998 4.80005 262.924 4.80005 261.598C4.80005 260.273 3.72553 259.198 2.40005 259.198C1.07456 259.198 4.81224e-05 260.273 4.80754e-05 261.598Z" fill="#D9D9D9"/>
<path d="M27.5997 261.598C27.5997 262.924 28.6742 263.998 29.9997 263.998C31.3251 263.998 32.3997 262.924 32.3997 261.598C32.3997 260.273 31.3251 259.198 29.9997 259.198C28.6742 259.198 27.5997 260.273 27.5997 261.598Z" fill="#D9D9D9"/>
<path d="M55.2012 261.598C55.2012 262.924 56.2757 263.998 57.6012 263.998C58.9267 263.998 60.0012 262.924 60.0012 261.598C60.0012 260.273 58.9267 259.198 57.6012 259.198C56.2757 259.198 55.2012 260.273 55.2012 261.598Z" fill="#D9D9D9"/>
<path d="M82.8008 261.598C82.8008 262.924 83.8753 263.998 85.2008 263.998C86.5263 263.998 87.6008 262.924 87.6008 261.598C87.6008 260.273 86.5263 259.198 85.2008 259.198C83.8753 259.198 82.8008 260.273 82.8008 261.598Z" fill="#D9D9D9"/>
<path d="M110.4 261.598C110.4 262.924 111.475 263.998 112.8 263.998C114.126 263.998 115.2 262.924 115.2 261.598C115.2 260.273 114.126 259.198 112.8 259.198C111.475 259.198 110.4 260.273 110.4 261.598Z" fill="#D9D9D9"/>
<path d="M4.80754e-05 290.398C4.80284e-05 291.724 1.07456 292.798 2.40005 292.798C3.72553 292.798 4.80005 291.724 4.80005 290.398C4.80005 289.073 3.72553 287.998 2.40005 287.998C1.07456 287.998 4.81224e-05 289.073 4.80754e-05 290.398Z" fill="#D9D9D9"/>
<path d="M27.5997 290.398C27.5997 291.724 28.6742 292.798 29.9997 292.798C31.3251 292.798 32.3997 291.724 32.3997 290.398C32.3997 289.073 31.3251 287.998 29.9997 287.998C28.6742 287.998 27.5997 289.073 27.5997 290.398Z" fill="#D9D9D9"/>
<path d="M55.2012 290.398C55.2012 291.724 56.2757 292.798 57.6012 292.798C58.9267 292.798 60.0012 291.724 60.0012 290.398C60.0012 289.073 58.9267 287.998 57.6012 287.998C56.2757 287.998 55.2012 289.073 55.2012 290.398Z" fill="#D9D9D9"/>
<path d="M82.8008 290.398C82.8008 291.724 83.8753 292.798 85.2008 292.798C86.5263 292.798 87.6008 291.724 87.6008 290.398C87.6008 289.073 86.5263 287.998 85.2008 287.998C83.8753 287.998 82.8008 289.073 82.8008 290.398Z" fill="#D9D9D9"/>
<path d="M110.4 290.398C110.4 291.724 111.475 292.798 112.8 292.798C114.126 292.798 115.2 291.724 115.2 290.398C115.2 289.073 114.126 287.998 112.8 287.998C111.475 287.998 110.4 289.073 110.4 290.398Z" fill="#D9D9D9"/>
<path d="M4.80754e-05 319.198C4.80284e-05 320.523 1.07456 321.598 2.40005 321.598C3.72553 321.598 4.80005 320.523 4.80005 319.198C4.80005 317.872 3.72553 316.798 2.40005 316.798C1.07456 316.798 4.81224e-05 317.872 4.80754e-05 319.198Z" fill="#D9D9D9"/>
<path d="M27.5997 319.198C27.5997 320.523 28.6742 321.598 29.9997 321.598C31.3251 321.598 32.3997 320.523 32.3997 319.198C32.3997 317.872 31.3251 316.798 29.9997 316.798C28.6742 316.798 27.5997 317.872 27.5997 319.198Z" fill="#D9D9D9"/>
<path d="M55.2012 319.198C55.2012 320.523 56.2757 321.598 57.6012 321.598C58.9267 321.598 60.0012 320.523 60.0012 319.198C60.0012 317.872 58.9267 316.798 57.6012 316.798C56.2757 316.798 55.2012 317.872 55.2012 319.198Z" fill="#D9D9D9"/>
<path d="M82.8008 319.198C82.8008 320.523 83.8753 321.598 85.2008 321.598C86.5263 321.598 87.6008 320.523 87.6008 319.198C87.6008 317.872 86.5263 316.798 85.2008 316.798C83.8753 316.798 82.8008 317.872 82.8008 319.198Z" fill="#D9D9D9"/>
<path d="M110.4 319.198C110.4 320.523 111.475 321.598 112.8 321.598C114.126 321.598 115.2 320.523 115.2 319.198C115.2 317.872 114.126 316.798 112.8 316.798C111.475 316.798 110.4 317.872 110.4 319.198Z" fill="#D9D9D9"/>
<path d="M4.80754e-05 347.998C4.80284e-05 349.323 1.07456 350.398 2.40005 350.398C3.72553 350.398 4.80005 349.323 4.80005 347.998C4.80005 346.672 3.72553 345.598 2.40005 345.598C1.07456 345.598 4.81224e-05 346.672 4.80754e-05 347.998Z" fill="#D9D9D9"/>
<path d="M27.5997 347.998C27.5997 349.323 28.6742 350.398 29.9997 350.398C31.3251 350.398 32.3997 349.323 32.3997 347.998C32.3997 346.672 31.3251 345.598 29.9997 345.598C28.6742 345.598 27.5997 346.672 27.5997 347.998Z" fill="#D9D9D9"/>
<path d="M55.2012 347.998C55.2012 349.323 56.2757 350.398 57.6012 350.398C58.9267 350.398 60.0012 349.323 60.0012 347.998C60.0012 346.672 58.9267 345.598 57.6012 345.598C56.2757 345.598 55.2012 346.672 55.2012 347.998Z" fill="#D9D9D9"/>
<path d="M82.8008 347.998C82.8008 349.323 83.8753 350.398 85.2008 350.398C86.5263 350.398 87.6008 349.323 87.6008 347.998C87.6008 346.672 86.5263 345.598 85.2008 345.598C83.8753 345.598 82.8008 346.672 82.8008 347.998Z" fill="#D9D9D9"/>
<path d="M110.4 347.998C110.4 349.323 111.475 350.398 112.8 350.398C114.126 350.398 115.2 349.323 115.2 347.998C115.2 346.672 114.126 345.598 112.8 345.598C111.475 345.598 110.4 346.672 110.4 347.998Z" fill="#D9D9D9"/>
</svg>
