<?xml version="1.0" encoding="UTF-8"?>
<!DOCTYPE svg PUBLIC "-//W3C//DTD SVG 1.1//EN" "http://www.w3.org/Graphics/SVG/1.1/DTD/svg11.dtd">
<!-- Creator: CorelDRAW -->
<svg xmlns="http://www.w3.org/2000/svg" xml:space="preserve" width="1000px" height="1077px" version="1.1" style="shape-rendering:geometricPrecision; text-rendering:geometricPrecision; image-rendering:optimizeQuality; fill-rule:evenodd; clip-rule:evenodd"
viewBox="0 0 6.77 7.3"
 xmlns:xlink="http://www.w3.org/1999/xlink"
 xmlns:xodm="http://www.corel.com/coreldraw/odm/2003">
 <defs>
  <style type="text/css">
   <![CDATA[
    .fil0 {fill:#AC1B42;fill-rule:nonzero}
   ]]>
  </style>
 </defs>
 <g id="Слой_x0020_1">
  <metadata id="CorelCorpID_0Corel-Layer"/>
  <path class="fil0" d="M0 0.84l0 0.83 3.25 0 3.25 0 -0.02 -0.06c-0.16,-0.75 -0.84,-1.32 -1.81,-1.52 -0.41,-0.08 -0.63,-0.09 -2.7,-0.09l-1.97 0 0 0.84zm0 4.21l0 2.25 2.3 -0.01c2.5,0 2.42,0 2.91,-0.12 0.76,-0.19 1.27,-0.59 1.47,-1.15 0.08,-0.23 0.1,-0.41 0.09,-0.84 -0.01,-0.35 -0.01,-0.41 -0.06,-0.55 -0.1,-0.29 -0.28,-0.55 -0.53,-0.74 -0.13,-0.09 -0.53,-0.31 -0.67,-0.36l-0.07 -0.02 0.19 -0.1c0.28,-0.13 0.51,-0.34 0.65,-0.55l0.04 -0.06 -3.16 0 -3.16 0 0 2.25zm4.18 -0.69c0.17,0.05 0.34,0.16 0.41,0.26 0.06,0.08 0.06,0.09 0.06,0.4 0.01,0.36 -0.01,0.43 -0.13,0.55 -0.17,0.18 -0.35,0.2 -1.51,0.2l-0.91 0 0 -0.73 0 -0.73 0.98 0.01c0.86,0.01 1,0.01 1.1,0.04z"/>
 </g>
</svg>
