<?xml version="1.0" encoding="UTF-8"?>
<!DOCTYPE svg PUBLIC "-//W3C//DTD SVG 1.1//EN" "http://www.w3.org/Graphics/SVG/1.1/DTD/svg11.dtd">
<!-- Creator: CorelDRAW -->
<svg xmlns="http://www.w3.org/2000/svg" xml:space="preserve" width="3000px" height="1421px" version="1.1" style="shape-rendering:geometricPrecision; text-rendering:geometricPrecision; image-rendering:optimizeQuality; fill-rule:evenodd; clip-rule:evenodd"
viewBox="0 0 435 206.05"
 xmlns:xlink="http://www.w3.org/1999/xlink"
 xmlns:xodm="http://www.corel.com/coreldraw/odm/2003">
 <defs>
  <style type="text/css">
   <![CDATA[
    .fil0 {fill:#F7F7F7}
    .fil1 {fill:#E4E4E5;fill-rule:nonzero}
   ]]>
  </style>
 </defs>
 <g id="Слой_x0020_1">
  <metadata id="CorelCorpID_0Corel-Layer"/>
  <g id="_2596377971072">
   <rect class="fil0" width="435" height="206.05"/>
   <g>
    <path class="fil1" d="M6.18 206.05c5.88,-7.65 11.17,-15.78 15.78,-24.34 4.65,-8.61 8.61,-17.65 11.78,-27.05 3.97,-11.74 6.8,-23.89 9.63,-36.03 2.71,-11.63 5.42,-23.26 9.13,-34.55 4.09,-12.46 9.72,-24.73 17.31,-35.12 6.49,-8.87 14.41,-16.37 24.04,-21.44 13.55,-7.12 28.64,-8.56 43.91,-6.37 18.6,2.66 37.45,10.7 54.09,20.4 8.23,4.8 16.31,10.01 24.4,15.23 21.69,13.99 43.4,27.99 67.86,33.89 20.91,5.03 42.21,3.57 62.41,-2.49 22.43,-6.73 43.52,-19.14 61.27,-34.64 4.83,-4.22 9.45,-8.64 13.89,-13.24 4.45,-4.6 8.72,-9.37 12.84,-14.29l0.09 0.08c-4.12,4.92 -8.39,9.69 -12.84,14.3 -4.45,4.6 -9.07,9.02 -13.9,13.24 -17.77,15.51 -38.87,27.93 -61.31,34.66 -20.23,6.07 -41.54,7.53 -62.48,2.5 -24.48,-5.9 -46.19,-19.91 -67.9,-33.91 -8.08,-5.21 -16.16,-10.43 -24.39,-15.22 -16.63,-9.69 -35.47,-17.73 -54.05,-20.39 -15.24,-2.19 -30.31,-0.75 -43.84,6.36 -9.61,5.06 -17.51,12.54 -23.99,21.4 -7.59,10.38 -13.21,22.64 -17.3,35.09 -3.71,11.28 -6.42,22.91 -9.12,34.54 -2.83,12.14 -5.66,24.29 -9.63,36.04 -3.18,9.4 -7.14,18.45 -11.79,27.07 -4.6,8.53 -9.88,16.65 -15.74,24.28l-0.15 0z"/>
    <path class="fil1" d="M8.21 206.05c0.13,-0.17 0.27,-0.34 0.41,-0.52 0.31,-0.4 0.62,-0.79 0.92,-1.18 5.38,-6.9 10.21,-14.25 14.44,-21.99 4.2,-7.68 7.81,-15.75 10.79,-24.14 1.33,-3.78 2.55,-7.59 3.69,-11.44 1.13,-3.85 2.19,-7.74 3.19,-11.63 1.12,-4.32 2.18,-8.65 3.24,-12.98 2.84,-11.59 5.68,-23.18 9.55,-34.36 3.22,-9.26 7.31,-18.37 12.47,-26.59 4.55,-7.23 9.92,-13.78 16.27,-19.15 2.1,-1.79 4.3,-3.46 6.6,-4.98 2.3,-1.52 4.71,-2.9 7.22,-4.11 10.54,-5.06 21.9,-6.72 33.55,-6.04 11.64,0.69 23.56,3.71 35.21,8.02 4.88,1.81 9.72,3.83 14.46,6.01 5.04,2.32 9.97,4.81 14.71,7.4 6.96,3.79 13.82,7.78 20.64,11.74 3.26,1.9 6.51,3.79 9.76,5.66 9.85,5.67 19.64,11.12 29.6,15.63 9.96,4.5 20.08,8.06 30.6,9.96 6.85,1.23 13.65,1.69 20.41,1.46 6.76,-0.22 13.48,-1.13 20.16,-2.63 13.13,-2.94 26.16,-8.25 38.63,-15.29 13.31,-7.52 26,-17.01 37.49,-27.7 3.06,-2.84 6.05,-5.75 8.97,-8.73 2.93,-2.98 5.8,-6.03 8.61,-9.14 2.53,-2.79 5.02,-5.63 7.48,-8.51 2.45,-2.87 4.86,-5.79 7.24,-8.73l0.09 0.07c-2.38,2.95 -4.79,5.86 -7.24,8.74 -2.45,2.88 -4.94,5.72 -7.48,8.51 -2.82,3.12 -5.69,6.17 -8.61,9.15 -2.93,2.98 -5.91,5.89 -8.97,8.73 -11.51,10.69 -24.2,20.19 -37.52,27.72 -12.48,7.04 -25.52,12.36 -38.67,15.3 -6.69,1.5 -13.41,2.41 -20.18,2.63 -6.76,0.23 -13.57,-0.23 -20.43,-1.46 -10.53,-1.9 -20.67,-5.47 -30.63,-9.97 -9.96,-4.51 -19.75,-9.96 -29.61,-15.64 -3.24,-1.86 -6.5,-3.75 -9.76,-5.65 -6.82,-3.97 -13.68,-7.96 -20.64,-11.75 -4.74,-2.58 -9.66,-5.07 -14.7,-7.39 -4.73,-2.18 -9.57,-4.2 -14.45,-6.01 -11.64,-4.3 -23.55,-7.32 -35.18,-8.01 -11.62,-0.68 -22.97,0.98 -33.49,6.03 -2.51,1.21 -4.9,2.58 -7.2,4.1 -2.3,1.52 -4.49,3.18 -6.6,4.97 -6.33,5.36 -11.7,11.9 -16.24,19.12 -5.16,8.22 -9.24,17.32 -12.46,26.57 -3.86,11.17 -6.7,22.76 -9.54,34.35 -1.06,4.33 -2.12,8.66 -3.24,12.98 -1.01,3.9 -2.06,7.78 -3.2,11.63 -1.13,3.85 -2.35,7.67 -3.69,11.45 -2.97,8.4 -6.59,16.47 -10.79,24.16 -4.24,7.74 -9.07,15.1 -14.46,22.01 -0.31,0.4 -0.61,0.79 -0.91,1.18 -0.12,0.14 -0.24,0.29 -0.36,0.44l-0.15 0z"/>
    <path class="fil1" d="M10.42 206.05c5.3,-6.45 10.07,-13.35 14.28,-20.65 4.32,-7.5 8.05,-15.42 11.13,-23.7 1.39,-3.74 2.66,-7.54 3.84,-11.38 1.18,-3.84 2.28,-7.72 3.34,-11.62 1.15,-4.27 2.25,-8.54 3.35,-12.81 2.99,-11.64 5.98,-23.26 10.02,-34.38 3.35,-9.19 7.59,-18.14 12.92,-26.14 4.71,-7.08 10.28,-13.41 16.84,-18.54 2.17,-1.68 4.4,-3.25 6.73,-4.67 2.33,-1.42 4.75,-2.7 7.28,-3.8 10.6,-4.6 21.91,-5.82 33.48,-4.8 11.56,1.01 23.39,4.25 35.03,8.58 5.05,1.86 10.07,3.93 14.99,6.11 4.92,2.17 9.74,4.47 14.39,6.82 5.4,2.71 10.74,5.5 16.02,8.26 4.9,2.56 9.75,5.09 14.57,7.53 9.81,5.01 19.45,9.73 29.12,13.46 9.67,3.74 19.36,6.49 29.28,7.59 6.43,0.72 12.7,0.66 18.92,-0.05 6.21,-0.71 12.36,-2.07 18.53,-3.97 12.06,-3.76 24.2,-9.82 35.99,-17.51 12.68,-8.26 24.95,-18.41 36.29,-29.62 3.01,-2.97 5.97,-6.01 8.88,-9.1 2.92,-3.1 5.79,-6.25 8.63,-9.44 3.15,-3.54 6.25,-7.13 9.32,-10.76 3.07,-3.64 6.1,-7.3 9.09,-10.99l0.09 0.07c-2.99,3.7 -6.02,7.37 -9.09,10.99 -3.06,3.63 -6.17,7.23 -9.32,10.78 -2.84,3.18 -5.71,6.33 -8.63,9.43 -2.92,3.09 -5.88,6.14 -8.88,9.1 -11.35,11.22 -23.63,21.37 -36.31,29.64 -11.81,7.7 -23.96,13.76 -36.02,17.52 -6.18,1.91 -12.34,3.27 -18.56,3.98 -6.22,0.71 -12.51,0.77 -18.94,0.05 -9.93,-1.1 -19.64,-3.85 -29.31,-7.59 -9.67,-3.74 -19.32,-8.46 -29.14,-13.48 -4.8,-2.43 -9.66,-4.96 -14.56,-7.52 -5.28,-2.76 -10.62,-5.54 -16.02,-8.26 -4.65,-2.35 -9.47,-4.64 -14.39,-6.82 -4.91,-2.18 -9.93,-4.24 -14.98,-6.11 -11.63,-4.32 -23.45,-7.56 -35,-8.57 -11.56,-1.01 -22.85,0.2 -33.42,4.79 -2.53,1.1 -4.94,2.37 -7.27,3.79 -2.32,1.42 -4.55,2.99 -6.71,4.67 -6.56,5.11 -12.11,11.44 -16.82,18.5 -5.33,8 -9.56,16.94 -12.91,26.12 -4.04,11.12 -7.03,22.74 -10.01,34.37 -1.1,4.28 -2.21,8.57 -3.35,12.81 -1.07,3.9 -2.17,7.78 -3.35,11.63 -1.18,3.84 -2.44,7.64 -3.84,11.38 -3.08,8.28 -6.81,16.21 -11.14,23.72 -4.19,7.27 -8.94,14.15 -14.22,20.59l-0.16 0z"/>
    <path class="fil1" d="M12.88 206.05c4.94,-5.91 9.4,-12.22 13.36,-18.91 4.1,-6.94 7.66,-14.28 10.65,-21.96 1.45,-3.72 2.77,-7.49 4,-11.32 1.24,-3.82 2.39,-7.69 3.51,-11.61 1.19,-4.21 2.33,-8.46 3.48,-12.7 3.13,-11.65 6.26,-23.31 10.48,-34.38 3.48,-9.12 7.86,-17.92 13.37,-25.72 4.87,-6.9 10.62,-13.02 17.42,-17.89 2.22,-1.58 4.49,-3.05 6.84,-4.36 2.35,-1.32 4.78,-2.48 7.31,-3.45 10.64,-4.15 21.89,-4.92 33.39,-3.57 11.5,1.35 23.24,4.81 34.86,9.14 5.08,1.88 10.11,3.91 15.06,6 4.95,2.1 9.8,4.27 14.51,6.45 3.24,1.5 6.49,3.03 9.72,4.54 7.13,3.35 14.15,6.64 21.04,9.67 9.78,4.32 19.29,8.31 28.67,11.28 9.38,2.98 18.65,4.95 27.94,5.24 6.02,0.18 11.79,-0.38 17.45,-1.56 5.67,-1.19 11.23,-3 16.85,-5.32 10.93,-4.52 22.13,-11.29 33.2,-19.58 12.08,-9.05 23.99,-19.92 35.21,-31.69 2.95,-3.12 5.87,-6.28 8.76,-9.47 2.9,-3.2 5.77,-6.45 8.63,-9.72 2.16,-2.48 4.3,-4.97 6.43,-7.47 2.14,-2.51 4.27,-5.02 6.37,-7.52l0.1 0.07c-2.12,2.53 -4.25,5.04 -6.38,7.53 -2.13,2.51 -4.28,5 -6.43,7.47 -2.85,3.27 -5.73,6.52 -8.63,9.72 -2.9,3.2 -5.82,6.36 -8.77,9.47 -11.22,11.77 -23.13,22.65 -35.21,31.7 -11.08,8.31 -22.3,15.08 -33.23,19.6 -5.63,2.33 -11.2,4.14 -16.87,5.33 -5.68,1.18 -11.45,1.74 -17.48,1.56 -9.31,-0.29 -18.58,-2.26 -27.98,-5.24 -9.38,-2.98 -18.89,-6.96 -28.67,-11.29 -6.89,-3.02 -13.91,-6.32 -21.05,-9.67 -3.21,-1.5 -6.44,-3.02 -9.72,-4.54 -4.71,-2.18 -9.57,-4.35 -14.51,-6.45 -4.94,-2.09 -9.98,-4.12 -15.05,-6 -11.61,-4.32 -23.34,-7.78 -34.83,-9.13 -11.49,-1.34 -22.72,-0.57 -33.33,3.56 -2.53,0.97 -4.95,2.13 -7.3,3.44 -2.35,1.32 -4.62,2.78 -6.83,4.36 -6.78,4.86 -12.53,10.97 -17.39,17.86 -5.5,7.79 -9.88,16.58 -13.36,25.7 -4.21,11.06 -7.35,22.71 -10.48,34.36 -1.14,4.24 -2.28,8.49 -3.47,12.7 -1.12,3.92 -2.27,7.8 -3.51,11.62 -1.24,3.83 -2.56,7.6 -4,11.32 -3,7.69 -6.56,15.04 -10.67,21.98 -3.94,6.67 -8.38,12.96 -13.3,18.85l-0.16 0z"/>
    <path class="fil1" d="M15.57 206.05c4.53,-5.36 8.63,-11.09 12.28,-17.15 3.83,-6.36 7.18,-13.09 10.03,-20.14 1.5,-3.68 2.88,-7.43 4.16,-11.24 1.29,-3.82 2.49,-7.69 3.64,-11.61 1.2,-4.06 2.35,-8.16 3.5,-12.25 3.31,-11.79 6.62,-23.56 11.08,-34.71 3.41,-8.52 7.63,-16.71 12.86,-24 5.23,-7.28 11.48,-13.65 18.96,-18.52 2.27,-1.49 4.58,-2.84 6.96,-4.05 2.38,-1.2 4.83,-2.26 7.38,-3.14 10.69,-3.68 21.88,-4 33.31,-2.32 11.42,1.68 23.08,5.36 34.72,9.68 5.07,1.91 10.14,3.9 15.12,5.92 4.97,2.01 9.87,4.07 14.62,6.1 5.31,2.27 10.56,4.5 15.72,6.62 5.16,2.13 10.23,4.15 15.2,6.02 9.74,3.66 19.1,6.9 28.2,9.1 9.09,2.2 17.91,3.37 26.57,2.87 5.62,-0.33 10.87,-1.4 15.99,-3.07 5.12,-1.68 10.1,-3.96 15.19,-6.7 9.8,-5.26 20.03,-12.67 30.32,-21.51 11.5,-9.85 23.08,-21.48 34.25,-33.86 2.91,-3.25 5.81,-6.54 8.69,-9.85 2.88,-3.32 5.75,-6.67 8.63,-10.04 1.19,-1.4 2.33,-2.73 3.42,-4.01 1.05,-1.23 2.21,-2.59 3.42,-4.02l0.1 0.07c-1.07,1.25 -2.19,2.57 -3.43,4.02 -1.18,1.39 -2.32,2.74 -3.42,4.01 -2.87,3.37 -5.74,6.72 -8.63,10.05 -2.89,3.32 -5.78,6.61 -8.69,9.85 -11.17,12.38 -22.76,24.01 -34.26,33.88 -10.3,8.83 -20.54,16.25 -30.34,21.51 -5.09,2.75 -10.09,5.04 -15.22,6.71 -5.12,1.68 -10.39,2.75 -16.01,3.08 -8.67,0.5 -17.51,-0.67 -26.61,-2.87 -9.1,-2.2 -18.47,-5.45 -28.22,-9.11 -4.96,-1.87 -10.03,-3.89 -15.2,-6.02 -5.16,-2.12 -10.41,-4.35 -15.72,-6.62 -4.74,-2.03 -9.64,-4.08 -14.62,-6.1 -4.98,-2.02 -10.05,-4.01 -15.12,-5.91 -11.62,-4.32 -23.28,-8 -34.69,-9.68 -11.41,-1.68 -22.58,-1.36 -33.25,2.32 -2.55,0.87 -4.99,1.93 -7.36,3.13 -2.38,1.2 -4.68,2.56 -6.95,4.04 -7.47,4.87 -13.71,11.23 -18.93,18.5 -5.23,7.27 -9.44,15.45 -12.84,23.96 -4.46,11.15 -7.77,22.92 -11.08,34.7 -1.15,4.09 -2.3,8.19 -3.5,12.26 -1.15,3.92 -2.35,7.79 -3.64,11.61 -1.29,3.81 -2.66,7.57 -4.17,11.25 -2.85,7.06 -6.2,13.79 -10.04,20.15 -3.63,6.04 -7.71,11.75 -12.22,17.09l-0.16 0z"/>
    <path class="fil1" d="M18.43 206.05c4.09,-4.85 7.8,-10.02 11.15,-15.49 3.54,-5.78 6.66,-11.89 9.37,-18.28 1.55,-3.66 2.98,-7.4 4.32,-11.19 1.33,-3.8 2.58,-7.65 3.77,-11.55 1.23,-4.03 2.42,-8.08 3.61,-12.13 3.46,-11.81 6.92,-23.62 11.56,-34.69 3.53,-8.47 7.88,-16.53 13.28,-23.63 5.4,-7.1 11.84,-13.23 19.56,-17.83 2.31,-1.37 4.66,-2.63 7.06,-3.73 2.41,-1.11 4.88,-2.06 7.42,-2.83 10.73,-3.21 21.86,-3.09 33.22,-1.08 11.36,2.01 22.94,5.91 34.55,10.27 8.86,3.32 17.71,6.77 26.18,10.07l3.79 1.47c5.36,2.09 10.65,4.09 15.85,5.94 5.19,1.86 10.28,3.57 15.24,5.09 9.71,2.98 18.95,5.49 27.77,6.93 8.82,1.43 17.21,1.8 25.21,0.5 5.23,-0.84 9.96,-2.42 14.52,-4.58 4.57,-2.16 8.97,-4.9 13.55,-8.05 9.3,-6.42 19.28,-15.19 29.53,-25.41 10.26,-10.22 20.79,-21.89 31.19,-34.1 5.41,-6.38 10.85,-12.89 16.33,-19.44l0.92 -1.11 0.87 -1.03 0.09 0.07 -0.86 1.04 -0.93 1.1c-5.47,6.55 -10.92,13.06 -16.33,19.45 -10.4,12.22 -20.94,23.88 -31.19,34.1 -10.26,10.23 -20.24,19 -29.55,25.43 -4.58,3.16 -8.99,5.9 -13.56,8.06 -4.58,2.16 -9.32,3.75 -14.56,4.59 -8.01,1.3 -16.42,0.94 -25.25,-0.5 -8.82,-1.44 -18.07,-3.95 -27.78,-6.94 -4.97,-1.52 -10.06,-3.23 -15.25,-5.09 -5.19,-1.85 -10.49,-3.85 -15.86,-5.93l-3.78 -1.48c-8.47,-3.3 -17.33,-6.75 -26.18,-10.06 -11.61,-4.36 -23.18,-8.26 -34.53,-10.27 -11.34,-2.01 -22.46,-2.13 -33.16,1.07 -2.55,0.77 -5.01,1.72 -7.41,2.83 -2.4,1.1 -4.74,2.35 -7.05,3.72 -7.7,4.6 -14.13,10.72 -19.52,17.81 -5.39,7.08 -9.74,15.14 -13.27,23.6 -4.64,11.07 -8.1,22.87 -11.56,34.67 -1.18,4.06 -2.37,8.11 -3.61,12.13 -1.19,3.91 -2.43,7.76 -3.77,11.56 -1.34,3.8 -2.77,7.53 -4.32,11.2 -2.71,6.4 -5.84,12.51 -9.38,18.3 -3.33,5.44 -7.03,10.59 -11.1,15.42l-0.15 0z"/>
    <path class="fil1" d="M21.4 206.05c3.63,-4.34 6.95,-8.96 9.96,-13.82 3.21,-5.19 6.08,-10.67 8.61,-16.4 1.59,-3.64 3.07,-7.36 4.46,-11.14 1.39,-3.78 2.7,-7.63 3.96,-11.53 1.27,-3.95 2.49,-7.94 3.71,-11.93 3.62,-11.86 7.25,-23.73 12.05,-34.78 3.66,-8.39 8.15,-16.33 13.71,-23.26 5.57,-6.92 12.2,-12.82 20.16,-17.13 2.37,-1.28 4.75,-2.44 7.18,-3.44 2.43,-1 4.92,-1.84 7.49,-2.5 10.76,-2.75 21.83,-2.18 33.11,0.16 11.29,2.35 22.78,6.47 34.4,10.83 5.1,1.92 10.22,3.84 15.27,5.7 5.06,1.86 10.04,3.66 14.87,5.36 5.42,1.91 10.76,3.67 15.98,5.26 5.23,1.59 10.34,3 15.3,4.19 9.67,2.33 18.8,4.08 27.35,4.74 8.55,0.66 16.51,0.22 23.83,-1.84 4.86,-1.38 9.08,-3.47 13.08,-6.11 4.01,-2.65 7.81,-5.84 11.84,-9.41 8.22,-7.27 17.33,-16.85 26.94,-27.78 9.61,-10.93 19.72,-23.21 29.94,-35.88 2.01,-2.53 4.05,-5.07 6.11,-7.62 2.02,-2.51 4.06,-5.03 6.12,-7.55l0.1 0.07c-2.06,2.52 -4.1,5.04 -6.13,7.55 -2.05,2.54 -4.08,5.09 -6.11,7.63 -10.22,12.67 -20.33,24.95 -29.94,35.88 -9.61,10.93 -18.73,20.51 -26.95,27.79 -4.03,3.57 -7.84,6.77 -11.85,9.42 -4.02,2.65 -8.24,4.75 -13.12,6.12 -7.33,2.07 -15.31,2.51 -23.87,1.85 -8.55,-0.66 -17.7,-2.41 -27.37,-4.74 -4.96,-1.19 -10.08,-2.6 -15.3,-4.19 -5.23,-1.59 -10.57,-3.36 -15.99,-5.26 -4.84,-1.71 -9.82,-3.51 -14.87,-5.37 -5.04,-1.86 -10.16,-3.77 -15.28,-5.7 -11.61,-4.35 -23.1,-8.47 -34.37,-10.82 -11.27,-2.34 -22.32,-2.91 -33.06,-0.16 -2.56,0.65 -5.04,1.5 -7.47,2.49 -2.43,1 -4.81,2.15 -7.17,3.43 -7.94,4.31 -14.57,10.2 -20.12,17.11 -5.56,6.91 -10.04,14.85 -13.7,23.23 -4.8,11.05 -8.42,22.91 -12.05,34.77 -1.22,3.99 -2.44,7.97 -3.7,11.93 -1.27,3.9 -2.58,7.75 -3.97,11.53 -1.39,3.78 -2.86,7.5 -4.46,11.15 -2.53,5.73 -5.4,11.22 -8.62,16.42 -3,4.83 -6.29,9.42 -9.9,13.75l-0.16 0z"/>
    <path class="fil1" d="M24.48 206.05c3.17,-3.86 6.08,-7.93 8.76,-12.21 2.87,-4.6 5.47,-9.44 7.79,-14.49 1.65,-3.61 3.18,-7.31 4.62,-11.08 1.45,-3.77 2.8,-7.62 4.1,-11.52 1.29,-3.89 2.53,-7.79 3.76,-11.68 3.79,-11.94 7.58,-23.88 12.58,-34.92 3.79,-8.33 8.42,-16.16 14.15,-22.9 5.73,-6.74 12.56,-12.4 20.75,-16.39 2.4,-1.18 4.82,-2.23 7.28,-3.13 2.46,-0.9 4.97,-1.64 7.53,-2.19 21.28,-4.51 43.32,3.78 66.11,12.36l1.14 0.43c5.3,1.99 10.64,3.94 15.91,5.77 4.89,1.71 9.73,3.33 14.42,4.81 5.56,1.75 11.05,3.32 16.4,4.65 5.17,1.29 10.21,2.36 15.06,3.19 9.63,1.65 18.65,2.64 26.93,2.53 8.27,-0.12 15.79,-1.36 22.41,-4.18 8.9,-3.78 14.61,-10.23 21.5,-18.02l0.31 -0.35c11.46,-13.01 25.68,-31.75 41.18,-52.19 3.89,-5.14 7.87,-10.38 11.86,-15.61 1.12,-1.47 2.23,-2.93 3.34,-4.38 1.12,-1.46 2.24,-2.92 3.38,-4.38l0.09 0.07c-1.13,1.46 -2.25,2.92 -3.38,4.38 -1.13,1.48 -2.24,2.94 -3.34,4.38 -4.04,5.31 -7.99,10.51 -11.86,15.61 -15.5,20.44 -29.72,39.19 -41.18,52.2l-0.31 0.35c-6.9,7.8 -12.62,14.26 -21.54,18.06 -6.64,2.82 -14.17,4.06 -22.46,4.18 -8.28,0.12 -17.32,-0.88 -26.95,-2.53 -4.86,-0.83 -9.9,-1.9 -15.06,-3.19 -5.36,-1.34 -10.86,-2.9 -16.42,-4.65 -4.68,-1.48 -9.52,-3.1 -14.42,-4.81 -5.27,-1.84 -10.61,-3.79 -15.91,-5.78l-1.14 -0.43c-22.78,-8.57 -44.8,-16.85 -66.04,-12.35 -2.56,0.55 -5.06,1.29 -7.52,2.18 -2.45,0.9 -4.87,1.95 -7.27,3.12 -8.18,3.99 -14.99,9.64 -20.71,16.37 -5.72,6.73 -10.34,14.54 -14.13,22.87 -4.99,11.04 -8.78,22.97 -12.57,34.9 -1.25,3.92 -2.49,7.83 -3.77,11.69 -1.3,3.91 -2.65,7.75 -4.09,11.52 -1.45,3.78 -2.98,7.48 -4.63,11.09 -2.32,5.05 -4.92,9.9 -7.8,14.5 -2.66,4.26 -5.56,8.31 -8.7,12.15l-0.16 0z"/>
    <path class="fil1" d="M27.68 206.05c2.72,-3.4 5.25,-6.97 7.58,-10.71 2.49,-3.98 4.76,-8.14 6.84,-12.48 1.7,-3.59 3.28,-7.27 4.78,-11.02 1.5,-3.76 2.91,-7.6 4.26,-11.5 1.33,-3.85 2.61,-7.74 3.89,-11.63 3.93,-11.94 7.87,-23.89 13.04,-34.86 3.92,-8.28 8.68,-15.99 14.56,-22.55 5.89,-6.56 12.91,-11.98 21.37,-15.68 2.45,-1.08 4.91,-2.04 7.4,-2.83 2.48,-0.78 5.01,-1.41 7.59,-1.83 19.94,-3.37 40.21,4.37 61.35,12.44 1.89,0.72 3.78,1.44 5.64,2.14 5.17,1.96 10.37,3.81 15.53,5.52 5.09,1.69 10.12,3.24 15.02,4.63 5.51,1.55 10.95,2.86 16.25,3.91 5.29,1.05 10.45,1.84 15.39,2.35 9.59,0.99 18.52,1.22 26.54,0.31 8.01,-0.9 15.09,-2.94 21,-6.49 7.42,-4.42 11.71,-10.85 16.74,-18.36 0.62,-0.94 1.26,-1.89 1.93,-2.87 3.01,-4.46 6.32,-9.43 9.91,-14.8 10.95,-16.41 24.43,-36.62 39.24,-57.14 0.29,-0.41 0.59,-0.81 0.88,-1.22 0.31,-0.43 0.6,-0.84 0.88,-1.21l0.09 0.07c-0.31,0.43 -0.61,0.84 -0.87,1.21 -0.3,0.41 -0.59,0.81 -0.88,1.22 -14.81,20.52 -28.29,40.73 -39.24,57.14 -3.6,5.39 -6.92,10.37 -9.91,14.8 -0.65,0.96 -1.3,1.92 -1.93,2.86 -5.04,7.53 -9.34,13.97 -16.78,18.4 -5.92,3.56 -13.02,5.6 -21.05,6.51 -8.02,0.91 -16.96,0.68 -26.57,-0.31 -4.94,-0.51 -10.1,-1.3 -15.4,-2.35 -5.3,-1.05 -10.74,-2.36 -16.25,-3.92 -4.9,-1.38 -9.94,-2.93 -15.03,-4.62 -5.16,-1.72 -10.37,-3.57 -15.53,-5.52 -1.91,-0.73 -3.78,-1.44 -5.64,-2.15 -21.13,-8.06 -41.38,-15.79 -61.29,-12.43 -2.58,0.42 -5.09,1.04 -7.58,1.83 -2.48,0.79 -4.93,1.74 -7.39,2.82 -8.43,3.69 -15.44,9.1 -21.32,15.65 -5.88,6.55 -10.63,14.25 -14.54,22.52 -5.17,10.97 -9.1,22.91 -13.04,34.85 -1.28,3.89 -2.56,7.78 -3.88,11.63 -1.36,3.9 -2.77,7.74 -4.27,11.5 -1.5,3.76 -3.08,7.45 -4.78,11.04 -2.08,4.33 -4.36,8.5 -6.84,12.48 -2.33,3.72 -4.83,7.27 -7.53,10.65l-0.16 0z"/>
    <path class="fil1" d="M30.98 206.05c2.24,-2.89 4.33,-5.92 6.3,-9.06 2.11,-3.37 4.06,-6.89 5.88,-10.54 1.76,-3.55 3.39,-7.21 4.93,-10.96 1.54,-3.75 3,-7.59 4.41,-11.49 1.43,-3.99 2.82,-8.05 4.21,-12.11 4.02,-11.76 8.04,-23.52 13.3,-34.23 4.05,-8.21 8.94,-15.8 15,-22.18 6.05,-6.38 13.26,-11.56 21.96,-14.96 2.49,-0.97 4.98,-1.81 7.5,-2.49 2.51,-0.69 5.05,-1.21 7.64,-1.54 18.71,-2.36 37.45,4.97 57.05,12.63 3.2,1.26 6.43,2.52 9.68,3.75 5.22,1.97 10.48,3.79 15.7,5.44 5.08,1.59 10.12,3.02 15.03,4.23 5.55,1.37 11.03,2.45 16.35,3.23 5.33,0.78 10.5,1.25 15.43,1.42 9.55,0.31 18.38,-0.26 26.12,-1.96 7.74,-1.7 14.4,-4.54 19.63,-8.76 6.2,-5.02 9.37,-11.52 12.99,-18.95 0.81,-1.68 1.65,-3.39 2.56,-5.17 5.24,-10.29 12.09,-22.89 20.19,-36.6 6.7,-11.34 14.25,-23.42 22.46,-35.58l0.1 0.07c-8.21,12.15 -15.76,24.24 -22.46,35.57 -8.1,13.7 -14.94,26.31 -20.18,36.59 -0.9,1.76 -1.74,3.49 -2.56,5.17 -3.63,7.45 -6.8,13.96 -13.03,18.99 -5.24,4.24 -11.92,7.08 -19.67,8.79 -7.76,1.7 -16.59,2.27 -26.15,1.96 -4.94,-0.17 -10.12,-0.64 -15.45,-1.42 -5.32,-0.78 -10.8,-1.86 -16.36,-3.24 -4.92,-1.21 -9.95,-2.63 -15.03,-4.23 -5.23,-1.64 -10.49,-3.47 -15.71,-5.44 -3.26,-1.23 -6.48,-2.49 -9.68,-3.74 -19.59,-7.66 -38.31,-14.99 -57,-12.63 -2.58,0.33 -5.11,0.85 -7.62,1.53 -2.51,0.69 -5,1.53 -7.49,2.5 -8.67,3.38 -15.87,8.55 -21.92,14.92 -6.04,6.38 -10.93,13.95 -14.97,22.15 -5.26,10.7 -9.28,22.46 -13.3,34.22 -1.38,4.05 -2.77,8.09 -4.21,12.12 -1.41,3.9 -2.87,7.74 -4.41,11.49 -1.54,3.75 -3.17,7.41 -4.93,10.97 -1.82,3.65 -3.78,7.17 -5.89,10.55 -1.95,3.12 -4.03,6.12 -6.25,8.99l-0.15 0z"/>
    <path class="fil1" d="M34.19 206.05c1.78,-2.39 3.47,-4.87 5.07,-7.43 1.74,-2.8 3.38,-5.7 4.93,-8.69 1.81,-3.53 3.49,-7.17 5.09,-10.91 1.59,-3.73 3.09,-7.56 4.54,-11.46 1.45,-3.94 2.86,-7.91 4.27,-11.89 4.18,-11.83 8.37,-23.65 13.82,-34.35 4.18,-8.15 9.21,-15.63 15.42,-21.84 6.21,-6.21 13.62,-11.15 22.57,-14.23 2.55,-0.88 5.08,-1.62 7.62,-2.2 2.54,-0.58 5.1,-0.99 7.7,-1.21 17.78,-1.46 35.25,5.64 53.59,13.08 4.25,1.73 8.54,3.47 12.89,5.13 5.15,1.96 10.37,3.73 15.56,5.27 5.18,1.54 10.33,2.86 15.35,3.92 5.63,1.19 11.18,2.06 16.55,2.57 5.33,0.52 10.5,0.69 15.41,0.51 9.76,-0.36 18.68,-1.81 26.29,-4.45 7.2,-2.5 13.21,-6.08 17.62,-10.81 5.33,-5.7 7.55,-12.46 10.04,-20.03 0.74,-2.25 1.5,-4.56 2.37,-6.95 3.62,-9.84 8.66,-21.43 14.9,-33.91 5.73,-11.47 12.47,-23.69 20.04,-36l0.1 0.07c-7.57,12.3 -14.31,24.52 -20.04,35.99 -6.23,12.47 -11.27,24.05 -14.89,33.9 -0.87,2.38 -1.63,4.69 -2.37,6.94 -2.48,7.58 -4.71,14.36 -10.06,20.07 -4.42,4.75 -10.46,8.33 -17.68,10.84 -7.61,2.65 -16.55,4.1 -26.32,4.46 -4.91,0.18 -10.08,0.01 -15.42,-0.51 -5.38,-0.51 -10.93,-1.38 -16.57,-2.57 -5.02,-1.06 -10.17,-2.38 -15.36,-3.92 -5.19,-1.55 -10.41,-3.32 -15.56,-5.28 -4.36,-1.66 -8.65,-3.4 -12.89,-5.12 -18.33,-7.45 -35.79,-14.54 -53.54,-13.08 -2.59,0.22 -5.15,0.63 -7.68,1.21 -2.54,0.57 -5.07,1.32 -7.61,2.19 -8.93,3.08 -16.32,8.01 -22.53,14.21 -6.2,6.2 -11.21,13.66 -15.39,21.81 -5.45,10.69 -9.64,22.51 -13.82,34.33 -1.41,3.98 -2.82,7.96 -4.27,11.89 -1.45,3.9 -2.95,7.73 -4.54,11.47 -1.6,3.73 -3.28,7.38 -5.1,10.92 -1.54,2.99 -3.18,5.89 -4.93,8.69 -1.59,2.54 -3.26,5 -5.02,7.37l-0.15 0z"/>
    <path class="fil1" d="M37.5 206.05c1.33,-1.86 2.61,-3.78 3.83,-5.75 1.37,-2.2 2.68,-4.46 3.92,-6.78 1.87,-3.49 3.6,-7.12 5.25,-10.85 1.65,-3.73 3.21,-7.55 4.71,-11.45 1.48,-3.87 2.91,-7.78 4.34,-11.68 4.35,-11.88 8.7,-23.75 14.38,-34.44 4.31,-8.09 9.46,-15.45 15.84,-21.48 6.38,-6.04 13.99,-10.75 23.21,-13.54 2.58,-0.78 5.15,-1.43 7.72,-1.9 2.58,-0.47 5.16,-0.77 7.79,-0.88 16.81,-0.68 33.15,6.23 50.26,13.47 5.23,2.22 10.53,4.46 15.95,6.53 5.13,1.96 10.34,3.68 15.52,5.14 5.26,1.48 10.5,2.69 15.61,3.61 5.67,1.01 11.26,1.64 16.65,1.89 5.39,0.25 10.59,0.13 15.49,-0.39 9.62,-1.02 18.32,-3.27 25.59,-6.68 7.02,-3.29 12.7,-7.67 16.53,-13.07 4.5,-6.36 5.9,-13.46 7.44,-21.26 0.55,-2.78 1.12,-5.65 1.85,-8.61 2.39,-9.65 6.08,-20.68 10.93,-32.44 4.66,-11.3 10.38,-23.26 17.01,-35.31l0.11 0.05c-6.63,12.05 -12.35,24.01 -17,35.3 -4.85,11.76 -8.55,22.79 -10.93,32.43 -0.73,2.95 -1.3,5.82 -1.85,8.61 -1.54,7.8 -2.94,14.92 -7.46,21.3 -3.85,5.41 -9.54,9.81 -16.58,13.11 -7.28,3.42 -16,5.67 -25.63,6.69 -4.91,0.52 -10.11,0.65 -15.51,0.39 -5.4,-0.25 -10.99,-0.88 -16.66,-1.89 -5.12,-0.92 -10.36,-2.13 -15.62,-3.61 -5.19,-1.46 -10.4,-3.18 -15.53,-5.15 -5.41,-2.06 -10.72,-4.31 -15.96,-6.52 -17.1,-7.24 -33.42,-14.14 -50.21,-13.47 -2.61,0.11 -5.19,0.41 -7.76,0.88 -2.58,0.47 -5.14,1.11 -7.72,1.9 -9.2,2.78 -16.79,7.48 -23.16,13.51 -6.37,6.02 -11.51,13.37 -15.81,21.44 -5.68,10.69 -10.03,22.56 -14.37,34.43 -1.44,3.91 -2.87,7.82 -4.35,11.68 -1.5,3.91 -3.06,7.74 -4.71,11.46 -1.65,3.73 -3.39,7.36 -5.26,10.86 -1.24,2.32 -2.55,4.59 -3.91,6.78 -1.22,1.95 -2.48,3.85 -3.79,5.69l-0.15 0z"/>
    <path class="fil1" d="M40.72 206.05c0.91,-1.33 1.8,-2.69 2.66,-4.08 0.99,-1.61 1.96,-3.25 2.89,-4.93 1.93,-3.48 3.72,-7.09 5.42,-10.8 1.7,-3.71 3.3,-7.53 4.84,-11.43 1.52,-3.85 2.99,-7.73 4.46,-11.61 4.49,-11.88 8.99,-23.77 14.84,-34.37 4.42,-8.03 9.7,-15.28 16.25,-21.13 6.54,-5.86 14.35,-10.33 23.83,-12.78 2.64,-0.68 5.24,-1.22 7.84,-1.59 2.6,-0.37 5.19,-0.58 7.82,-0.58 15.94,0.03 31.25,6.82 47.26,13.91 6.1,2.7 12.31,5.46 18.69,7.89 5.17,1.97 10.42,3.66 15.66,5.05 5.27,1.39 10.52,2.48 15.65,3.23 5.7,0.84 11.3,1.24 16.69,1.22 5.46,-0.02 10.7,-0.47 15.63,-1.33 9.5,-1.68 18,-4.73 24.94,-8.91 6.83,-4.12 12.14,-9.32 15.39,-15.38 3.79,-7.09 4.42,-14.62 5.1,-22.73 0.27,-3.24 0.55,-6.56 1.04,-10 1.36,-9.47 3.93,-20.08 7.61,-31.28 3.61,-11 8.29,-22.58 13.91,-34.24l0.11 0.05c-5.62,11.66 -10.29,23.24 -13.9,34.23 -3.68,11.19 -6.25,21.79 -7.61,31.26 -0.49,3.43 -0.76,6.75 -1.04,9.99 -0.68,8.13 -1.31,15.66 -5.12,22.77 -3.25,6.09 -8.58,11.31 -15.43,15.43 -6.95,4.19 -15.46,7.25 -24.97,8.93 -4.94,0.86 -10.19,1.31 -15.66,1.33 -5.4,0.02 -11,-0.38 -16.71,-1.22 -5.13,-0.76 -10.39,-1.84 -15.66,-3.24 -5.25,-1.38 -10.5,-3.07 -15.67,-5.04 -6.39,-2.44 -12.6,-5.19 -18.7,-7.9 -16,-7.09 -31.29,-13.87 -47.21,-13.89 -2.62,0 -5.21,0.2 -7.8,0.57 -2.6,0.37 -5.2,0.91 -7.83,1.59 -9.46,2.45 -17.25,6.9 -23.78,12.75 -6.54,5.84 -11.81,13.08 -16.22,21.1 -5.85,10.59 -10.35,22.48 -14.84,34.35 -1.47,3.89 -2.95,7.78 -4.46,11.61 -1.54,3.9 -3.14,7.72 -4.84,11.44 -1.7,3.71 -3.5,7.32 -5.42,10.8 -0.93,1.69 -1.9,3.33 -2.9,4.95 -0.85,1.36 -1.72,2.7 -2.61,4.01l-0.15 0z"/>
    <path class="fil1" d="M43.94 206.05c0.51,-0.78 1.01,-1.58 1.5,-2.38 0.64,-1.02 1.26,-2.06 1.86,-3.12 1.98,-3.46 3.82,-7.05 5.57,-10.74 1.75,-3.7 3.4,-7.51 5.01,-11.41 1.54,-3.77 3.03,-7.59 4.52,-11.4 4.66,-11.94 9.32,-23.89 15.38,-34.47 4.54,-7.95 9.95,-15.09 16.65,-20.78 6.71,-5.69 14.71,-9.93 24.45,-12.07 2.67,-0.59 5.31,-1.02 7.95,-1.27 2.63,-0.26 5.25,-0.34 7.89,-0.23 15.25,0.65 29.72,7.4 44.8,14.43 6.81,3.17 13.74,6.4 20.93,9.16 5.14,1.98 10.39,3.62 15.64,4.92 5.33,1.32 10.66,2.29 15.85,2.88 5.78,0.66 11.45,0.84 16.89,0.56 5.47,-0.28 10.71,-1.04 15.62,-2.24 9.39,-2.34 17.7,-6.18 24.33,-11.14 6.59,-4.93 11.52,-10.96 14.2,-17.69 3.09,-7.81 3,-15.81 2.91,-24.33 -0.04,-3.66 -0.09,-7.42 0.12,-11.3 0.49,-9.29 2.1,-19.51 4.76,-30.22 2.64,-10.65 6.31,-21.79 10.93,-33.03l0.11 0.05c-4.61,11.22 -8.28,22.36 -10.92,33 -2.66,10.71 -4.27,20.92 -4.76,30.21 -0.21,3.87 -0.16,7.63 -0.12,11.29 0.09,8.53 0.18,16.54 -2.92,24.37 -2.69,6.75 -7.63,12.8 -14.24,17.74 -6.64,4.97 -14.96,8.83 -24.37,11.16 -4.92,1.21 -10.17,1.97 -15.64,2.25 -5.46,0.28 -11.13,0.1 -16.91,-0.56 -5.2,-0.59 -10.53,-1.56 -15.87,-2.88 -5.25,-1.3 -10.51,-2.95 -15.65,-4.93 -7.19,-2.76 -14.13,-5.99 -20.94,-9.16 -15.07,-7.03 -29.53,-13.77 -44.76,-14.42 -2.63,-0.11 -5.25,-0.03 -7.87,0.23 -2.63,0.25 -5.26,0.68 -7.93,1.27 -9.72,2.14 -17.71,6.36 -24.4,12.04 -6.69,5.68 -12.09,12.81 -16.63,20.75 -6.05,10.57 -10.71,22.51 -15.37,34.45 -1.49,3.82 -2.98,7.64 -4.51,11.4 -1.62,3.91 -3.28,7.72 -5.02,11.42 -1.75,3.7 -3.6,7.29 -5.57,10.75 -0.61,1.06 -1.23,2.1 -1.86,3.13 -0.48,0.78 -0.97,1.55 -1.47,2.31l-0.14 0z"/>
    <path class="fil1" d="M47.14 206.05c0.13,-0.21 0.26,-0.42 0.4,-0.64 0.27,-0.44 0.53,-0.87 0.79,-1.31 2.03,-3.42 3.92,-6.99 5.72,-10.67 1.8,-3.69 3.5,-7.49 5.15,-11.37 1.58,-3.77 3.11,-7.57 4.65,-11.37 4.8,-11.94 9.61,-23.89 15.83,-34.39 4.68,-7.9 10.21,-14.93 17.08,-20.44 6.86,-5.52 15.06,-9.51 25.05,-11.35 2.73,-0.49 5.41,-0.82 8.06,-0.97 2.66,-0.15 5.29,-0.13 7.93,0.09 14.56,1.23 28.24,7.95 42.45,14.93 7.46,3.67 15.06,7.41 23.02,10.46 5.18,1.99 10.48,3.61 15.79,4.83 5.34,1.24 10.68,2.07 15.92,2.5 5.82,0.47 11.54,0.43 17.02,-0.13 5.49,-0.55 10.74,-1.61 15.63,-3.17 9.31,-2.96 17.43,-7.59 23.74,-13.33 6.33,-5.76 10.85,-12.63 12.96,-20.03 2.47,-8.63 1.64,-17.25 0.78,-26.3 -0.38,-3.96 -0.77,-8.01 -0.89,-12.19 -0.25,-9.09 0.55,-18.94 2.32,-29.21 1.77,-10.29 4.53,-21 8.21,-31.81l0.12 0.04c-3.68,10.8 -6.44,21.51 -8.21,31.79 -1.77,10.26 -2.57,20.11 -2.32,29.19 0.12,4.17 0.51,8.22 0.89,12.18 0.87,9.07 1.69,17.69 -0.78,26.34 -2.12,7.42 -6.65,14.31 -13,20.09 -6.33,5.75 -14.45,10.39 -23.78,13.36 -4.9,1.55 -10.16,2.62 -15.65,3.17 -5.5,0.56 -11.22,0.6 -17.05,0.13 -5.24,-0.43 -10.59,-1.27 -15.94,-2.5 -5.31,-1.23 -10.61,-2.84 -15.8,-4.83 -7.96,-3.06 -15.57,-6.8 -23.04,-10.47 -14.19,-6.97 -27.86,-13.69 -42.4,-14.92 -2.64,-0.21 -5.26,-0.24 -7.91,-0.09 -2.65,0.15 -5.32,0.48 -8.05,0.97 -9.97,1.83 -18.15,5.82 -25,11.32 -6.85,5.51 -12.38,12.53 -17.04,20.41 -6.22,10.5 -11.03,22.44 -15.83,34.37 -1.54,3.81 -3.07,7.63 -4.65,11.38 -1.65,3.88 -3.35,7.68 -5.15,11.37 -1.8,3.69 -3.7,7.26 -5.73,10.69 -0.27,0.44 -0.53,0.88 -0.79,1.31 -0.12,0.19 -0.24,0.38 -0.36,0.57l-0.14 0z"/>
    <path class="fil1" d="M50.34 206.05c1.82,-3.07 3.54,-6.25 5.18,-9.53 1.76,-3.52 3.43,-7.14 5.04,-10.87 1.59,-3.69 3.16,-7.45 4.72,-11.22 4.97,-11.97 9.96,-23.96 16.34,-34.39 4.81,-7.85 10.48,-14.78 17.51,-20.12 7.03,-5.34 15.42,-9.09 25.65,-10.57 2.77,-0.4 5.49,-0.63 8.18,-0.68 2.69,-0.04 5.35,0.09 7.99,0.42 14.02,1.75 27.04,8.53 40.51,15.53 7.99,4.15 16.12,8.38 24.71,11.69 5.17,2 10.47,3.57 15.78,4.72 5.4,1.17 10.81,1.89 16.1,2.17 5.9,0.29 11.7,0.02 17.24,-0.8 5.5,-0.82 10.75,-2.18 15.6,-4.07 9.25,-3.61 17.17,-9.03 23.18,-15.55 6.06,-6.58 10.16,-14.28 11.72,-22.36 1.82,-9.4 0.28,-18.59 -1.32,-28.13 -0.72,-4.31 -1.46,-8.69 -1.9,-13.21 -0.88,-8.89 -0.79,-18.4 0.21,-28.26 1.01,-9.95 2.95,-20.25 5.77,-30.63l0.11 0.03c-2.82,10.38 -4.75,20.67 -5.76,30.61 -1,9.86 -1.09,19.36 -0.21,28.24 0.44,4.51 1.18,8.89 1.9,13.2 1.6,9.55 3.14,18.75 1.32,28.18 -1.56,8.1 -5.68,15.82 -11.75,22.41 -6.02,6.53 -13.96,11.97 -23.23,15.58 -4.86,1.9 -10.12,3.26 -15.62,4.08 -5.55,0.82 -11.36,1.09 -17.26,0.8 -5.3,-0.28 -10.72,-1.01 -16.12,-2.17 -5.32,-1.15 -10.62,-2.72 -15.81,-4.72 -8.59,-3.32 -16.73,-7.55 -24.71,-11.7 -13.46,-7 -26.48,-13.77 -40.47,-15.52 -2.64,-0.33 -5.29,-0.46 -7.98,-0.42 -2.68,0.05 -5.4,0.28 -8.16,0.68 -10.21,1.48 -18.58,5.22 -25.6,10.55 -7.01,5.33 -12.68,12.25 -17.47,20.08 -6.38,10.42 -11.37,22.41 -16.34,34.38 -1.56,3.75 -3.11,7.5 -4.72,11.22 -1.61,3.72 -3.28,7.35 -5.04,10.87 -1.63,3.26 -3.34,6.42 -5.15,9.48l-0.14 0z"/>
    <path class="fil1" d="M53.58 206.05c1.45,-2.54 2.84,-5.15 4.18,-7.82 1.46,-2.91 2.86,-5.9 4.23,-8.95 1.61,-3.64 3.19,-7.33 4.77,-11.03 5.14,-12.03 10.29,-24.08 16.88,-34.48 4.93,-7.77 10.73,-14.6 17.92,-19.77 7.19,-5.18 15.78,-8.7 26.26,-9.85 2.81,-0.31 5.57,-0.44 8.28,-0.38 2.72,0.06 5.4,0.3 8.04,0.74 13.49,2.26 25.93,9.08 38.73,16.11 8.45,4.63 17.05,9.36 26.23,12.91 5.2,2 10.55,3.54 15.9,4.61 5.42,1.08 10.85,1.68 16.17,1.8 5.93,0.12 11.75,-0.37 17.31,-1.46 5.55,-1.09 10.84,-2.77 15.7,-5.02 9.21,-4.26 16.96,-10.47 22.66,-17.78 5.76,-7.39 9.44,-15.9 10.46,-24.67 1.15,-10.14 -1.11,-19.92 -3.44,-30 -1.07,-4.66 -2.16,-9.38 -2.94,-14.23 -1.41,-8.64 -1.94,-17.79 -1.62,-27.22 0.32,-9.57 1.52,-19.43 3.54,-29.37l0.12 0.03c-2.02,9.93 -3.22,19.78 -3.54,29.34 -0.32,9.43 0.21,18.57 1.62,27.2 0.78,4.84 1.87,9.56 2.94,14.22 2.33,10.09 4.59,19.89 3.44,30.05 -1.02,8.79 -4.71,17.32 -10.48,24.72 -5.72,7.33 -13.48,13.55 -22.71,17.82 -4.87,2.25 -10.17,3.94 -15.72,5.03 -5.57,1.09 -11.4,1.58 -17.35,1.46 -5.32,-0.11 -10.76,-0.72 -16.18,-1.8 -5.36,-1.07 -10.71,-2.61 -15.93,-4.62 -9.18,-3.55 -17.79,-8.28 -26.24,-12.92 -12.79,-7.02 -25.22,-13.84 -38.69,-16.09 -2.63,-0.44 -5.31,-0.68 -8.02,-0.74 -2.71,-0.06 -5.46,0.07 -8.26,0.38 -10.47,1.15 -19.03,4.66 -26.21,9.83 -7.17,5.16 -12.97,11.98 -17.89,19.74 -6.58,10.39 -11.73,22.44 -16.87,34.46 -1.58,3.69 -3.15,7.37 -4.77,11.02 -1.37,3.06 -2.77,6.05 -4.23,8.96 -1.33,2.66 -2.71,5.25 -4.15,7.77l-0.14 0z"/>
    <path class="fil1" d="M56.7 206.05c1.11,-2 2.18,-4.05 3.23,-6.13 1.17,-2.32 2.3,-4.68 3.41,-7.09 1.73,-3.76 3.42,-7.59 5.1,-11.42 5.23,-11.87 10.46,-23.75 17.14,-33.97 5.06,-7.72 10.99,-14.44 18.34,-19.44 7.36,-5 16.13,-8.28 26.87,-9.13 2.86,-0.22 5.66,-0.24 8.4,-0.07 2.75,0.17 5.44,0.53 8.1,1.06 13.01,2.7 24.93,9.61 37.13,16.68 8.86,5.14 17.88,10.37 27.57,14.13 5.19,2.02 10.55,3.52 15.92,4.51 5.47,1 10.96,1.48 16.33,1.42 6.01,-0.05 11.89,-0.77 17.5,-2.13 5.56,-1.35 10.85,-3.33 15.7,-5.92 9.18,-4.92 16.75,-11.92 22.15,-20.03 5.45,-8.19 8.69,-17.51 9.14,-26.95 0.49,-10.95 -2.49,-21.38 -5.54,-32.03 -1.42,-4.95 -2.85,-9.94 -3.95,-15.06 -1.84,-8.38 -2.88,-17.18 -3.14,-26.22 -0.27,-9.16 0.26,-18.58 1.55,-28.06l0.12 0.01c-1.29,9.48 -1.82,18.89 -1.55,28.05 0.26,9.03 1.3,17.82 3.14,26.19 1.1,5.12 2.53,10.11 3.94,15.05 3.06,10.67 6.05,21.1 5.55,32.07 -0.45,9.47 -3.69,18.81 -9.16,27.02 -5.41,8.12 -13,15.14 -22.2,20.07 -4.85,2.59 -10.15,4.57 -15.72,5.93 -5.62,1.36 -11.51,2.08 -17.53,2.13 -5.38,0.06 -10.87,-0.42 -16.35,-1.42 -5.38,-0.99 -10.74,-2.5 -15.94,-4.52 -9.71,-3.76 -18.73,-8.99 -27.59,-14.13 -12.19,-7.07 -24.1,-13.98 -37.09,-16.67 -2.65,-0.53 -5.34,-0.89 -8.08,-1.06 -2.74,-0.16 -5.53,-0.15 -8.39,0.07 -10.72,0.84 -19.47,4.12 -26.81,9.11 -7.34,4.99 -13.26,11.7 -18.31,19.4 -6.67,10.22 -11.9,22.09 -17.13,33.96 -1.68,3.82 -3.36,7.64 -5.1,11.42 -1.11,2.41 -2.24,4.78 -3.41,7.09 -1.04,2.07 -2.1,4.1 -3.2,6.08l-0.14 0z"/>
    <path class="fil1" d="M59.9 206.05c0.77,-1.44 1.54,-2.9 2.29,-4.39 0.86,-1.71 1.71,-3.44 2.54,-5.21 1.76,-3.71 3.47,-7.5 5.19,-11.28 5.38,-11.9 10.78,-23.81 17.68,-33.96 5.18,-7.65 11.24,-14.27 18.75,-19.11 7.52,-4.84 16.48,-7.88 27.48,-8.36 2.9,-0.12 5.73,-0.04 8.51,0.24 2.77,0.28 5.48,0.75 8.14,1.41 12.6,3.11 24.03,10.12 35.68,17.26 9.22,5.66 18.58,11.4 28.76,15.35 5.2,2.03 10.58,3.49 15.98,4.4 5.51,0.93 11.06,1.27 16.49,1.05 6.08,-0.24 12.05,-1.18 17.7,-2.81 5.58,-1.61 10.86,-3.89 15.68,-6.81 9.14,-5.56 16.55,-13.35 21.65,-22.26 5.15,-8.99 7.95,-19.13 7.84,-29.27 -0.12,-11.83 -3.89,-23 -7.72,-34.35 -1.74,-5.15 -3.48,-10.33 -4.91,-15.63 -2.2,-8.12 -3.66,-16.58 -4.43,-25.25 -0.77,-8.8 -0.83,-17.8 -0.17,-26.87l0.12 0.01c-0.65,9.06 -0.6,18.06 0.17,26.85 0.77,8.66 2.23,17.11 4.42,25.23 1.43,5.3 3.18,10.48 4.92,15.62 3.83,11.36 7.6,22.54 7.72,34.39 0.11,10.17 -2.7,20.32 -7.85,29.33 -5.12,8.93 -12.54,16.73 -21.7,22.3 -4.82,2.93 -10.12,5.21 -15.7,6.82 -5.67,1.64 -11.64,2.58 -17.74,2.82 -5.44,0.22 -10.99,-0.12 -16.51,-1.05 -5.41,-0.91 -10.79,-2.38 -16,-4.41 -10.19,-3.95 -19.56,-9.69 -28.78,-15.35 -11.64,-7.14 -23.07,-14.14 -35.65,-17.25 -2.65,-0.66 -5.36,-1.13 -8.12,-1.41 -2.77,-0.28 -5.6,-0.36 -8.49,-0.23 -10.98,0.47 -19.92,3.51 -27.42,8.33 -7.5,4.83 -13.54,11.44 -18.72,19.07 -6.89,10.14 -12.29,22.06 -17.67,33.95 -1.72,3.78 -3.43,7.56 -5.19,11.29 -0.83,1.76 -1.68,3.5 -2.55,5.21 -0.74,1.46 -1.49,2.91 -2.25,4.33l-0.14 0z"/>
    <path class="fil1" d="M63.01 206.05c0.46,-0.87 0.91,-1.74 1.35,-2.62 0.56,-1.1 1.11,-2.22 1.66,-3.35 1.77,-3.66 3.5,-7.38 5.23,-11.1 5.56,-11.96 11.12,-23.92 18.22,-34.04 5.31,-7.59 11.51,-14.11 19.18,-18.78 7.68,-4.66 16.84,-7.47 28.08,-7.62 2.95,-0.03 5.82,0.15 8.62,0.53 2.8,0.39 5.54,0.98 8.21,1.75 12.24,3.5 23.28,10.64 34.47,17.88 9.52,6.16 19.14,12.39 29.71,16.51 5.23,2.04 10.63,3.47 16.07,4.3 5.54,0.85 11.12,1.09 16.58,0.72 6.17,-0.43 12.21,-1.6 17.92,-3.52 5.58,-1.87 10.85,-4.44 15.6,-7.72l0.01 0c9.13,-6.19 16.36,-14.76 21.16,-24.47 4.84,-9.79 7.2,-20.74 6.54,-31.59 -0.79,-12.65 -5.31,-24.52 -9.89,-36.51 -2.05,-5.39 -4.12,-10.81 -5.86,-16.33 -2.48,-7.84 -4.3,-15.96 -5.49,-24.24 -1.21,-8.42 -1.76,-17 -1.67,-25.65l0.12 0c-0.09,8.64 0.46,17.22 1.67,25.63 1.18,8.28 3.01,16.39 5.48,24.22 1.74,5.52 3.81,10.94 5.87,16.33 4.57,12 9.1,23.87 9.89,36.54 0.66,10.88 -1.71,21.85 -6.55,31.65 -4.81,9.73 -12.06,18.31 -21.21,24.52 -4.76,3.28 -10.04,5.86 -15.63,7.74 -5.72,1.92 -11.78,3.09 -17.95,3.52 -5.47,0.37 -11.06,0.13 -16.6,-0.72 -5.45,-0.84 -10.87,-2.27 -16.1,-4.3 -10.58,-4.13 -20.21,-10.36 -29.74,-16.52 -11.18,-7.24 -22.21,-14.38 -34.43,-17.88 -2.67,-0.77 -5.4,-1.35 -8.19,-1.74 -2.8,-0.38 -5.66,-0.56 -8.61,-0.53 -11.21,0.15 -20.35,2.95 -28.01,7.6 -7.66,4.66 -13.85,11.18 -19.16,18.75 -7.09,10.11 -12.65,22.07 -18.2,34.02 -1.73,3.72 -3.46,7.44 -5.23,11.1 -0.55,1.13 -1.1,2.25 -1.66,3.35 -0.44,0.87 -0.88,1.72 -1.32,2.57l-0.14 0z"/>
    <path class="fil1" d="M66.1 206.05c0.14,-0.28 0.29,-0.57 0.43,-0.85 0.25,-0.5 0.51,-1.01 0.77,-1.53 1.82,-3.66 3.59,-7.38 5.37,-11.1 5.69,-11.94 11.4,-23.9 18.66,-33.93 5.45,-7.53 11.77,-13.96 19.61,-18.45 7.84,-4.5 17.19,-7.07 28.69,-6.88 2.98,0.05 5.89,0.33 8.72,0.82 2.83,0.49 5.58,1.19 8.25,2.07 11.91,3.88 22.57,11.17 33.34,18.52 9.78,6.68 19.64,13.42 30.59,17.71 5.21,2.05 10.63,3.44 16.1,4.2 5.57,0.77 11.2,0.87 16.73,0.34 6.2,-0.59 12.27,-1.99 18,-4.17 5.63,-2.14 10.93,-5.03 15.7,-8.64 9.12,-6.87 16.19,-16.23 20.68,-26.76 4.51,-10.56 6.42,-22.3 5.2,-33.85 -1.45,-13.51 -6.76,-26.09 -12.11,-38.73 -2.37,-5.61 -4.74,-11.24 -6.79,-16.97 -2.7,-7.53 -4.82,-15.3 -6.37,-23.21 -1.57,-8.03 -2.54,-16.21 -2.94,-24.43l0.12 -0.01c0.4,8.22 1.37,16.39 2.94,24.42 1.55,7.9 3.66,15.66 6.36,23.19 2.05,5.73 4.43,11.35 6.8,16.96 5.34,12.66 10.66,25.24 12.11,38.77 1.23,11.57 -0.69,23.33 -5.21,33.91 -4.5,10.54 -11.58,19.93 -20.71,26.81 -4.78,3.61 -10.1,6.51 -15.74,8.65 -5.74,2.18 -11.82,3.59 -18.03,4.18 -5.54,0.54 -11.18,0.43 -16.76,-0.34 -5.48,-0.76 -10.9,-2.16 -16.13,-4.21 -10.96,-4.29 -20.82,-11.03 -30.61,-17.72 -10.76,-7.35 -21.41,-14.63 -33.3,-18.5 -2.68,-0.88 -5.42,-1.58 -8.24,-2.07 -2.82,-0.49 -5.72,-0.77 -8.71,-0.82 -11.47,-0.19 -20.8,2.37 -28.62,6.86 -7.82,4.49 -14.13,10.9 -19.57,18.42 -7.25,10.02 -12.96,21.98 -18.65,33.91 -1.78,3.72 -3.55,7.44 -5.37,11.1 -0.25,0.51 -0.51,1.02 -0.77,1.53 -0.14,0.27 -0.27,0.54 -0.41,0.8l-0.13 0z"/>
    <path class="fil1" d="M69.3 206.05c1.65,-3.25 3.26,-6.54 4.87,-9.82 14.61,-29.86 29.32,-59.89 68.46,-58.13 19.19,0.87 34.31,11.75 49.52,22.7 10,7.2 20.04,14.43 31.31,18.85 11.23,4.41 23.41,5.6 35.06,3.8 11.66,-1.8 22.78,-6.58 31.87,-14.12 9.1,-7.55 16.02,-17.72 20.22,-29.06 4.19,-11.34 5.66,-23.85 3.86,-36.09 -2.09,-14.41 -8.21,-27.75 -14.35,-41.11 -2.66,-5.8 -5.32,-11.59 -7.66,-17.49 -2.86,-7.22 -5.21,-14.63 -7.05,-22.16 -1.87,-7.64 -3.21,-15.4 -4.03,-23.21l0.12 -0.01c0.82,7.8 2.16,15.55 4.03,23.19 1.83,7.52 4.18,14.93 7.05,22.15 2.33,5.89 4.99,11.68 7.65,17.48 6.14,13.37 12.27,26.72 14.36,41.14 1.8,12.26 0.33,24.79 -3.87,36.15 -4.2,11.36 -11.13,21.55 -20.25,29.11 -9.11,7.55 -20.25,12.35 -31.93,14.15 -11.67,1.8 -23.87,0.61 -35.13,-3.81 -11.27,-4.42 -21.32,-11.66 -31.33,-18.86 -15.2,-10.94 -30.3,-21.82 -49.45,-22.68 -39.07,-1.75 -53.76,28.24 -68.35,58.06 -1.61,3.28 -3.21,6.55 -4.84,9.77l-0.14 0z"/>
    <path class="fil1" d="M70.74 206.05c1.08,-1.98 2.16,-3.96 3.23,-5.94 1.22,-2.25 2.43,-4.5 3.66,-6.74 4.51,-8.24 9.16,-16.27 14.59,-23.32 5.43,-7.05 11.63,-13.12 19.24,-17.47 4.26,-2.42 8.94,-4.32 14.15,-5.56 5.21,-1.23 10.95,-1.81 17.31,-1.59 18.91,0.64 33.87,10.49 48.78,20.31 9.86,6.49 19.71,12.97 30.66,16.76 1.82,0.62 3.67,1.16 5.52,1.62 1.87,0.46 3.75,0.83 5.64,1.13 9.47,1.44 19.22,0.77 28.42,-1.88 9.03,-2.6 17.54,-7.11 24.72,-13.42 8.7,-7.64 15.3,-17.79 19.32,-29.05 4.03,-11.28 5.47,-23.68 3.84,-35.81 -1.9,-14.2 -7.54,-27.46 -13.2,-40.74 -2.52,-5.92 -5.04,-11.84 -7.23,-17.85 -2.7,-7.39 -4.87,-14.96 -6.52,-22.64 -1.68,-7.8 -2.82,-15.71 -3.44,-23.65l0.12 -0.01c0.62,7.93 1.76,15.84 3.44,23.63 1.65,7.68 3.82,15.25 6.51,22.63 2.19,6 4.71,11.93 7.23,17.84 5.66,13.29 11.31,26.56 13.21,40.78 1.64,12.14 0.19,24.57 -3.84,35.86 -4.03,11.28 -10.65,21.45 -19.36,29.1 -7.2,6.32 -15.72,10.85 -24.77,13.45 -9.21,2.65 -18.98,3.32 -28.47,1.88 -1.89,-0.3 -3.78,-0.67 -5.65,-1.13 -1.86,-0.46 -3.7,-1 -5.53,-1.62 -10.97,-3.8 -20.82,-10.28 -30.68,-16.78 -14.9,-9.81 -29.85,-19.65 -48.72,-20.29 -6.35,-0.22 -12.08,0.36 -17.28,1.59 -5.2,1.24 -9.87,3.13 -14.12,5.55 -7.59,4.33 -13.78,10.4 -19.21,17.44 -5.42,7.04 -10.07,15.06 -14.57,23.3 -1.24,2.25 -2.45,4.49 -3.67,6.74 -1.06,1.96 -2.12,3.93 -3.19,5.88l-0.14 0z"/>
    <path class="fil1" d="M72.55 206.05c0.9,-1.49 1.76,-2.93 2.62,-4.37 0.86,-1.43 1.72,-2.86 2.57,-4.28 4.65,-7.69 9.41,-15.15 14.9,-21.68 5.5,-6.54 11.73,-12.15 19.34,-16.14 4.27,-2.24 8.94,-4.01 14.12,-5.18 5.16,-1.18 10.83,-1.75 17.08,-1.61 18.59,0.42 33.38,9.22 47.98,17.91 9.76,5.81 19.43,11.56 30.09,14.73 1.78,0.51 3.56,0.95 5.36,1.32 1.8,0.36 3.61,0.64 5.44,0.84 9.13,0.98 18.5,-0.06 27.32,-2.99 8.64,-2.86 16.74,-7.54 23.59,-13.92 8.3,-7.75 14.6,-17.89 18.45,-29.09 3.86,-11.22 5.26,-23.5 3.76,-35.51 -1.73,-13.99 -6.88,-27.14 -12.03,-40.31 -2.38,-6.06 -4.75,-12.13 -6.79,-18.28 -2.52,-7.57 -4.51,-15.31 -5.97,-23.16 -1.48,-7.97 -2.41,-16.04 -2.81,-24.12l0.12 -0.01c0.4,8.08 1.33,16.15 2.81,24.1 1.46,7.85 3.44,15.59 5.96,23.15 2.04,6.15 4.42,12.21 6.79,18.27 5.16,13.18 10.31,26.34 12.04,40.35 1.5,12.03 0.1,24.32 -3.76,35.56 -3.86,11.22 -10.17,21.37 -18.49,29.14 -6.86,6.39 -14.98,11.08 -23.63,13.95 -8.84,2.93 -18.22,3.97 -27.37,2.99 -1.84,-0.2 -3.65,-0.48 -5.45,-0.85 -1.8,-0.36 -3.59,-0.8 -5.37,-1.31 -10.68,-3.17 -20.36,-8.94 -30.12,-14.75 -14.59,-8.68 -29.37,-17.47 -47.92,-17.89 -6.24,-0.14 -11.9,0.43 -17.06,1.6 -5.16,1.18 -9.82,2.94 -14.09,5.17 -7.59,3.99 -13.81,9.59 -19.3,16.11 -5.48,6.53 -10.23,13.98 -14.89,21.67 -0.85,1.42 -1.71,2.85 -2.56,4.28 -0.87,1.45 -1.74,2.9 -2.59,4.31l-0.14 0z"/>
    <path class="fil1" d="M74.62 206.05c1.02,-1.53 2.05,-3.07 3.09,-4.62 4.8,-7.13 9.66,-14.02 15.22,-20.04 5.56,-6.02 11.83,-11.17 19.42,-14.82 4.29,-2.07 8.96,-3.71 14.1,-4.82 5.13,-1.1 10.73,-1.67 16.88,-1.59 18.19,0.17 32.75,7.89 46.97,15.43 9.71,5.15 19.26,10.21 29.71,12.74 1.7,0.42 3.43,0.75 5.16,1 1.74,0.25 3.49,0.42 5.23,0.53 8.8,0.54 17.77,-0.86 26.2,-4.08 8.22,-3.14 15.93,-8 22.43,-14.47 7.92,-7.86 13.92,-17.98 17.6,-29.11 3.69,-11.16 5.06,-23.33 3.71,-35.24 -1.54,-13.76 -6.2,-26.75 -10.87,-39.76 -2.24,-6.25 -4.49,-12.5 -6.39,-18.84 -2.33,-7.73 -4.12,-15.65 -5.38,-23.66 -1.27,-8.1 -2,-16.29 -2.19,-24.49l0.12 -0.01c0.19,8.2 0.92,16.39 2.19,24.49 1.26,8 3.05,15.91 5.38,23.64 1.9,6.34 4.14,12.59 6.38,18.83 4.68,13.02 9.34,26.02 10.88,39.79 1.35,11.93 -0.02,24.11 -3.72,35.29 -3.69,11.14 -9.69,21.28 -17.62,29.15 -6.52,6.49 -14.24,11.36 -22.48,14.5 -8.44,3.23 -17.43,4.63 -26.25,4.09 -1.74,-0.11 -3.49,-0.28 -5.23,-0.53 -1.74,-0.26 -3.48,-0.59 -5.18,-1.01 -10.46,-2.53 -20.02,-7.59 -29.73,-12.74 -14.22,-7.54 -28.77,-15.25 -46.93,-15.42 -6.13,-0.08 -11.72,0.49 -16.85,1.59 -5.12,1.11 -9.79,2.74 -14.07,4.81 -7.58,3.64 -13.83,8.78 -19.38,14.79 -5.56,6.02 -10.42,12.9 -15.21,20.03 -1,1.49 -2.02,3.02 -3.04,4.55l-0.15 0z"/>
    <path class="fil1" d="M77.33 206.05l0.45 -0.6c4.95,-6.57 9.92,-12.89 15.55,-18.4 5.63,-5.51 11.92,-10.2 19.49,-13.52 4.31,-1.89 8.99,-3.38 14.09,-4.41 5.11,-1.03 10.64,-1.6 16.67,-1.64 17.79,-0.09 32.13,6.55 45.99,12.97 9.66,4.47 19.1,8.84 29.3,10.73 1.61,0.31 3.23,0.53 4.87,0.69 1.71,0.16 3.43,0.24 5.15,0.26 8.46,0.08 17.05,-1.7 25.09,-5.19 7.83,-3.41 15.14,-8.44 21.32,-14.97 7.5,-7.96 13.17,-18.05 16.67,-29.09 3.53,-11.1 4.87,-23.16 3.68,-34.97 -1.37,-13.51 -5.55,-26.38 -9.73,-39.27 -2.08,-6.42 -4.17,-12.85 -5.91,-19.36 -2.13,-7.9 -3.72,-15.99 -4.77,-24.16 -1.07,-8.25 -1.58,-16.59 -1.54,-24.92l0.12 0c-0.04,8.33 0.47,16.66 1.53,24.91 1.05,8.16 2.64,16.24 4.77,24.14 1.75,6.51 3.83,12.94 5.91,19.36 4.19,12.89 8.37,25.76 9.74,39.29 1.19,11.82 -0.15,23.9 -3.68,35.02 -3.51,11.05 -9.19,21.16 -16.71,29.13 -6.18,6.55 -13.51,11.59 -21.35,15 -8.06,3.5 -16.66,5.28 -25.14,5.2 -1.72,-0.01 -3.45,-0.1 -5.16,-0.26 -1.64,-0.16 -3.27,-0.38 -4.88,-0.69 -10.22,-1.9 -19.66,-6.27 -29.33,-10.74 -13.85,-6.41 -28.18,-13.04 -45.94,-12.96 -6.02,0.04 -11.55,0.61 -16.64,1.64 -5.1,1.02 -9.77,2.52 -14.07,4.4 -7.55,3.31 -13.83,8 -19.45,13.5 -5.63,5.5 -10.6,11.81 -15.54,18.39l-0.4 0.52 -0.15 0z"/>
    <path class="fil1" d="M80.71 206.05c4.52,-5.23 9.14,-10.18 14.28,-14.49 5.37,-4.5 11.3,-8.31 18.31,-11.07 4.33,-1.71 8.99,-3.09 14.06,-4.07 5.07,-0.97 10.54,-1.54 16.48,-1.61 17.24,-0.21 31.26,5.27 44.65,10.51 9.74,3.81 19.15,7.49 29.24,8.76 1.59,0.2 3.19,0.32 4.8,0.37 1.6,0.05 3.21,0.03 4.82,-0.05 8.13,-0.39 16.33,-2.53 24,-6.31 7.42,-3.66 14.34,-8.85 20.17,-15.46 7.11,-8.08 12.48,-18.15 15.82,-29.11 3.36,-11.04 4.67,-22.99 3.62,-34.69 -1.17,-13.17 -4.85,-25.79 -8.54,-38.44 -1.95,-6.7 -3.9,-13.4 -5.49,-20.2 -1.92,-8.08 -3.29,-16.34 -4.12,-24.67 -0.83,-8.4 -1.12,-16.87 -0.85,-25.32l0.12 0.01c-0.27,8.44 0.02,16.91 0.85,25.3 0.83,8.33 2.2,16.58 4.12,24.65 1.58,6.8 3.54,13.51 5.49,20.2 3.69,12.65 7.36,25.28 8.54,38.46 1.05,11.72 -0.26,23.68 -3.63,34.74 -3.34,10.97 -8.72,21.06 -15.84,29.15 -5.84,6.62 -12.77,11.82 -20.21,15.49 -7.68,3.78 -15.9,5.93 -24.04,6.33 -1.62,0.07 -3.23,0.09 -4.84,0.04 -1.61,-0.05 -3.21,-0.17 -4.81,-0.37 -10.1,-1.27 -19.52,-4.96 -29.27,-8.77 -13.38,-5.24 -27.38,-10.71 -44.6,-10.5 -5.93,0.07 -11.4,0.64 -16.46,1.61 -5.06,0.98 -9.71,2.36 -14.03,4.06 -7,2.76 -12.93,6.56 -18.28,11.05 -5.11,4.29 -9.7,9.2 -14.2,14.4l-0.16 0z"/>
    <path class="fil1" d="M85.21 206.05c3.97,-3.8 8.08,-7.34 12.59,-10.44 4.77,-3.27 9.98,-6.05 15.94,-8.13 4.37,-1.52 9.03,-2.77 14.06,-3.68 5.03,-0.92 10.43,-1.48 16.26,-1.63 16.6,-0.41 30.23,3.93 43.11,8.04 9.91,3.15 19.36,6.17 29.38,6.76 3.08,0.18 6.15,0.07 9.22,-0.26 7.79,-0.85 15.62,-3.37 22.9,-7.43 7.03,-3.92 13.55,-9.27 19.04,-15.95 6.7,-8.18 11.76,-18.22 14.92,-29.1 3.2,-10.99 4.47,-22.83 3.57,-34.45 -1.01,-12.86 -4.23,-25.28 -7.45,-37.71 -1.79,-6.95 -3.59,-13.89 -5.01,-20.93 -1.7,-8.26 -2.85,-16.7 -3.45,-25.2 -0.6,-8.55 -0.65,-17.17 -0.15,-25.74l0.12 0.01c-0.5,8.56 -0.45,17.17 0.15,25.72 0.6,8.5 1.75,16.93 3.45,25.19 1.42,7.03 3.22,13.98 5.01,20.92 3.22,12.44 6.44,24.87 7.45,37.73 0.9,11.64 -0.37,23.49 -3.57,34.49 -3.17,10.89 -8.23,20.95 -14.95,29.14 -5.5,6.7 -12.03,12.06 -19.07,15.98 -7.3,4.07 -15.14,6.59 -22.94,7.45 -3.08,0.33 -6.16,0.44 -9.24,0.26 -10.04,-0.59 -19.5,-3.61 -29.42,-6.77 -12.86,-4.1 -26.49,-8.44 -43.07,-8.03 -5.82,0.15 -11.21,0.71 -16.24,1.63 -5.02,0.91 -9.68,2.16 -14.04,3.68 -5.95,2.07 -11.15,4.85 -15.91,8.11 -4.47,3.07 -8.54,6.57 -12.48,10.34l-0.18 0z"/>
    <path class="fil1" d="M91.58 206.05c3.16,-2.31 6.46,-4.43 10,-6.31 3.87,-2.06 8.02,-3.82 12.61,-5.22 4.38,-1.34 9.04,-2.47 14.03,-3.32 5,-0.84 10.32,-1.41 16.02,-1.63 15.8,-0.6 28.93,2.61 41.19,5.61 10.23,2.5 19.85,4.85 29.91,4.72 1.48,-0.02 2.96,-0.11 4.44,-0.26 1.48,-0.15 2.95,-0.36 4.41,-0.62 7.43,-1.32 14.87,-4.22 21.78,-8.57 6.63,-4.17 12.77,-9.68 17.93,-16.42 6.31,-8.27 11.05,-18.29 14.05,-29.07 3.04,-10.94 4.28,-22.67 3.52,-34.19 -0.83,-12.6 -3.6,-24.85 -6.38,-37.13 -1.61,-7.14 -3.22,-14.28 -4.46,-21.51 -1.45,-8.46 -2.36,-17.1 -2.72,-25.79 -0.35,-8.7 -0.16,-17.45 0.59,-26.14l0.12 0.01c-0.75,8.68 -0.94,17.43 -0.59,26.13 0.36,8.68 1.27,17.31 2.72,25.77 1.24,7.23 2.85,14.37 4.46,21.5 2.78,12.29 5.55,24.54 6.38,37.15 0.76,11.53 -0.48,23.28 -3.52,34.23 -3,10.8 -7.76,20.83 -14.07,29.11 -5.18,6.75 -11.32,12.27 -17.97,16.45 -6.92,4.36 -14.37,7.26 -21.81,8.59 -1.47,0.26 -2.95,0.47 -4.43,0.62 -1.48,0.15 -2.96,0.24 -4.45,0.26 -10.07,0.13 -19.7,-2.22 -29.94,-4.72 -12.25,-3 -25.37,-6.21 -41.16,-5.61 -5.69,0.22 -11.01,0.79 -16,1.63 -4.99,0.85 -9.64,1.98 -14.02,3.31 -4.57,1.4 -8.72,3.16 -12.58,5.22 -3.49,1.85 -6.74,3.93 -9.85,6.2l-0.21 0z"/>
    <path class="fil1" d="M101.88 206.05c1.74,-0.8 3.54,-1.55 5.4,-2.24 2.35,-0.87 4.8,-1.66 7.38,-2.33 4.4,-1.16 9.06,-2.17 14.01,-2.95 4.96,-0.79 10.22,-1.36 15.82,-1.63 14.79,-0.76 27.25,1.35 38.78,3.3 10.76,1.83 20.7,3.51 30.93,2.59 1.38,-0.12 2.77,-0.31 4.15,-0.55 1.45,-0.25 2.88,-0.56 4.3,-0.91 7.09,-1.8 14.13,-5.06 20.64,-9.69 6.23,-4.43 11.99,-10.12 16.84,-16.95 5.9,-8.38 10.34,-18.37 13.17,-29.09 2.87,-10.88 4.07,-22.5 3.45,-33.92 -0.68,-12.21 -2.99,-24.13 -5.31,-36.09 -1.45,-7.48 -2.9,-14.96 -3.96,-22.55 -1.21,-8.65 -1.88,-17.46 -1.99,-26.32 -0.1,-8.85 0.34,-17.73 1.34,-26.52l0.12 0.01c-1,8.79 -1.44,17.67 -1.33,26.51 0.1,8.85 0.77,17.66 1.98,26.31 1.05,7.57 2.51,15.06 3.96,22.54 2.32,11.96 4.63,23.89 5.31,36.11 0.62,11.43 -0.58,23.06 -3.45,33.95 -2.83,10.73 -7.28,20.74 -13.19,29.13 -4.86,6.84 -10.63,12.54 -16.87,16.98 -6.53,4.64 -13.58,7.91 -20.68,9.71 -1.42,0.35 -2.86,0.66 -4.31,0.91 -1.38,0.24 -2.78,0.43 -4.16,0.55 -10.25,0.92 -20.19,-0.76 -30.96,-2.59 -11.52,-1.95 -23.98,-4.06 -38.75,-3.3 -5.6,0.27 -10.86,0.84 -15.81,1.63 -4.95,0.78 -9.6,1.79 -14,2.94 -2.57,0.68 -5.02,1.46 -7.37,2.33 -1.77,0.66 -3.49,1.37 -5.15,2.13l-0.29 0z"/>
    <path class="fil1" d="M127.87 206.05c2,-0.31 4.05,-0.59 6.14,-0.84 3.45,-0.42 7.02,-0.75 10.74,-0.99 13.41,-0.87 24.93,0.21 35.52,1.2 2.39,0.22 4.73,0.44 7.03,0.63l-1.42 0c-1.85,-0.16 -3.72,-0.33 -5.62,-0.51 -10.58,-0.99 -22.1,-2.07 -35.5,-1.2 -3.71,0.24 -7.29,0.57 -10.74,0.99 -1.81,0.22 -3.59,0.46 -5.34,0.72l-0.81 0zm82.58 0c0.88,-0.11 1.76,-0.25 2.65,-0.4 1.35,-0.24 2.7,-0.54 4.05,-0.89 1.35,-0.35 2.7,-0.76 4.03,-1.2 6.73,-2.26 13.37,-5.9 19.49,-10.8 5.85,-4.69 11.23,-10.54 15.76,-17.45 5.49,-8.44 9.61,-18.38 12.27,-28.98 2.72,-10.85 3.89,-22.39 3.43,-33.73 -0.5,-11.79 -2.38,-23.39 -4.26,-35.02 -1.27,-7.85 -2.54,-15.71 -3.4,-23.66 -0.96,-8.83 -1.36,-17.82 -1.21,-26.83 0.15,-8.99 0.85,-17.99 2.11,-26.89l0.12 0.01c-1.26,8.9 -1.96,17.9 -2.11,26.88 -0.15,9.01 0.26,17.99 1.21,26.82 0.86,7.95 2.13,15.81 3.4,23.65 1.88,11.64 3.76,23.24 4.26,35.03 0.46,11.35 -0.71,22.91 -3.43,33.77 -2.66,10.61 -6.79,20.56 -12.29,29.02 -4.54,6.92 -9.92,12.77 -15.78,17.47 -6.13,4.92 -12.78,8.56 -19.53,10.83l0 0c-1.34,0.44 -2.68,0.84 -4.04,1.2 -1.35,0.35 -2.71,0.65 -4.06,0.89 -0.6,0.1 -1.19,0.2 -1.78,0.28l-0.89 0z"/>
    <path class="fil1" d="M219.09 206.05c0.17,-0.07 0.34,-0.14 0.51,-0.21 6.39,-2.74 12.63,-6.74 18.35,-11.92 5.47,-4.95 10.46,-10.96 14.66,-17.95 5.1,-8.54 8.91,-18.45 11.4,-28.96 2.55,-10.81 3.69,-22.25 3.36,-33.5 -0.34,-11.27 -1.8,-22.43 -3.27,-33.64 -1.08,-8.3 -2.17,-16.62 -2.81,-25.04 -0.69,-9.02 -0.83,-18.21 -0.41,-27.4 0.42,-9.12 1.38,-18.24 2.9,-27.24l0.12 0.02c-1.52,8.99 -2.48,18.11 -2.9,27.22 -0.42,9.19 -0.28,18.37 0.41,27.4 0.64,8.41 1.73,16.73 2.81,25.03 1.47,11.2 2.93,22.37 3.27,33.65 0.33,11.26 -0.81,22.71 -3.37,33.53 -2.48,10.52 -6.3,20.44 -11.4,28.99 -4.21,7 -9.21,13.02 -14.68,17.98 -5.74,5.18 -11.99,9.2 -18.39,11.94 -0.08,0.03 -0.16,0.07 -0.24,0.1l-0.32 0z"/>
    <path class="fil1" d="M221.61 206.05c5.16,-3.18 10.13,-7.24 14.69,-12.1 4.65,-4.95 8.88,-10.75 12.47,-17.32 4.69,-8.6 8.2,-18.45 10.51,-28.85 2.4,-10.79 3.51,-22.17 3.33,-33.35 -0.18,-10.71 -1.25,-21.36 -2.31,-32.06 -0.88,-8.82 -1.77,-17.67 -2.16,-26.62 -0.41,-9.22 -0.27,-18.59 0.43,-27.95 0.69,-9.26 1.92,-18.51 3.71,-27.61l0.12 0.03c-1.79,9.08 -3.02,18.33 -3.71,27.59 -0.7,9.35 -0.84,18.72 -0.43,27.93 0.4,8.95 1.28,17.8 2.16,26.62 1.06,10.7 2.13,21.36 2.31,32.07 0.18,11.19 -0.93,22.58 -3.33,33.37 -2.32,10.41 -5.83,20.27 -10.53,28.89 -3.58,6.58 -7.82,12.38 -12.48,17.34 -4.52,4.82 -9.44,8.85 -14.55,12.02l-0.23 0z"/>
    <path class="fil1" d="M222.36 206.05c4.33,-3.5 8.44,-7.65 12.22,-12.4 3.86,-4.86 7.36,-10.35 10.38,-16.43 4.28,-8.68 7.48,-18.49 9.62,-28.78 2.24,-10.75 3.32,-22.04 3.26,-33.13 -0.03,-10.04 -0.74,-20.08 -1.44,-30.16 -0.66,-9.45 -1.33,-18.94 -1.45,-28.52 -0.12,-9.42 0.31,-18.97 1.29,-28.5 0.98,-9.39 2.49,-18.76 4.56,-27.94l0.11 0.03c-2.06,9.17 -3.57,18.54 -4.55,27.93 -0.98,9.52 -1.41,19.07 -1.29,28.47 0.13,9.58 0.79,19.08 1.45,28.52 0.71,10.09 1.41,20.12 1.45,30.17 0.05,11.1 -1.03,22.39 -3.27,33.16 -2.15,10.3 -5.35,20.11 -9.64,28.81 -3.01,6.08 -6.52,11.58 -10.39,16.45 -3.74,4.71 -7.82,8.84 -12.11,12.32l-0.2 0z"/>
    <path class="fil1" d="M222.35 206.05c3.63,-3.67 7.05,-7.84 10.18,-12.46 3.21,-4.74 6.13,-9.96 8.65,-15.63 3.88,-8.73 6.77,-18.44 8.74,-28.59 2.09,-10.76 3.14,-22.01 3.24,-33.08 0.06,-9.1 -0.3,-18.24 -0.66,-27.43 -0.41,-10.33 -0.82,-20.74 -0.63,-31.25 0.18,-9.64 0.91,-19.41 2.2,-29.13 1.26,-9.53 3.06,-19.02 5.41,-28.29l0.12 0.03c-2.35,9.27 -4.15,18.75 -5.41,28.28 -1.29,9.71 -2.02,19.48 -2.2,29.11 -0.19,10.51 0.22,20.91 0.63,31.25 0.36,9.19 0.73,18.33 0.66,27.44 -0.1,11.07 -1.15,22.32 -3.24,33.09 -1.98,10.16 -4.87,19.88 -8.75,28.62 -2.53,5.67 -5.44,10.9 -8.66,15.65 -3.11,4.59 -6.51,8.73 -10.11,12.39l-0.17 0z"/>
    <path class="fil1" d="M221.68 206.05c3.05,-3.77 5.9,-7.92 8.51,-12.42 2.69,-4.64 5.13,-9.66 7.26,-15.01 3.45,-8.77 6.04,-18.41 7.83,-28.42 1.94,-10.76 2.96,-21.97 3.19,-32.99 0.16,-8.02 0.07,-16.1 -0.02,-24.25 -0.13,-11.37 -0.27,-22.86 0.31,-34.47 0.49,-9.84 1.53,-19.81 3.13,-29.7 1.56,-9.66 3.66,-19.25 6.3,-28.6l0.11 0.03c-2.63,9.34 -4.73,18.93 -6.29,28.59 -1.6,9.89 -2.64,19.85 -3.13,29.69 -0.58,11.61 -0.44,23.09 -0.31,34.46 0.09,8.15 0.19,16.23 0.02,24.25 -0.23,11.03 -1.25,22.24 -3.19,33.01 -1.8,10.02 -4.38,19.67 -7.84,28.44 -2.13,5.36 -4.57,10.38 -7.27,15.03 -2.59,4.47 -5.42,8.6 -8.45,12.36l-0.16 0z"/>
    <path class="fil1" d="M220.46 206.05c2.55,-3.83 4.92,-7.94 7.09,-12.32 2.26,-4.56 4.3,-9.41 6.08,-14.52 3.04,-8.73 5.3,-18.19 6.91,-27.97 1.79,-10.85 2.78,-22.09 3.16,-33.15 0.23,-6.56 0.33,-13.18 0.43,-19.86 0.18,-12.79 0.37,-25.77 1.48,-38.86 0.79,-10.04 2.15,-20.18 4.06,-30.22 1.87,-9.81 4.27,-19.53 7.21,-28.96l0.12 0.03c-2.94,9.44 -5.34,19.15 -7.21,28.95 -1.91,10.04 -3.26,20.18 -4.06,30.21 -1.11,13.09 -1.3,26.07 -1.48,38.85 -0.1,6.68 -0.2,13.3 -0.42,19.86 -0.39,11.07 -1.38,22.31 -3.17,33.17 -1.61,9.78 -3.87,19.25 -6.91,27.99 -1.79,5.12 -3.83,9.97 -6.09,14.54 -2.16,4.35 -4.52,8.45 -7.06,12.26l-0.14 0z"/>
    <path class="fil1" d="M219.02 206.05c2.11,-3.82 4.05,-7.86 5.82,-12.08 1.86,-4.47 3.54,-9.15 5.02,-14.03 2.8,-9.32 4.83,-19.33 6.3,-29.62 1.46,-10.29 2.34,-20.84 2.86,-31.24 0.22,-4.73 0.41,-9.49 0.6,-14.29 0.58,-14.55 1.17,-29.42 2.88,-44.44 1.15,-10.27 2.84,-20.64 5.1,-30.88 2.19,-9.95 4.9,-19.77 8.14,-29.29l0.12 0.04c-3.24,9.51 -5.95,19.33 -8.14,29.27 -2.26,10.24 -3.95,20.61 -5.1,30.88 -1.71,15.01 -2.3,29.88 -2.88,44.43 -0.19,4.8 -0.38,9.56 -0.6,14.28 -0.52,10.41 -1.4,20.97 -2.87,31.26 -1.46,10.29 -3.49,20.31 -6.29,29.64 -1.48,4.88 -3.16,9.57 -5.03,14.03 -1.76,4.21 -3.7,8.23 -5.79,12.04l-0.14 0z"/>
    <path class="fil1" d="M217.21 206.05c1.72,-3.81 3.3,-7.77 4.74,-11.88 1.54,-4.4 2.92,-8.96 4.14,-13.68 2.41,-9.45 4.14,-19.45 5.43,-29.67 1.29,-10.21 2.13,-20.64 2.77,-30.94 0.13,-2.05 0.25,-4.11 0.38,-6.18 1.03,-17.04 2.1,-34.71 4.71,-52.54 1.51,-10.48 3.55,-21.04 6.15,-31.45 2.5,-10.05 5.52,-19.96 9.06,-29.53l0.11 0.05c-3.53,9.55 -6.55,19.46 -9.06,29.5 -2.59,10.41 -4.64,20.97 -6.14,31.45 -2.61,17.83 -3.68,35.49 -4.71,52.53 -0.13,2.07 -0.25,4.13 -0.38,6.18 -0.64,10.29 -1.48,20.72 -2.77,30.95 -1.29,10.22 -3.02,20.23 -5.44,29.68 -1.22,4.72 -2.6,9.29 -4.14,13.69 -1.43,4.1 -3,8.05 -4.72,11.84l-0.13 0z"/>
    <path class="fil1" d="M215.32 206.05c1.38,-3.79 2.65,-7.7 3.79,-11.71 1.21,-4.25 2.28,-8.61 3.24,-13.07 2.01,-9.56 3.45,-19.56 4.58,-29.71 1.12,-10.15 1.94,-20.45 2.71,-30.62 0.71,-9.41 1.5,-19.09 2.55,-28.92 1.06,-9.83 2.38,-19.8 4.15,-29.8 1.88,-10.74 4.3,-21.53 7.26,-32.14 2.85,-10.21 6.21,-20.25 10.08,-29.9l0.11 0.05c-3.86,9.64 -7.22,19.67 -10.07,29.88 -2.97,10.6 -5.38,21.4 -7.26,32.13 -1.77,10 -3.09,19.97 -4.15,29.79 -1.05,9.83 -1.84,19.51 -2.55,28.92 -0.77,10.17 -1.58,20.47 -2.71,30.62 -1.13,10.16 -2.57,20.16 -4.58,29.72 -0.96,4.47 -2.04,8.84 -3.25,13.08 -1.13,4 -2.39,7.9 -3.77,11.68l-0.13 0z"/>
    <path class="fil1" d="M213.1 206.05c1.09,-3.76 2.07,-7.6 2.94,-11.5 0.93,-4.13 1.74,-8.34 2.46,-12.62 2.58,-15.27 3.92,-31.34 5.25,-47.32 0.36,-4.25 0.71,-8.48 1.09,-12.75 0.86,-9.36 1.89,-19.03 3.22,-28.87 1.33,-9.85 2.97,-19.86 5.06,-29.89 2.26,-10.96 5.05,-21.95 8.39,-32.73 3.2,-10.34 6.89,-20.48 11.07,-30.19l0.11 0.05c-4.18,9.71 -7.87,19.84 -11.07,30.18 -3.33,10.77 -6.13,21.76 -8.38,32.71 -2.09,10.04 -3.73,20.04 -5.06,29.88 -1.33,9.84 -2.36,19.51 -3.22,28.87 -0.37,4.19 -0.73,8.47 -1.09,12.75 -1.33,15.98 -2.67,32.05 -5.25,47.33 -0.72,4.28 -1.53,8.49 -2.46,12.63 -0.87,3.89 -1.85,7.72 -2.93,11.47l-0.13 0z"/>
    <path class="fil1" d="M210.76 206.05c0.83,-3.71 1.55,-7.46 2.19,-11.26 0.68,-4.02 1.27,-8.09 1.78,-12.2 1.39,-11.11 2.28,-22.48 3.17,-33.87 0.67,-8.67 1.35,-17.35 2.25,-25.95 1.04,-9.77 2.39,-19.93 4.14,-30.3 1.57,-9.37 3.47,-18.91 5.75,-28.46 2.66,-11.2 5.86,-22.43 9.58,-33.39 3.55,-10.46 7.58,-20.69 12.08,-30.44l0.11 0.05c-4.5,9.75 -8.53,19.97 -12.08,30.42 -3.72,10.97 -6.91,22.19 -9.57,33.39 -2.28,9.55 -4.18,19.08 -5.75,28.45 -1.75,10.36 -3.1,20.53 -4.14,30.3 -0.9,8.59 -1.58,17.27 -2.25,25.94 -0.89,11.39 -1.78,22.76 -3.17,33.87 -0.51,4.11 -1.1,8.18 -1.78,12.21 -0.64,3.79 -1.36,7.54 -2.19,11.24l-0.12 0z"/>
    <path class="fil1" d="M208.26 206.05c2.42,-15.11 3.36,-30.6 4.29,-46.1 0.73,-12.14 1.47,-24.28 2.91,-36.26 2.47,-20.5 6.89,-42.95 13.26,-65.18 5.77,-20.16 13.15,-40.14 22.12,-58.33l0.1 0.05c-8.96,18.18 -16.33,38.16 -22.11,58.31 -6.36,22.23 -10.78,44.67 -13.25,65.16 -1.44,11.98 -2.17,24.12 -2.91,36.25 -0.93,15.5 -1.87,30.99 -4.29,46.1l-0.12 0z"/>
   </g>
  </g>
 </g>
</svg>
