<?xml version="1.0" encoding="UTF-8"?>
<!DOCTYPE svg PUBLIC "-//W3C//DTD SVG 1.1//EN" "http://www.w3.org/Graphics/SVG/1.1/DTD/svg11.dtd">
<!-- Creator: CorelDRAW -->
<svg xmlns="http://www.w3.org/2000/svg" xml:space="preserve" width="11220px" height="5315px" version="1.1" style="shape-rendering:geometricPrecision; text-rendering:geometricPrecision; image-rendering:optimizeQuality; fill-rule:evenodd; clip-rule:evenodd"
viewBox="0 0 1579.18 748.03"
 xmlns:xlink="http://www.w3.org/1999/xlink"
 xmlns:xodm="http://www.corel.com/coreldraw/odm/2003">
 <defs>
  <style type="text/css">
   <![CDATA[
    .fil0 {fill:#F7F7F7}
    .fil1 {fill:#EBEBEC;fill-rule:nonzero}
   ]]>
  </style>
 </defs>
 <g id="Слой_x0020_1">
  <metadata id="CorelCorpID_0Corel-Layer"/>
  <g id="_2598003006336">
   <rect class="fil0" width="1579.18" height="748.03"/>
   <g>
    <path class="fil1" d="M22.43 748.03c21.35,-27.77 40.56,-57.31 57.31,-88.36 16.87,-31.27 31.23,-64.08 42.76,-98.19 14.39,-42.65 24.66,-86.73 34.94,-130.82 9.83,-42.22 19.67,-84.44 33.14,-125.43 14.86,-45.21 35.29,-89.77 62.86,-127.48 23.55,-32.22 52.31,-59.44 87.25,-77.83 49.2,-25.86 103.99,-31.09 159.42,-23.15 67.51,9.67 135.96,38.87 196.38,74.08 29.86,17.41 59.21,36.34 88.57,55.28 78.75,50.8 157.55,101.63 246.35,123.03 75.92,18.27 153.22,12.97 226.58,-9.05 81.41,-24.43 157.97,-69.47 222.43,-125.75 17.51,-15.3 34.28,-31.36 50.42,-48.05 16.14,-16.7 31.64,-34.03 46.61,-51.89l0.34 0.28c-14.98,17.87 -30.49,35.21 -46.64,51.91 -16.14,16.7 -32.92,32.77 -50.44,48.08 -64.51,56.33 -141.13,101.39 -222.59,125.84 -73.43,22.04 -150.81,27.34 -226.81,9.05 -88.88,-21.42 -167.71,-72.27 -246.49,-123.09 -29.35,-18.93 -58.7,-37.86 -88.55,-55.26 -60.38,-35.19 -128.77,-64.36 -196.22,-74.02 -55.34,-7.93 -110.05,-2.72 -159.16,23.1 -34.88,18.35 -63.58,45.53 -87.09,77.7 -27.55,37.67 -47.96,82.19 -62.8,127.36 -13.46,40.97 -23.3,83.18 -33.14,125.39 -10.27,44.1 -20.54,88.19 -34.95,130.86 -11.53,34.13 -25.91,66.97 -42.78,98.26 -16.71,30.97 -35.87,60.43 -57.14,88.15l-0.56 0z"/>
    <path class="fil1" d="M29.81 748.03c0.48,-0.61 0.98,-1.24 1.48,-1.88 1.14,-1.45 2.26,-2.88 3.34,-4.28 19.54,-25.07 37.07,-51.75 52.42,-79.83 15.26,-27.9 28.37,-57.19 39.17,-87.66 4.85,-13.7 9.27,-27.56 13.39,-41.53 4.13,-13.99 7.95,-28.08 11.6,-42.23 4.05,-15.65 7.91,-31.38 11.76,-47.1 10.31,-42.1 20.62,-84.15 34.66,-124.73 11.68,-33.63 26.53,-66.69 45.28,-96.55 16.49,-26.25 36.01,-50.02 59.04,-69.5 7.66,-6.52 15.64,-12.58 23.99,-18.1 8.35,-5.53 17.07,-10.52 26.19,-14.91 38.27,-18.37 79.53,-24.39 121.8,-21.92 42.27,2.48 85.54,13.46 127.84,29.09 17.72,6.57 35.29,13.93 52.5,21.84 18.29,8.41 36.18,17.45 53.39,26.84 25.27,13.77 50.17,28.25 74.91,42.65 11.84,6.88 23.64,13.75 35.46,20.52 35.77,20.61 71.3,40.39 107.45,56.74 36.14,16.35 72.89,29.28 111.1,36.19 24.85,4.45 49.54,6.11 74.08,5.3 24.53,-0.81 48.92,-4.1 73.17,-9.55 47.7,-10.67 94.99,-29.95 140.25,-55.51 48.34,-27.3 94.38,-61.77 136.12,-100.56 11.1,-10.3 21.94,-20.87 32.56,-31.69 10.62,-10.82 21.03,-21.89 31.26,-33.19 9.19,-10.14 18.22,-20.44 27.13,-30.89 8.9,-10.44 17.66,-21.02 26.3,-31.71l0.34 0.28c-8.64,10.69 -17.41,21.27 -26.31,31.72 -8.89,10.43 -17.93,20.74 -27.13,30.89 -10.25,11.31 -20.66,22.39 -31.28,33.21 -10.62,10.82 -21.46,21.39 -32.57,31.7 -41.77,38.82 -87.83,73.3 -136.21,100.62 -45.3,25.58 -92.62,44.88 -140.36,55.55 -24.28,5.46 -48.69,8.75 -73.26,9.57 -24.57,0.81 -49.28,-0.85 -74.17,-5.31 -38.25,-6.92 -75.03,-19.85 -111.2,-36.22 -36.16,-16.36 -71.71,-36.14 -107.49,-56.76 -11.77,-6.74 -23.59,-13.62 -35.46,-20.52 -24.74,-14.4 -49.65,-28.89 -74.9,-42.64 -17.21,-9.39 -35.08,-18.42 -53.37,-26.83 -17.18,-7.9 -34.74,-15.25 -52.46,-21.83 -42.27,-15.62 -85.5,-26.58 -127.71,-29.06 -42.2,-2.47 -83.39,3.54 -121.59,21.87 -9.1,4.39 -17.8,9.37 -26.14,14.88 -8.33,5.52 -16.3,11.56 -23.94,18.07 -23,19.46 -42.49,43.19 -58.95,69.41 -18.74,29.82 -33.57,62.86 -45.25,96.46 -14.03,40.55 -24.33,82.59 -34.64,124.68 -3.86,15.72 -7.71,31.44 -11.76,47.11 -3.66,14.17 -7.48,28.27 -11.61,42.24 -4.12,13.99 -8.54,27.86 -13.4,41.56 -10.8,30.49 -23.92,59.8 -39.19,87.72 -15.37,28.1 -32.91,54.8 -52.46,79.89 -1.13,1.46 -2.24,2.89 -3.34,4.28 -0.42,0.53 -0.84,1.07 -1.27,1.61l-0.56 0z"/>
    <path class="fil1" d="M37.83 748.03c19.24,-23.43 36.57,-48.48 51.83,-74.96 15.71,-27.24 29.24,-56 40.42,-86.06 5.05,-13.56 9.63,-27.35 13.92,-41.3 4.29,-13.93 8.28,-28.03 12.14,-42.19 4.19,-15.5 8.18,-31 12.16,-46.51 10.85,-42.23 21.7,-84.43 36.38,-124.79 12.15,-33.35 27.54,-65.85 46.91,-94.92 17.1,-25.67 37.3,-48.68 61.14,-67.28 7.85,-6.12 15.97,-11.81 24.42,-16.97 8.45,-5.16 17.24,-9.78 26.43,-13.78 38.47,-16.7 79.53,-21.13 121.53,-17.45 41.99,3.67 84.93,15.45 127.17,31.15 18.36,6.78 36.58,14.26 54.43,22.17 17.86,7.92 35.35,16.26 52.24,24.78 19.59,9.86 38.98,19.98 58.17,30 17.78,9.28 35.39,18.47 52.87,27.31 35.63,18.22 70.63,35.34 105.73,48.9 35.09,13.55 70.28,23.56 106.3,27.54 23.32,2.59 46.11,2.4 68.67,-0.18 22.56,-2.57 44.88,-7.53 67.28,-14.44 43.76,-13.64 87.84,-35.64 130.66,-63.55 46.01,-30 90.58,-66.84 131.75,-107.54 10.91,-10.77 21.64,-21.8 32.23,-33.04 10.58,-11.23 21.01,-22.66 31.33,-34.24 11.42,-12.85 22.69,-25.9 33.83,-39.09 11.14,-13.19 22.13,-26.5 33,-39.9l0.34 0.28c-10.88,13.41 -21.88,26.73 -33.01,39.91 -11.12,13.17 -22.4,26.22 -33.83,39.09 -10.31,11.57 -20.75,23.01 -31.34,34.25 -10.59,11.24 -21.33,22.28 -32.24,33.05 -41.19,40.72 -85.78,77.58 -131.82,107.59 -42.85,27.94 -86.97,49.95 -130.77,63.61 -22.43,6.92 -44.78,11.88 -67.36,14.46 -22.59,2.58 -45.41,2.77 -68.77,0.18 -36.06,-3.99 -71.28,-14 -106.4,-27.57 -35.12,-13.57 -70.13,-30.7 -105.78,-48.92 -17.45,-8.82 -35.07,-18.02 -52.87,-27.31 -19.18,-10.01 -38.55,-20.13 -58.16,-30 -16.89,-8.51 -34.37,-16.85 -52.22,-24.76 -17.85,-7.91 -36.07,-15.39 -54.41,-22.17 -42.21,-15.69 -85.11,-27.45 -127.06,-31.12 -41.94,-3.67 -82.93,0.74 -121.32,17.41 -9.16,3.99 -17.93,8.61 -26.37,13.75 -8.44,5.15 -16.54,10.83 -24.38,16.95 -23.8,18.56 -43.97,41.54 -61.05,67.17 -19.35,29.05 -34.72,61.51 -46.86,94.83 -14.68,40.34 -25.52,82.53 -36.37,124.75 -3.99,15.55 -7.99,31.11 -12.16,46.51 -3.86,14.16 -7.85,28.25 -12.14,42.21 -4.29,13.95 -8.88,27.75 -13.93,41.32 -11.19,30.08 -24.73,58.86 -40.45,86.13 -15.22,26.4 -32.48,51.37 -51.64,74.74l-0.57 0z"/>
    <path class="fil1" d="M46.77 748.03c17.94,-21.44 34.13,-44.37 48.48,-68.65 14.9,-25.19 27.83,-51.83 38.69,-79.74 5.25,-13.49 10.03,-27.19 14.52,-41.06 4.48,-13.87 8.67,-27.93 12.73,-42.17 4.33,-15.29 8.47,-30.7 12.61,-46.1 11.38,-42.31 22.75,-84.62 38.06,-124.8 12.64,-33.11 28.54,-65.07 48.54,-93.4 17.68,-25.05 38.57,-47.27 63.24,-64.94 8.05,-5.72 16.3,-11.05 24.84,-15.82 8.53,-4.78 17.35,-9 26.54,-12.53 38.6,-15.04 79.46,-17.84 121.22,-12.95 41.74,4.89 84.37,17.46 126.55,33.16 18.42,6.85 36.7,14.2 54.66,21.81 17.96,7.62 35.58,15.5 52.67,23.41 11.77,5.46 23.58,11 35.3,16.49 25.9,12.15 51.36,24.1 76.4,35.1 35.49,15.69 70,30.15 104.06,40.95 34.06,10.8 67.69,17.95 101.44,19.01 21.86,0.66 42.79,-1.36 63.35,-5.66 20.56,-4.31 40.76,-10.89 61.16,-19.32 39.68,-16.41 80.36,-40.96 120.54,-71.08 43.84,-32.85 87.08,-72.32 127.8,-115.05 10.71,-11.3 21.31,-22.77 31.82,-34.38 10.52,-11.62 20.96,-23.39 31.33,-35.29 7.83,-9 15.61,-18.04 23.34,-27.09 7.77,-9.11 15.48,-18.22 23.14,-27.33l0.33 0.28c-7.7,9.17 -15.42,18.29 -23.14,27.33 -7.76,9.09 -15.54,18.13 -23.34,27.1 -10.37,11.9 -20.81,23.67 -31.33,35.29 -10.53,11.63 -21.14,23.1 -31.83,34.4 -40.73,42.74 -84,82.22 -127.85,115.09 -40.22,30.14 -80.93,54.71 -120.65,71.13 -20.41,8.45 -40.64,15.04 -61.23,19.35 -20.6,4.3 -41.56,6.33 -63.45,5.67 -33.8,-1.07 -67.47,-8.22 -101.56,-19.03 -34.08,-10.81 -68.6,-25.27 -104.11,-40.96 -25.01,-11 -50.49,-22.95 -76.41,-35.11 -11.64,-5.46 -23.36,-10.96 -35.3,-16.49 -17.09,-7.92 -34.71,-15.8 -52.65,-23.4 -17.95,-7.62 -36.23,-14.96 -54.65,-21.81 -42.14,-15.69 -84.74,-28.25 -126.44,-33.13 -41.69,-4.88 -82.48,-2.1 -121.01,12.92 -9.17,3.52 -17.97,7.73 -26.49,12.5 -8.52,4.77 -16.75,10.08 -24.79,15.8 -24.63,17.64 -45.49,39.82 -63.14,64.84 -19.98,28.29 -35.86,60.22 -48.49,93.3 -15.3,40.15 -26.67,82.45 -38.04,124.75 -4.14,15.4 -8.29,30.8 -12.62,46.11 -4.05,14.23 -8.24,28.29 -12.73,42.18 -4.49,13.88 -9.28,27.59 -14.54,41.09 -10.86,27.93 -23.8,54.59 -38.71,79.8 -14.3,24.19 -30.43,47.05 -48.29,68.43l-0.57 0z"/>
    <path class="fil1" d="M56.54 748.03c16.44,-19.47 31.3,-40.26 44.56,-62.27 13.92,-23.08 26.06,-47.5 36.43,-73.09 5.45,-13.37 10.43,-26.99 15.1,-40.83 4.67,-13.84 9.03,-27.9 13.21,-42.13 4.35,-14.76 8.53,-29.62 12.7,-44.48 12.03,-42.79 24.04,-85.54 40.24,-126.02 12.37,-30.93 27.67,-60.67 46.67,-87.1 18.99,-26.43 41.69,-49.56 68.84,-67.26 8.25,-5.39 16.63,-10.31 25.27,-14.69 8.63,-4.37 17.52,-8.2 26.77,-11.4 38.8,-13.38 79.43,-14.54 120.92,-8.44 41.47,6.11 83.81,19.48 126.04,35.17 18.44,6.92 36.82,14.14 54.89,21.46 18.08,7.33 35.87,14.78 53.1,22.16 19.29,8.25 38.34,16.33 57.06,24.04 18.73,7.71 37.15,15.06 55.17,21.84 35.36,13.29 69.36,25.06 102.38,33.05 33.01,7.99 65.04,12.21 96.47,10.42 20.39,-1.2 39.45,-5.08 58.04,-11.16 18.58,-6.08 36.69,-14.35 55.16,-24.32 35.56,-19.1 72.69,-46 110.08,-78.07 41.73,-35.79 83.78,-78 124.31,-122.95 10.58,-11.78 21.09,-23.71 31.55,-35.75 10.46,-12.04 20.9,-24.21 31.34,-36.45 4.32,-5.06 8.44,-9.89 12.42,-14.57 3.8,-4.46 8,-9.4 12.42,-14.59l0.33 0.28c-3.86,4.54 -7.93,9.34 -12.41,14.6 -4.3,5.04 -8.46,9.92 -12.43,14.56 -10.42,12.22 -20.86,24.39 -31.34,36.45 -10.49,12.07 -20.99,24.01 -31.55,35.76 -40.55,44.97 -82.61,87.19 -124.36,122.99 -37.41,32.09 -74.57,59.01 -110.15,78.13 -18.5,9.97 -36.63,18.26 -55.24,24.35 -18.62,6.09 -37.72,9.98 -58.15,11.18 -31.47,1.79 -63.54,-2.43 -96.59,-10.43 -33.04,-8 -67.06,-19.77 -102.44,-33.07 -18.02,-6.78 -36.44,-14.13 -55.17,-21.85 -18.74,-7.71 -37.79,-15.79 -57.07,-24.03 -17.21,-7.38 -35,-14.82 -53.09,-22.16 -18.1,-7.33 -36.48,-14.55 -54.88,-21.46 -42.21,-15.68 -84.52,-29.04 -125.96,-35.14 -41.42,-6.1 -81.98,-4.93 -120.71,8.42 -9.23,3.18 -18.09,7 -26.71,11.37 -8.62,4.37 -16.99,9.28 -25.23,14.67 -27.11,17.67 -49.76,40.75 -68.73,67.15 -18.97,26.39 -34.25,56.1 -46.62,87 -16.18,40.46 -28.19,83.2 -40.21,125.98 -4.18,14.85 -8.35,29.7 -12.7,44.48 -4.19,14.23 -8.55,28.3 -13.22,42.15 -4.68,13.85 -9.66,27.49 -15.12,40.85 -10.37,25.62 -22.53,50.05 -36.45,73.16 -13.21,21.91 -28,42.64 -44.37,62.04l-0.57 0z"/>
    <path class="fil1" d="M66.89 748.03c14.85,-17.61 28.35,-36.39 40.49,-56.22 12.85,-20.99 24.18,-43.16 34,-66.38 5.65,-13.29 10.84,-26.85 15.69,-40.63 4.86,-13.78 9.38,-27.77 13.69,-41.93 4.49,-14.62 8.8,-29.32 13.11,-44.02 12.56,-42.88 25.12,-85.74 41.96,-125.95 12.83,-30.73 28.64,-60 48.23,-85.77 19.6,-25.77 42.99,-48.03 71.01,-64.73 8.38,-4.99 16.9,-9.55 25.63,-13.56 8.74,-4.01 17.69,-7.47 26.94,-10.27 38.94,-11.64 79.36,-11.21 120.6,-3.91 41.22,7.3 83.26,21.47 125.42,37.3 32.16,12.03 64.3,24.55 95.05,36.54l13.73 5.35c19.47,7.57 38.68,14.82 57.55,21.55 18.85,6.74 37.33,12.95 55.34,18.47 35.23,10.83 68.8,19.94 100.82,25.16 32.01,5.21 62.47,6.54 91.5,1.83 19,-3.06 36.16,-8.8 52.74,-16.64 16.57,-7.84 32.56,-17.78 49.17,-29.21 33.76,-23.33 69.99,-55.17 107.21,-92.26 37.23,-37.1 75.46,-79.45 113.22,-123.79 19.63,-23.16 39.4,-46.8 59.29,-70.59l3.35 -4.01 3.15 -3.76 0.34 0.28 -3.15 3.76 -3.36 4.01c-19.87,23.78 -39.63,47.42 -59.28,70.59 -37.78,44.36 -76.01,86.72 -113.25,123.82 -37.24,37.11 -73.48,68.97 -107.27,92.31 -16.63,11.45 -32.64,21.39 -49.24,29.24 -16.6,7.86 -33.81,13.62 -52.85,16.68 -29.08,4.72 -59.59,3.39 -91.64,-1.83 -32.05,-5.22 -65.63,-14.33 -100.88,-25.17 -18.03,-5.53 -36.52,-11.74 -55.36,-18.47 -18.84,-6.73 -38.06,-13.98 -57.55,-21.57l-13.74 -5.35c-30.75,-11.98 -62.9,-24.51 -95.04,-36.53 -42.14,-15.82 -84.15,-29.98 -125.34,-37.28 -41.18,-7.29 -81.54,-7.72 -120.4,3.9 -9.24,2.79 -18.17,6.25 -26.88,10.25 -8.73,4 -17.23,8.55 -25.6,13.53 -27.97,16.68 -51.32,38.9 -70.88,64.63 -19.57,25.73 -35.35,54.97 -48.18,85.67 -16.83,40.19 -29.38,83.04 -41.94,125.9 -4.31,14.72 -8.63,29.44 -13.11,44.03 -4.32,14.17 -8.84,28.17 -13.7,41.95 -4.85,13.78 -10.04,27.35 -15.69,40.65 -9.84,23.24 -21.18,45.43 -34.04,66.44 -12.08,19.74 -25.51,38.44 -40.28,55.99l-0.58 0z"/>
    <path class="fil1" d="M77.69 748.03c13.18,-15.77 25.22,-32.52 36.14,-50.17 11.68,-18.85 22.09,-38.73 31.28,-59.53 5.78,-13.23 11.13,-26.72 16.18,-40.45 5.06,-13.73 9.81,-27.69 14.4,-41.85 4.58,-14.35 9.01,-28.83 13.43,-43.31 13.17,-43.06 26.34,-86.14 43.76,-126.26 13.3,-30.47 29.6,-59.31 49.79,-84.44 20.2,-25.14 44.29,-46.57 73.18,-62.21 8.58,-4.65 17.23,-8.85 26.06,-12.47 8.84,-3.63 17.86,-6.69 27.18,-9.09 39.06,-9.98 79.26,-7.92 120.23,0.6 40.95,8.51 82.69,23.48 124.85,39.3 18.53,6.98 37.11,13.92 55.47,20.68 18.34,6.75 36.42,13.3 53.97,19.48 19.68,6.92 39.06,13.33 58.02,19.1 18.96,5.76 37.51,10.88 55.52,15.2 35.1,8.44 68.26,14.83 99.3,17.22 31.03,2.39 59.93,0.8 86.5,-6.71 17.66,-4.98 32.97,-12.58 47.51,-22.18 14.55,-9.6 28.34,-21.2 42.96,-34.16 29.84,-26.38 62.92,-61.15 97.81,-100.82 34.89,-39.68 71.59,-84.26 108.69,-130.27 7.3,-9.17 14.7,-18.4 22.17,-27.67 7.35,-9.12 14.77,-18.26 22.23,-27.42l0.34 0.28c-7.45,9.13 -14.86,18.28 -22.23,27.42 -7.43,9.22 -14.83,18.45 -22.17,27.67 -37.11,46.01 -73.81,90.6 -108.7,130.28 -34.9,39.68 -67.99,74.46 -97.85,100.86 -14.64,12.97 -28.44,24.58 -43.01,34.2 -14.58,9.62 -29.93,17.24 -47.63,22.23 -26.63,7.52 -55.58,9.12 -86.65,6.73 -31.06,-2.4 -64.25,-8.78 -99.37,-17.23 -18.02,-4.32 -36.58,-9.44 -55.55,-15.21 -18.97,-5.77 -38.36,-12.19 -58.04,-19.1 -17.56,-6.19 -35.64,-12.74 -53.97,-19.49 -18.32,-6.74 -36.91,-13.69 -55.48,-20.68 -42.14,-15.82 -83.85,-30.77 -124.78,-39.28 -40.91,-8.51 -81.04,-10.57 -120.03,-0.6 -9.3,2.39 -18.3,5.44 -27.12,9.06 -8.82,3.62 -17.45,7.81 -26.02,12.46 -28.83,15.61 -52.88,37 -73.04,62.1 -20.17,25.1 -36.45,53.9 -49.74,84.34 -17.41,40.09 -30.58,83.16 -43.74,126.2 -4.42,14.49 -8.85,28.97 -13.44,43.33 -4.59,14.17 -9.34,28.13 -14.39,41.86 -5.06,13.73 -10.41,27.23 -16.2,40.47 -9.19,20.82 -19.61,40.72 -31.31,59.59 -10.87,17.56 -22.84,34.24 -35.93,49.94l-0.58 0z"/>
    <path class="fil1" d="M88.87 748.03c11.49,-14 22.08,-28.8 31.79,-44.33 10.44,-16.71 19.86,-34.27 28.31,-52.61 5.98,-13.09 11.53,-26.52 16.76,-40.21 5.24,-13.71 10.16,-27.67 14.88,-41.82 4.67,-14.12 9.17,-28.27 13.66,-42.42 13.76,-43.33 27.52,-86.66 45.66,-126.75 13.77,-30.27 30.57,-58.68 51.36,-83.15 20.79,-24.47 45.59,-45 75.34,-59.51 8.71,-4.26 17.49,-8.08 26.43,-11.35 8.94,-3.26 18.02,-5.95 27.34,-7.95 77.23,-16.36 157.26,13.74 239.99,44.86l4.15 1.56c19.24,7.24 38.62,14.3 57.75,20.98 17.75,6.19 35.3,12.07 52.35,17.45 20.18,6.36 40.11,12.04 59.55,16.88 18.74,4.67 37.03,8.57 54.65,11.57 34.96,5.98 67.73,9.6 97.77,9.17 30.02,-0.43 57.32,-4.91 81.36,-15.14 32.32,-13.74 53.04,-37.16 78.05,-65.42l1.14 -1.28c41.58,-47.23 93.2,-115.28 149.48,-189.48 14.13,-18.65 28.57,-37.67 43.05,-56.66 4.06,-5.35 8.11,-10.65 12.13,-15.9 4.05,-5.29 8.14,-10.59 12.26,-15.91l0.35 0.27c-4.1,5.29 -8.19,10.59 -12.26,15.91 -4.11,5.36 -8.15,10.66 -12.13,15.9 -14.69,19.25 -29.02,38.14 -43.06,56.65 -56.29,74.22 -107.92,142.29 -149.49,189.51l-1.14 1.28c-25.05,28.3 -45.8,51.76 -78.2,65.53 -24.1,10.25 -51.46,14.75 -81.54,15.18 -30.07,0.43 -62.86,-3.19 -97.84,-9.18 -17.63,-3 -35.93,-6.9 -54.68,-11.57 -19.46,-4.85 -39.4,-10.53 -59.58,-16.89 -17.02,-5.38 -34.58,-11.25 -52.37,-17.46 -19.14,-6.68 -38.52,-13.74 -57.75,-20.98l-4.15 -1.56c-82.67,-31.1 -162.64,-61.18 -239.75,-44.84 -9.3,1.99 -18.36,4.68 -27.28,7.94 -8.91,3.25 -17.69,7.07 -26.39,11.33 -29.69,14.48 -54.44,34.97 -75.2,59.4 -20.76,24.43 -37.54,52.81 -51.29,83.04 -18.14,40.07 -31.89,83.39 -45.64,126.7 -4.52,14.21 -9.03,28.42 -13.67,42.43 -4.72,14.18 -9.64,28.14 -14.88,41.83 -5.23,13.7 -10.79,27.13 -16.77,40.24 -8.46,18.36 -17.89,35.94 -28.34,52.66 -9.65,15.45 -20.17,30.17 -31.6,44.1l-0.56 0z"/>
    <path class="fil1" d="M100.5 748.03c9.87,-12.34 19.03,-25.32 27.52,-38.89 9.02,-14.44 17.28,-29.55 24.8,-45.29 6.19,-13.03 11.94,-26.39 17.37,-40.03 5.43,-13.64 10.55,-27.57 15.47,-41.73 4.81,-13.99 9.46,-28.11 14.11,-42.23 14.28,-43.33 28.58,-86.71 47.34,-126.54 14.23,-30.07 31.5,-58.05 52.88,-81.87 21.38,-23.82 46.87,-43.49 77.55,-56.94 8.92,-3.92 17.83,-7.38 26.87,-10.24 9.03,-2.87 18.18,-5.13 27.57,-6.66 72.37,-12.23 145.95,15.85 222.72,45.15 6.84,2.61 13.71,5.23 20.48,7.79 18.74,7.09 37.65,13.82 56.36,20.03 18.47,6.13 36.76,11.78 54.53,16.8 20.01,5.65 39.75,10.4 58.98,14.21 19.23,3.8 37.93,6.66 55.88,8.52 34.82,3.59 67.25,4.42 96.34,1.13 29.08,-3.29 54.81,-10.69 76.26,-23.57 26.91,-16.06 42.51,-39.37 60.76,-66.66 2.27,-3.38 4.57,-6.83 7,-10.41 10.94,-16.19 22.97,-34.21 35.98,-53.72 39.75,-59.58 88.7,-132.95 142.47,-207.46 1.06,-1.46 2.12,-2.93 3.18,-4.4 1.14,-1.59 2.2,-3.05 3.18,-4.41l0.36 0.26c-1.15,1.58 -2.21,3.05 -3.19,4.41 -1.06,1.46 -2.12,2.93 -3.17,4.4 -53.77,74.5 -102.72,147.87 -142.46,207.44 -13.06,19.58 -25.13,37.66 -35.99,53.73 -2.36,3.48 -4.7,6.97 -6.99,10.4 -18.29,27.34 -33.91,50.69 -60.9,66.79 -21.51,12.92 -47.3,20.34 -76.44,23.64 -29.12,3.29 -61.58,2.46 -96.44,-1.13 -17.96,-1.87 -36.68,-4.73 -55.91,-8.53 -19.24,-3.81 -39,-8.57 -59.02,-14.22 -17.77,-5.02 -36.06,-10.66 -54.55,-16.8 -18.73,-6.22 -37.64,-12.95 -56.37,-20.04 -6.94,-2.62 -13.72,-5.21 -20.49,-7.79 -76.71,-29.28 -150.23,-57.33 -222.49,-45.13 -9.36,1.53 -18.49,3.79 -27.51,6.64 -9.02,2.86 -17.92,6.32 -26.82,10.24 -30.63,13.41 -56.07,33.04 -77.41,56.82 -21.34,23.79 -38.59,51.73 -52.81,81.77 -18.74,39.8 -33.03,83.16 -47.31,126.49 -4.66,14.13 -9.31,28.25 -14.11,42.24 -4.93,14.16 -10.05,28.09 -15.48,41.75 -5.44,13.65 -11.2,27.02 -17.38,40.05 -7.54,15.75 -15.8,30.88 -24.83,45.33 -8.43,13.48 -17.53,26.38 -27.33,38.66l-0.56 0z"/>
    <path class="fil1" d="M112.46 748.03c8.12,-10.51 15.73,-21.48 22.86,-32.88 7.67,-12.26 14.77,-25.03 21.36,-38.27 6.38,-12.89 12.3,-26.19 17.9,-39.79 5.6,-13.61 10.88,-27.54 16,-41.7 5.2,-14.52 10.24,-29.25 15.28,-43.98 14.6,-42.69 29.2,-85.38 48.3,-124.26 14.7,-29.81 32.47,-57.36 54.44,-80.53 21.98,-23.18 48.17,-41.98 79.72,-54.29 9.05,-3.53 18.1,-6.59 27.23,-9.07 9.13,-2.48 18.35,-4.37 27.74,-5.57 67.95,-8.58 135.96,18.03 207.12,45.86 11.63,4.55 23.35,9.13 35.14,13.59 18.94,7.15 38.05,13.78 57,19.74 18.44,5.8 36.72,10.97 54.55,15.36 20.18,4.98 40.06,8.9 59.36,11.72 19.35,2.83 38.12,4.57 56.02,5.16 34.69,1.13 66.72,-0.93 94.83,-7.11 28.09,-6.17 52.26,-16.46 71.25,-31.8 22.53,-18.2 34.03,-41.81 47.17,-68.8 2.95,-6.07 5.99,-12.31 9.28,-18.76 19.03,-37.35 43.89,-83.11 73.29,-132.86 24.32,-41.16 51.75,-85.04 81.56,-129.17l0.37 0.24c-29.81,44.13 -57.24,88.01 -81.55,129.15 -29.4,49.74 -54.25,95.49 -73.27,132.84 -3.26,6.36 -6.32,12.64 -9.29,18.75 -13.16,27.03 -24.67,50.69 -47.28,68.95 -19.05,15.38 -43.28,25.7 -71.44,31.89 -28.14,6.19 -60.21,8.25 -94.93,7.12 -17.93,-0.6 -36.71,-2.33 -56.08,-5.16 -19.31,-2.83 -39.2,-6.75 -59.4,-11.73 -17.84,-4.4 -36.13,-9.57 -54.57,-15.37 -18.95,-5.96 -38.07,-12.6 -57.02,-19.75 -11.83,-4.47 -23.53,-9.05 -35.15,-13.59 -71.1,-27.82 -139.07,-54.4 -206.9,-45.84 -9.36,1.2 -18.56,3.09 -27.68,5.57 -9.12,2.47 -18.16,5.53 -27.19,9.05 -31.49,12.29 -57.63,31.05 -79.56,54.19 -21.94,23.13 -39.68,50.64 -54.37,80.41 -19.08,38.85 -33.68,81.53 -48.27,124.21 -5.03,14.69 -10.05,29.39 -15.28,43.99 -5.13,14.16 -10.41,28.09 -16.02,41.71 -5.6,13.62 -11.52,26.92 -17.9,39.83 -6.6,13.24 -13.71,26.02 -21.39,38.3 -7.07,11.32 -14.62,22.22 -22.67,32.65l-0.56 0z"/>
    <path class="fil1" d="M124.12 748.03c6.46,-8.68 12.59,-17.69 18.39,-26.99 6.34,-10.16 12.3,-20.67 17.9,-31.53 6.58,-12.82 12.69,-26.05 18.48,-39.61 5.78,-13.55 11.23,-27.45 16.48,-41.61 5.29,-14.29 10.39,-28.72 15.5,-43.14 15.2,-42.95 30.39,-85.88 50.2,-124.71 15.17,-29.61 33.41,-56.75 55.96,-79.29 22.57,-22.55 49.45,-40.49 81.93,-51.67 9.26,-3.19 18.44,-5.89 27.67,-7.98 9.24,-2.1 18.52,-3.6 27.97,-4.4 64.52,-5.29 127.96,20.46 194.54,47.5 15.41,6.26 30.99,12.58 46.79,18.61 18.69,7.11 37.64,13.53 56.48,19.13 18.81,5.6 37.51,10.38 55.72,14.24 20.46,4.33 40.59,7.46 60.09,9.33 19.37,1.87 38.12,2.49 55.95,1.83 35.42,-1.29 67.82,-6.55 95.42,-16.14 26.14,-9.09 47.98,-22.06 64,-39.24 19.35,-20.68 27.41,-45.24 36.43,-72.71 2.68,-8.16 5.44,-16.58 8.61,-25.22 13.14,-35.75 31.44,-77.82 54.08,-123.12 20.81,-41.64 45.28,-86.01 72.75,-130.68l0.38 0.23c-27.48,44.67 -51.94,89.03 -72.74,130.65 -22.62,45.27 -40.92,87.33 -54.06,123.07 -3.16,8.64 -5.93,17.05 -8.6,25.21 -9.04,27.51 -17.12,52.12 -36.53,72.87 -16.07,17.23 -37.96,30.24 -64.17,39.35 -27.65,9.61 -60.1,14.87 -95.56,16.17 -17.84,0.66 -36.61,0.04 -56.01,-1.83 -19.51,-1.88 -39.65,-5.01 -60.13,-9.34 -18.22,-3.86 -36.93,-8.65 -55.76,-14.25 -18.85,-5.6 -37.81,-12.02 -56.51,-19.14 -15.8,-6.03 -31.38,-12.35 -46.79,-18.61 -66.54,-27.02 -129.93,-52.76 -194.34,-47.47 -9.43,0.8 -18.7,2.29 -27.91,4.38 -9.22,2.1 -18.39,4.79 -27.62,7.98 -32.42,11.16 -59.25,29.06 -81.77,51.56 -22.52,22.5 -40.73,49.61 -55.88,79.18 -19.8,38.81 -34.98,81.72 -50.18,124.65 -5.11,14.44 -10.22,28.87 -15.5,43.15 -5.25,14.16 -10.7,28.06 -16.49,41.63 -5.79,13.57 -11.91,26.8 -18.49,39.64 -5.61,10.87 -11.57,21.4 -17.91,31.56 -5.76,9.22 -11.83,18.15 -18.22,26.76l-0.55 0z"/>
    <path class="fil1" d="M136.15 748.03c4.82,-6.77 9.46,-13.73 13.9,-20.88 4.97,-7.98 9.7,-16.19 14.22,-24.61 6.77,-12.69 13.09,-25.85 19.07,-39.38 5.99,-13.54 11.64,-27.43 17.09,-41.58 5.37,-14.04 10.57,-28.23 15.76,-42.42 15.79,-43.09 31.59,-86.2 52.2,-125.02 15.63,-29.35 34.33,-56.06 57.49,-77.97 23.16,-21.92 50.79,-39.02 84.26,-49.14 9.39,-2.86 18.7,-5.19 28.05,-6.9 9.35,-1.72 18.74,-2.81 28.26,-3.21 61.04,-2.45 120.34,22.64 182.47,48.93 18.99,8.03 38.24,16.17 57.91,23.69 18.61,7.12 37.51,13.37 56.34,18.66 19.1,5.37 38.11,9.76 56.65,13.11 20.61,3.65 40.87,5.95 60.44,6.86 19.57,0.91 38.45,0.45 56.26,-1.41 34.91,-3.71 66.52,-11.89 92.88,-24.25 25.51,-11.97 46.11,-27.88 60.02,-47.47 16.34,-23.09 21.44,-48.87 27.03,-77.16 2,-10.11 4.06,-20.53 6.71,-31.28 8.65,-35.02 22.07,-75.07 39.68,-117.78 16.91,-40.99 37.66,-84.42 61.74,-128.18l0.39 0.21c-24.08,43.75 -44.83,87.16 -61.72,128.14 -17.6,42.68 -31.02,82.72 -39.66,117.72 -2.65,10.73 -4.71,21.15 -6.71,31.25 -5.6,28.34 -10.7,54.16 -27.1,77.33 -13.95,19.66 -34.61,35.61 -60.2,47.61 -26.4,12.39 -58.06,20.58 -93.01,24.3 -17.84,1.86 -36.73,2.32 -56.33,1.41 -19.59,-0.92 -39.88,-3.21 -60.49,-6.87 -18.56,-3.35 -37.59,-7.75 -56.7,-13.12 -18.84,-5.29 -37.76,-11.54 -56.38,-18.67 -19.64,-7.5 -38.91,-15.66 -57.92,-23.7 -62.08,-26.27 -121.34,-51.34 -182.28,-48.9 -9.5,0.4 -18.87,1.5 -28.2,3.21 -9.33,1.71 -18.63,4.04 -28,6.89 -33.41,10.1 -60.98,27.17 -84.09,49.04 -23.12,21.87 -41.79,48.55 -57.4,77.85 -20.6,38.8 -36.39,81.89 -52.17,124.98 -5.21,14.19 -10.41,28.39 -15.77,42.42 -5.46,14.17 -11.12,28.07 -17.1,41.6 -5.98,13.53 -12.3,26.7 -19.09,39.41 -4.52,8.44 -9.26,16.65 -14.23,24.64 -4.39,7.06 -8.97,13.94 -13.73,20.64l-0.54 0z"/>
    <path class="fil1" d="M147.84 748.03c3.3,-4.84 6.51,-9.77 9.63,-14.8 3.62,-5.85 7.13,-11.83 10.52,-17.92 6.98,-12.64 13.49,-25.73 19.66,-39.2 6.16,-13.47 11.98,-27.34 17.56,-41.5 5.52,-13.96 10.86,-28.05 16.19,-42.14 16.32,-43.13 32.66,-86.29 53.91,-124.77 16.03,-29.15 35.19,-55.46 58.95,-76.72 23.76,-21.27 52.12,-37.48 86.53,-46.4 9.58,-2.46 19.03,-4.42 28.46,-5.77 9.44,-1.35 18.86,-2.08 28.38,-2.08 57.89,0.1 113.46,24.72 171.57,50.48 22.16,9.82 44.7,19.81 67.87,28.66 18.75,7.15 37.82,13.28 56.83,18.31 19.14,5.06 38.21,8.99 56.82,11.73 20.69,3.04 41.02,4.5 60.61,4.44 19.8,-0.07 38.84,-1.7 56.74,-4.84 34.48,-6.09 65.35,-17.17 90.53,-32.35 24.79,-14.94 44.07,-33.83 55.86,-55.83 13.77,-25.74 16.06,-53.06 18.54,-82.53 0.98,-11.74 2,-23.82 3.78,-36.29 4.91,-34.39 14.26,-72.88 27.62,-113.56 13.1,-39.92 30.06,-81.95 50.47,-124.3l0.39 0.19c-20.39,42.33 -37.35,84.35 -50.45,124.25 -13.34,40.65 -22.69,79.11 -27.6,113.48 -1.78,12.45 -2.79,24.53 -3.78,36.27 -2.47,29.51 -4.77,56.87 -18.58,82.69 -11.83,22.08 -31.17,41.03 -56.02,56.01 -25.23,15.2 -56.15,26.3 -90.68,32.4 -17.92,3.15 -36.99,4.78 -56.82,4.84 -19.61,0.07 -39.96,-1.39 -60.67,-4.44 -18.62,-2.73 -37.71,-6.68 -56.87,-11.74 -19.03,-5.03 -38.12,-11.16 -56.88,-18.32 -23.18,-8.86 -45.72,-18.85 -67.89,-28.67 -58.07,-25.74 -113.59,-50.35 -171.39,-50.44 -9.5,0 -18.9,0.73 -28.31,2.07 -9.42,1.35 -18.86,3.31 -28.42,5.77 -34.34,8.9 -62.63,25.07 -86.35,46.29 -23.71,21.23 -42.85,47.5 -58.86,76.61 -21.23,38.46 -37.56,81.6 -53.88,124.71 -5.35,14.13 -10.69,28.25 -16.19,42.15 -5.58,14.16 -11.4,28.03 -17.57,41.52 -6.17,13.49 -12.69,26.59 -19.67,39.23 -3.4,6.1 -6.91,12.08 -10.54,17.94 -3.07,4.95 -6.23,9.81 -9.47,14.57l-0.53 0z"/>
    <path class="fil1" d="M159.51 748.03c1.85,-2.85 3.68,-5.73 5.47,-8.64 2.29,-3.72 4.54,-7.5 6.74,-11.32 7.17,-12.56 13.85,-25.59 20.2,-39.02 6.35,-13.43 12.37,-27.25 18.21,-41.41 5.58,-13.69 10.98,-27.54 16.39,-41.38 16.93,-43.36 33.86,-86.73 55.84,-125.14 16.5,-28.87 36.13,-54.79 60.47,-75.44 24.34,-20.65 53.4,-36.02 88.74,-43.81 9.71,-2.13 19.3,-3.69 28.85,-4.63 9.55,-0.93 19.07,-1.23 28.65,-0.83 55.38,2.39 107.89,26.86 162.64,52.39 24.72,11.52 49.9,23.26 76,33.27 18.64,7.18 37.72,13.15 56.76,17.87 19.37,4.79 38.71,8.29 57.55,10.44 20.97,2.39 41.55,3.05 61.33,2.03 19.82,-1.03 38.85,-3.76 56.68,-8.14 34.11,-8.47 64.27,-22.44 88.33,-40.44 23.92,-17.9 41.81,-39.79 51.54,-64.22 11.24,-28.33 10.92,-57.4 10.57,-88.32 -0.15,-13.3 -0.3,-26.94 0.46,-41 1.76,-33.75 7.62,-70.84 17.27,-109.74 9.59,-38.65 22.91,-79.11 39.67,-119.89l0.41 0.16c-16.75,40.77 -30.07,81.2 -39.65,119.83 -9.65,38.88 -15.5,75.94 -17.27,109.66 -0.75,14.06 -0.6,27.69 -0.45,40.97 0.34,30.97 0.67,60.08 -10.6,88.49 -9.76,24.51 -27.7,46.46 -51.68,64.41 -24.11,18.04 -54.33,32.04 -88.5,40.51 -17.85,4.4 -36.91,7.13 -56.76,8.16 -19.81,1.02 -40.41,0.35 -61.4,-2.04 -18.85,-2.14 -38.21,-5.64 -57.6,-10.45 -19.06,-4.72 -38.15,-10.7 -56.82,-17.88 -26.12,-10.02 -51.3,-21.76 -76.02,-33.29 -54.72,-25.5 -107.19,-49.96 -162.48,-52.34 -9.56,-0.4 -19.06,-0.1 -28.59,0.83 -9.53,0.93 -19.09,2.49 -28.8,4.62 -35.27,7.77 -64.26,23.11 -88.55,43.72 -24.3,20.61 -43.9,46.49 -60.37,75.32 -21.97,38.39 -38.89,81.74 -55.81,125.08 -5.41,13.85 -10.82,27.71 -16.39,41.39 -5.85,14.17 -11.87,28 -18.22,41.43 -6.36,13.44 -13.04,26.48 -20.22,39.05 -2.21,3.83 -4.46,7.61 -6.75,11.33 -1.75,2.84 -3.52,5.64 -5.32,8.41l-0.52 0z"/>
    <path class="fil1" d="M171.14 748.03c0.48,-0.77 0.95,-1.54 1.43,-2.31 0.98,-1.6 1.94,-3.19 2.87,-4.75 7.38,-12.43 14.26,-25.39 20.79,-38.77 6.53,-13.38 12.71,-27.18 18.69,-41.26 5.74,-13.68 11.3,-27.49 16.86,-41.3 17.44,-43.32 34.9,-86.71 57.49,-124.82 16.97,-28.68 37.07,-54.2 61.99,-74.21 24.93,-20.02 54.68,-34.53 90.95,-41.19 9.92,-1.8 19.64,-2.99 29.27,-3.54 9.64,-0.55 19.19,-0.45 28.77,0.35 52.87,4.45 102.52,28.85 154.1,54.2 27.08,13.31 54.7,26.88 83.6,37.96 18.81,7.22 38.05,13.09 57.3,17.54 19.39,4.47 38.79,7.51 57.8,9.05 21.13,1.72 41.89,1.56 61.8,-0.45 19.92,-2.01 38.99,-5.86 56.73,-11.51 33.82,-10.74 63.26,-27.57 86.18,-48.41 22.99,-20.9 39.41,-45.85 47.06,-72.72 8.96,-31.32 5.97,-62.59 2.82,-95.45 -1.38,-14.4 -2.78,-29.1 -3.23,-44.25 -0.9,-33.01 1.98,-68.77 8.42,-106.06 6.45,-37.36 16.46,-76.25 29.82,-115.46l0.41 0.14c-13.34,39.19 -23.35,78.06 -29.8,115.39 -6.43,37.27 -9.31,73 -8.41,105.98 0.44,15.13 1.85,29.83 3.23,44.22 3.15,32.9 6.15,64.22 -2.84,95.61 -7.67,26.95 -24.13,51.97 -47.19,72.93 -22.96,20.88 -52.46,37.74 -86.34,48.5 -17.77,5.65 -36.87,9.51 -56.81,11.53 -19.95,2.01 -40.73,2.17 -61.89,0.45 -19.02,-1.54 -38.45,-4.58 -57.86,-9.07 -19.27,-4.45 -38.53,-10.32 -57.36,-17.54 -28.9,-11.09 -56.53,-24.67 -83.63,-37.99 -51.54,-25.33 -101.15,-49.71 -153.94,-54.16 -9.57,-0.79 -19.1,-0.89 -28.71,-0.35 -9.62,0.55 -19.32,1.75 -29.22,3.54 -36.19,6.64 -65.88,21.12 -90.76,41.1 -24.87,19.98 -44.94,45.46 -61.88,74.09 -22.57,38.09 -40.03,81.46 -57.46,124.77 -5.58,13.84 -11.15,27.69 -16.86,41.3 -5.99,14.1 -12.18,27.9 -18.71,41.28 -6.53,13.39 -13.42,26.36 -20.8,38.8 -0.97,1.62 -1.92,3.2 -2.88,4.76 -0.42,0.69 -0.85,1.39 -1.28,2.08l-0.52 0z"/>
    <path class="fil1" d="M182.73 748.03c6.63,-11.16 12.87,-22.71 18.83,-34.61 6.38,-12.75 12.44,-25.92 18.28,-39.45 5.8,-13.4 11.47,-27.06 17.15,-40.72 18.05,-43.45 36.15,-87.01 59.33,-124.87 17.43,-28.48 38.03,-53.63 63.55,-73.02 25.53,-19.38 55.98,-33 93.13,-38.39 10.04,-1.46 19.92,-2.29 29.69,-2.46 9.77,-0.17 19.43,0.33 29.01,1.53 50.88,6.35 98.17,30.94 147.07,56.37 28.98,15.07 58.52,30.43 89.68,42.45 18.79,7.25 38.03,12.96 57.31,17.13 19.6,4.22 39.23,6.85 58.45,7.85 21.41,1.07 42.45,0.1 62.57,-2.89 19.96,-2.96 39.02,-7.89 56.62,-14.78 33.61,-13.09 62.37,-32.78 84.17,-56.45 21.98,-23.88 36.89,-51.81 42.56,-81.15 6.59,-34.15 1.01,-67.49 -4.8,-102.15 -2.62,-15.64 -5.29,-31.55 -6.9,-47.92 -3.2,-32.28 -2.89,-66.81 0.75,-102.63 3.66,-36.1 10.71,-73.5 20.94,-111.19l0.43 0.12c-10.23,37.67 -17.27,75.04 -20.93,111.11 -3.64,35.79 -3.95,70.3 -0.76,102.54 1.61,16.36 4.28,32.27 6.9,47.9 5.82,34.7 11.41,68.08 4.8,102.3 -5.68,29.42 -20.63,57.43 -42.67,81.36 -21.84,23.73 -50.66,43.45 -84.33,56.57 -17.63,6.9 -36.72,11.84 -56.72,14.81 -20.14,2.98 -41.21,3.96 -62.65,2.89 -19.25,-1 -38.9,-3.63 -58.52,-7.87 -19.3,-4.16 -38.56,-9.88 -57.37,-17.14 -31.2,-12.04 -60.75,-27.4 -89.73,-42.47 -48.86,-25.41 -96.12,-49.98 -146.93,-56.32 -9.56,-1.2 -19.2,-1.7 -28.94,-1.53 -9.75,0.16 -19.61,1 -29.64,2.46 -37.06,5.38 -67.45,18.96 -92.92,38.3 -25.48,19.35 -46.04,44.46 -63.44,72.9 -23.17,37.83 -41.26,81.37 -59.3,124.81 -5.66,13.62 -11.32,27.24 -17.15,40.72 -5.85,13.53 -11.91,26.7 -18.3,39.47 -5.92,11.84 -12.13,23.32 -18.71,34.42l-0.51 0z"/>
    <path class="fil1" d="M194.5 748.03c5.28,-9.21 10.33,-18.68 15.2,-28.4 5.29,-10.56 10.38,-21.41 15.33,-32.5 5.86,-13.18 11.59,-26.6 17.33,-40.02 18.66,-43.67 37.36,-87.41 61.28,-125.17 17.9,-28.21 38.96,-53 65.06,-71.79 26.11,-18.78 57.27,-31.57 95.34,-35.76 10.18,-1.13 20.2,-1.59 30.06,-1.38 9.87,0.22 19.59,1.12 29.18,2.71 48.97,8.18 94.11,32.95 140.59,58.45 30.67,16.84 61.92,33.99 95.22,46.89 18.9,7.26 38.3,12.86 57.75,16.74 19.66,3.93 39.37,6.11 58.67,6.51 21.54,0.47 42.69,-1.33 62.87,-5.29 20.14,-3.95 39.32,-10.06 56.98,-18.23 33.45,-15.46 61.57,-38 82.28,-64.55 20.91,-26.8 34.27,-57.7 37.94,-89.53 4.18,-36.81 -4.02,-72.33 -12.46,-108.94 -3.91,-16.9 -7.86,-34.03 -10.67,-51.64 -5.15,-31.36 -7.07,-64.57 -5.91,-98.83 1.18,-34.72 5.52,-70.53 12.86,-106.6l0.43 0.09c-7.34,36.05 -11.67,71.83 -12.85,106.52 -1.16,34.24 0.76,67.42 5.9,98.75 2.81,17.59 6.76,34.72 10.66,51.62 8.46,36.64 16.67,72.2 12.48,109.08 -3.68,31.91 -17.08,62.88 -38.04,89.75 -20.75,26.6 -48.93,49.19 -82.44,64.68 -17.68,8.18 -36.9,14.3 -57.08,18.26 -20.21,3.97 -41.38,5.77 -62.96,5.3 -19.33,-0.4 -39.07,-2.58 -58.75,-6.52 -19.47,-3.88 -38.89,-9.49 -57.81,-16.77 -33.34,-12.91 -64.6,-30.06 -95.29,-46.9 -46.44,-25.49 -91.55,-50.24 -140.45,-58.4 -9.56,-1.6 -19.26,-2.49 -29.1,-2.71 -9.85,-0.22 -19.85,0.25 -30.01,1.38 -38,4.18 -69.08,16.93 -95.13,35.68 -26.05,18.75 -47.08,43.49 -64.95,71.67 -23.9,37.72 -42.59,81.45 -61.24,125.1 -5.73,13.39 -11.45,26.78 -17.34,40.03 -4.95,11.09 -10.04,21.95 -15.34,32.52 -4.84,9.65 -9.85,19.06 -15.08,28.2l-0.51 0z"/>
    <path class="fil1" d="M205.84 748.03c4.02,-7.26 7.93,-14.69 11.74,-22.26 4.23,-8.41 8.35,-16.99 12.37,-25.74 6.28,-13.66 12.4,-27.55 18.52,-41.45 18.98,-43.09 37.97,-86.22 62.22,-123.34 18.36,-28.02 39.89,-52.41 66.58,-70.56 26.69,-18.16 58.54,-30.07 97.55,-33.14 10.38,-0.79 20.53,-0.86 30.5,-0.24 9.97,0.61 19.75,1.91 29.4,3.84 47.24,9.79 90.49,34.87 134.77,60.55 32.18,18.66 64.91,37.64 100.11,51.3 18.84,7.31 38.28,12.76 57.8,16.35 19.84,3.65 39.78,5.38 59.27,5.18 21.81,-0.2 43.18,-2.81 63.53,-7.75 20.2,-4.9 39.38,-12.09 56.98,-21.48 33.33,-17.86 60.82,-43.28 80.44,-72.73 19.79,-29.72 31.55,-63.54 33.15,-97.84 1.81,-39.75 -9.03,-77.6 -20.1,-116.28 -5.14,-17.95 -10.34,-36.08 -14.34,-54.67 -6.67,-30.41 -10.44,-62.35 -11.4,-95.17 -0.97,-33.27 0.94,-67.45 5.63,-101.89l0.43 0.06c-4.68,34.41 -6.59,68.57 -5.62,101.81 0.96,32.8 4.72,64.7 11.39,95.09 4,18.58 9.19,36.7 14.33,54.65 11.09,38.72 21.93,76.6 20.12,116.42 -1.61,34.38 -13.39,68.28 -33.23,98.07 -19.65,29.51 -47.2,54.98 -80.59,72.86 -17.64,9.42 -36.86,16.62 -57.09,21.53 -20.38,4.94 -41.78,7.55 -63.62,7.75 -19.53,0.2 -39.49,-1.52 -59.36,-5.18 -19.55,-3.59 -39.01,-9.05 -57.88,-16.37 -35.23,-13.67 -67.97,-32.66 -100.17,-51.33 -44.25,-25.66 -87.47,-50.73 -134.64,-60.5 -9.63,-1.93 -19.39,-3.22 -29.34,-3.84 -9.94,-0.61 -20.08,-0.54 -30.44,0.25 -38.92,3.06 -70.7,14.95 -97.33,33.06 -26.64,18.12 -48.13,42.47 -66.47,70.44 -24.22,37.09 -43.21,80.2 -62.18,123.28 -6.11,13.87 -12.22,27.75 -18.52,41.45 -4.03,8.76 -8.15,17.35 -12.38,25.76 -3.78,7.5 -7.65,14.86 -11.63,22.06l-0.5 0z"/>
    <path class="fil1" d="M217.45 748.03c2.82,-5.23 5.58,-10.54 8.31,-15.93 3.13,-6.21 6.21,-12.51 9.25,-18.91 6.38,-13.5 12.59,-27.22 18.81,-40.96 19.56,-43.19 39.15,-86.45 64.18,-123.3 18.84,-27.75 40.83,-51.81 68.1,-69.36 27.28,-17.56 59.83,-28.61 99.76,-30.34 10.52,-0.46 20.8,-0.16 30.87,0.85 10.07,1.02 19.92,2.75 29.57,5.14 45.74,11.29 87.23,36.73 129.52,62.66 33.48,20.53 67.46,41.37 104.42,55.7 18.88,7.37 38.39,12.69 58.01,15.99 20.01,3.36 40.13,4.62 59.85,3.81 22.09,-0.87 43.73,-4.3 64.28,-10.22 20.24,-5.84 39.42,-14.1 56.9,-24.72 33.2,-20.17 60.08,-48.45 78.61,-80.81 18.68,-32.63 28.86,-69.42 28.47,-106.24 -0.46,-42.97 -14.14,-83.5 -28.04,-124.7 -6.3,-18.69 -12.65,-37.51 -17.84,-56.76 -7.96,-29.48 -13.29,-60.2 -16.07,-91.66 -2.81,-31.93 -3,-64.63 -0.62,-97.54l0.44 0.03c-2.38,32.89 -2.19,65.56 0.62,97.47 2.77,31.44 8.1,62.14 16.05,91.59 5.19,19.24 11.54,38.05 17.84,56.73 13.91,41.23 27.59,81.8 28.06,124.84 0.39,36.9 -9.81,73.76 -28.53,106.46 -18.56,32.42 -45.5,60.75 -78.77,80.97 -17.51,10.63 -36.72,18.91 -57,24.76 -20.58,5.93 -42.26,9.37 -64.38,10.24 -19.75,0.81 -39.91,-0.46 -59.94,-3.82 -19.65,-3.3 -39.19,-8.63 -58.1,-16.01 -37,-14.35 -70.99,-35.19 -104.49,-55.73 -42.26,-25.91 -83.73,-51.34 -129.4,-62.61 -9.63,-2.39 -19.46,-4.12 -29.5,-5.13 -10.05,-1.02 -20.31,-1.32 -30.81,-0.85 -39.85,1.73 -72.33,12.75 -99.54,30.27 -27.22,17.52 -49.17,41.53 -67.97,69.24 -25.01,36.81 -44.6,80.06 -64.15,123.23 -6.22,13.73 -12.43,27.45 -18.82,40.97 -3.03,6.39 -6.11,12.7 -9.25,18.92 -2.69,5.31 -5.42,10.56 -8.2,15.73l-0.5 0z"/>
    <path class="fil1" d="M228.76 748.03c1.65,-3.15 3.28,-6.32 4.89,-9.52 2.03,-4 4.03,-8.06 6.01,-12.16 6.44,-13.29 12.72,-26.8 19,-40.3 20.17,-43.39 40.36,-86.84 66.13,-123.56 19.29,-27.55 41.79,-51.24 69.66,-68.18 27.88,-16.94 61.12,-27.13 101.93,-27.66 10.71,-0.13 21.13,0.53 31.29,1.93 10.17,1.4 20.09,3.53 29.81,6.32 44.43,12.73 84.5,38.66 125.13,64.94 34.54,22.36 69.5,44.97 107.87,59.94 18.96,7.38 38.59,12.57 58.34,15.6 20.1,3.09 40.35,3.94 60.18,2.6 22.38,-1.54 44.32,-5.81 65.06,-12.76 20.26,-6.79 39.38,-16.14 56.64,-28.02l0 0c33.16,-22.5 59.42,-53.61 76.84,-88.87 17.56,-35.52 26.13,-75.26 23.73,-114.67 -2.84,-45.91 -19.28,-89 -35.88,-132.52 -7.47,-19.58 -14.97,-39.25 -21.29,-59.31 -8.99,-28.45 -15.62,-57.92 -19.94,-87.99 -4.38,-30.55 -6.38,-61.73 -6.05,-93.1l0.44 0c-0.33,31.35 1.66,62.51 6.05,93.03 4.31,30.05 10.93,59.5 19.92,87.93 6.31,20.04 13.81,39.71 21.28,59.29 16.61,43.54 33.06,86.66 35.91,132.65 2.4,39.48 -6.19,79.3 -23.77,114.89 -17.46,35.32 -43.77,66.48 -76.99,89.03 -17.3,11.9 -36.45,21.27 -56.75,28.08 -20.77,6.96 -42.75,11.23 -65.17,12.78 -19.87,1.34 -40.14,0.49 -60.27,-2.61 -19.79,-3.03 -39.44,-8.23 -58.44,-15.62 -38.41,-14.99 -73.38,-37.61 -107.95,-59.98 -40.6,-26.27 -80.64,-52.17 -125.01,-64.88 -9.7,-2.79 -19.6,-4.92 -29.74,-6.31 -10.15,-1.4 -20.55,-2.06 -31.24,-1.93 -40.72,0.53 -73.89,10.69 -101.7,27.6 -27.82,16.9 -50.27,40.55 -69.53,68.05 -25.75,36.69 -45.93,80.12 -66.09,123.49 -6.28,13.51 -12.56,27.02 -19,40.31 -1.98,4.09 -3.98,8.15 -6.01,12.17 -1.59,3.14 -3.18,6.24 -4.79,9.32l-0.5 0z"/>
    <path class="fil1" d="M239.95 748.03c0.53,-1.03 1.06,-2.06 1.58,-3.1 0.92,-1.81 1.85,-3.66 2.79,-5.55 6.6,-13.27 13.05,-26.78 19.49,-40.3 20.68,-43.33 41.39,-86.76 67.76,-123.16 19.77,-27.35 42.73,-50.68 71.18,-67 28.46,-16.33 62.4,-25.65 104.14,-24.98 10.85,0.2 21.4,1.23 31.66,3.01 10.27,1.78 20.25,4.31 29.97,7.51 43.22,14.08 81.94,40.53 121.02,67.23 35.5,24.26 71.3,48.72 111.04,64.29 18.95,7.43 38.61,12.49 58.45,15.23 20.24,2.8 40.67,3.19 60.74,1.24 22.51,-2.14 44.55,-7.23 65.35,-15.13 20.44,-7.77 39.69,-18.26 57.01,-31.37 33.09,-24.93 58.76,-58.93 75.07,-97.14 16.38,-38.35 23.32,-80.95 18.86,-122.87 -5.25,-49.08 -24.54,-94.72 -43.93,-140.63 -8.61,-20.37 -17.24,-40.8 -24.68,-61.59 -9.8,-27.36 -17.49,-55.56 -23.1,-84.26 -5.7,-29.16 -9.25,-58.85 -10.7,-88.71l0.44 -0.02c1.44,29.84 4.99,59.5 10.69,88.64 5.61,28.69 13.29,56.87 23.09,84.21 7.43,20.8 16.06,41.2 24.66,61.56 19.41,45.94 38.71,91.62 43.96,140.75 4.47,42 -2.48,84.68 -18.88,123.1 -16.35,38.28 -42.07,72.34 -75.22,97.31 -17.35,13.13 -36.63,23.65 -57.11,31.43 -20.84,7.92 -42.92,13.01 -65.47,15.16 -20.1,1.95 -40.57,1.56 -60.84,-1.25 -19.88,-2.74 -39.57,-7.81 -58.55,-15.25 -39.78,-15.59 -75.61,-40.07 -111.13,-64.34 -39.05,-26.68 -77.74,-53.11 -120.91,-67.18 -9.69,-3.19 -19.66,-5.71 -29.9,-7.49 -10.25,-1.77 -20.78,-2.8 -31.6,-3 -41.65,-0.67 -75.52,8.63 -103.91,24.92 -28.4,16.29 -51.31,39.57 -71.04,66.88 -26.35,36.37 -47.05,79.78 -67.72,123.09 -6.45,13.52 -12.89,27.02 -19.5,40.31 -0.91,1.83 -1.84,3.68 -2.79,5.55 -0.49,0.97 -0.98,1.94 -1.48,2.9l-0.49 0z"/>
    <path class="fil1" d="M251.59 748.03c5.98,-11.81 11.82,-23.73 17.66,-35.67 53.06,-108.37 106.44,-217.39 248.55,-211 69.67,3.13 124.55,42.64 179.76,82.39 36.31,26.14 72.77,52.39 113.66,68.42 40.78,16.01 85.01,20.33 127.31,13.81 42.3,-6.52 82.67,-23.9 115.69,-51.27 33.03,-27.38 58.15,-64.3 73.38,-105.5 15.22,-41.16 20.56,-86.58 14.04,-131 -7.6,-52.31 -29.83,-100.74 -52.1,-149.26 -9.66,-21.03 -19.32,-42.07 -27.8,-63.46 -10.41,-26.23 -18.94,-53.14 -25.62,-80.46 -6.78,-27.75 -11.65,-55.93 -14.63,-84.27l0.43 -0.04c2.99,28.31 7.85,56.47 14.63,84.2 6.67,27.31 15.19,54.19 25.6,80.4 8.47,21.38 18.13,42.42 27.78,63.45 22.29,48.55 44.54,97.01 52.15,149.37 6.52,44.5 1.17,90 -14.07,131.22 -15.25,41.27 -40.41,78.26 -73.51,105.69 -33.08,27.42 -73.52,44.83 -115.91,51.36 -42.36,6.54 -86.68,2.21 -127.53,-13.83 -40.94,-16.05 -77.42,-42.32 -113.76,-68.48 -55.15,-39.71 -109.98,-79.18 -179.52,-82.3 -141.83,-6.38 -195.14,102.52 -248.13,210.76 -5.83,11.9 -11.65,23.79 -17.56,35.47l-0.5 0z"/>
    <path class="fil1" d="M256.81 748.03c3.93,-7.18 7.82,-14.37 11.71,-21.56 4.43,-8.18 8.85,-16.36 13.3,-24.46 16.36,-29.93 33.26,-59.06 52.96,-84.66 19.72,-25.6 42.24,-47.66 69.87,-63.43 15.44,-8.79 32.45,-15.68 51.37,-20.17 18.91,-4.5 39.74,-6.59 62.84,-5.79 68.64,2.32 122.94,38.07 177.08,73.72 35.8,23.58 71.54,47.1 111.28,60.86 6.63,2.26 13.33,4.21 20.07,5.87 6.78,1.67 13.6,3.03 20.45,4.1 34.39,5.23 69.79,2.81 103.19,-6.8 32.8,-9.44 63.66,-25.83 89.72,-48.74 31.59,-27.74 55.56,-64.57 70.16,-105.44 14.64,-40.96 19.87,-85.98 13.95,-130 -6.9,-51.57 -27.4,-99.72 -47.93,-147.91 -9.15,-21.5 -18.31,-43 -26.26,-64.82 -9.79,-26.82 -17.67,-54.31 -23.67,-82.2 -6.09,-28.3 -10.24,-57.02 -12.49,-85.84l0.44 -0.03c2.24,28.8 6.39,57.5 12.48,85.78 5.99,27.87 13.87,55.35 23.65,82.15 7.95,21.8 17.1,43.3 26.26,64.78 20.53,48.22 41.05,96.4 47.95,148.03 5.93,44.09 0.69,89.18 -13.96,130.2 -14.63,40.95 -38.64,77.84 -70.29,105.63 -26.11,22.96 -57.03,39.37 -89.89,48.83 -33.46,9.63 -68.92,12.05 -103.37,6.81 -6.87,-1.07 -13.71,-2.43 -20.49,-4.1 -6.76,-1.66 -13.47,-3.62 -20.11,-5.88 -39.8,-13.78 -75.56,-37.32 -111.38,-60.91 -54.09,-35.62 -108.34,-71.34 -176.86,-73.66 -23.05,-0.79 -43.84,1.3 -62.72,5.78 -18.88,4.49 -35.85,11.36 -51.26,20.13 -27.56,15.74 -50.05,37.76 -69.73,63.32 -19.69,25.57 -36.57,54.69 -52.92,84.6 -4.48,8.14 -8.89,16.3 -13.3,24.46 -3.86,7.13 -7.72,14.27 -11.6,21.35l-0.5 0z"/>
    <path class="fil1" d="M263.39 748.03c3.24,-5.4 6.38,-10.64 9.52,-15.87 3.11,-5.19 6.21,-10.37 9.31,-15.53 16.9,-27.93 34.16,-55 54.1,-78.72 19.95,-23.73 42.57,-44.09 70.19,-58.6 15.51,-8.12 32.49,-14.54 51.26,-18.8 18.76,-4.26 39.33,-6.36 62.02,-5.82 67.47,1.51 121.16,33.46 174.18,65.01 35.42,21.08 70.54,41.98 109.26,53.48 6.44,1.86 12.91,3.45 19.44,4.77 6.52,1.31 13.1,2.34 19.75,3.07 33.16,3.56 67.17,-0.21 99.18,-10.85 31.34,-10.41 60.77,-27.4 85.62,-50.53 30.14,-28.15 53.02,-64.97 67.01,-105.64 14,-40.71 19.09,-85.28 13.64,-128.88 -6.28,-50.8 -24.97,-98.55 -43.69,-146.36 -8.61,-22 -17.23,-44.02 -24.65,-66.37 -9.15,-27.45 -16.36,-55.58 -21.65,-84.08 -5.37,-28.9 -8.77,-58.2 -10.22,-87.56l0.44 -0.02c1.45,29.34 4.85,58.62 10.21,87.5 5.29,28.49 12.49,56.59 21.63,84.02 7.41,22.32 16.04,44.34 24.65,66.35 18.73,47.84 37.43,95.62 43.72,146.46 5.45,43.67 0.35,88.31 -13.67,129.09 -14.01,40.73 -36.92,77.61 -67.12,105.81 -24.89,23.18 -54.38,40.2 -85.78,50.63 -32.07,10.65 -66.15,14.43 -99.37,10.86 -6.65,-0.73 -13.24,-1.76 -19.78,-3.08 -6.54,-1.31 -13.03,-2.91 -19.49,-4.77 -38.76,-11.52 -73.91,-32.43 -109.36,-53.53 -52.96,-31.51 -106.6,-63.43 -173.96,-64.95 -22.66,-0.53 -43.19,1.56 -61.92,5.82 -18.73,4.25 -35.67,10.66 -51.14,18.76 -27.57,14.48 -50.15,34.81 -70.07,58.49 -19.92,23.69 -37.16,50.74 -54.05,78.66 -3.1,5.17 -6.21,10.35 -9.32,15.54 -3.15,5.26 -6.3,10.52 -9.38,15.64l-0.51 0z"/>
    <path class="fil1" d="M270.9 748.03c3.71,-5.57 7.42,-11.14 11.2,-16.78 17.42,-25.88 35.08,-50.88 55.27,-72.74 20.2,-21.86 42.92,-40.56 70.48,-53.8 15.57,-7.52 32.55,-13.48 51.2,-17.49 18.65,-4.01 38.97,-6.07 61.27,-5.81 66.03,0.64 118.89,28.66 170.54,56.04 35.25,18.68 69.93,37.07 107.83,46.23 6.18,1.53 12.46,2.73 18.77,3.64 6.31,0.91 12.65,1.54 18.96,1.94 31.94,1.95 64.52,-3.14 95.11,-14.81 29.86,-11.4 57.83,-29.05 81.45,-52.55 28.73,-28.53 50.5,-65.27 63.88,-105.67 13.41,-40.51 18.38,-84.68 13.46,-127.93 -5.57,-49.94 -22.5,-97.1 -39.45,-144.34 -8.14,-22.68 -16.29,-45.37 -23.18,-68.39 -8.46,-28.07 -14.97,-56.81 -19.55,-85.88 -4.63,-29.41 -7.28,-59.17 -7.97,-88.94l0.44 -0.01c0.69,29.75 3.34,59.49 7.96,88.88 4.58,29.05 11.08,57.77 19.54,85.83 6.9,23.02 15.04,45.7 23.17,68.36 16.96,47.27 33.9,94.45 39.47,144.45 4.93,43.3 -0.04,87.54 -13.47,128.1 -13.4,40.47 -35.21,77.28 -63.99,105.86 -23.67,23.53 -51.69,41.22 -81.6,52.64 -30.65,11.69 -63.3,16.79 -95.3,14.84 -6.32,-0.4 -12.67,-1.03 -19,-1.95 -6.32,-0.91 -12.61,-2.11 -18.8,-3.64 -37.96,-9.18 -72.67,-27.58 -107.93,-46.27 -51.61,-27.36 -104.42,-55.36 -170.35,-55.99 -22.25,-0.26 -42.55,1.8 -61.17,5.8 -18.62,4 -35.56,9.95 -51.1,17.45 -27.5,13.22 -50.18,31.89 -70.35,53.71 -20.16,21.83 -37.81,46.82 -55.23,72.68 -3.63,5.42 -7.32,10.97 -11.03,16.54l-0.53 0z"/>
    <path class="fil1" d="M280.74 748.03l1.63 -2.17c17.96,-23.87 36.02,-46.82 56.46,-66.81 20.44,-20 43.27,-37.03 70.76,-49.08 15.64,-6.85 32.61,-12.28 51.14,-16.02 18.53,-3.74 38.62,-5.81 60.51,-5.94 64.58,-0.31 116.64,23.78 166.94,47.07 35.1,16.24 69.34,32.09 106.38,38.97 5.84,1.11 11.75,1.92 17.69,2.49 6.21,0.59 12.46,0.9 18.71,0.97 30.69,0.26 61.87,-6.19 91.07,-18.88 28.42,-12.35 54.97,-30.61 77.39,-54.33 27.22,-28.88 47.81,-65.52 60.54,-105.59 12.81,-40.32 17.66,-84.1 13.33,-126.95 -4.97,-49.07 -20.13,-95.77 -35.31,-142.56 -7.57,-23.32 -15.14,-46.65 -21.46,-70.31 -7.74,-28.68 -13.51,-58.03 -17.33,-87.69 -3.85,-29.96 -5.71,-60.23 -5.58,-90.46l0.44 0c-0.13,30.21 1.73,60.47 5.58,90.4 3.81,29.64 9.57,58.97 17.31,87.64 6.32,23.65 13.89,46.97 21.46,70.28 15.19,46.81 30.36,93.54 35.33,142.66 4.34,42.9 -0.53,86.75 -13.35,127.12 -12.76,40.13 -33.38,76.83 -60.65,105.76 -22.45,23.77 -49.05,42.06 -77.52,54.44 -29.26,12.71 -60.5,19.17 -91.26,18.9 -6.26,-0.06 -12.52,-0.38 -18.74,-0.97 -5.96,-0.56 -11.88,-1.38 -17.73,-2.49 -37.1,-6.89 -71.36,-22.75 -106.48,-39.01 -50.27,-23.26 -102.27,-47.34 -166.75,-47.02 -21.86,0.13 -41.93,2.19 -60.43,5.93 -18.51,3.73 -35.45,9.15 -51.06,15.99 -27.43,12.02 -50.22,29.03 -70.63,48.99 -20.42,19.98 -38.46,42.91 -56.41,66.77l-1.43 1.9 -0.55 0z"/>
    <path class="fil1" d="M293 748.03c16.42,-19.01 33.17,-36.95 51.86,-52.61 19.46,-16.32 41.02,-30.17 66.46,-40.19 15.71,-6.19 32.64,-11.21 51.04,-14.75 18.39,-3.55 38.26,-5.61 59.81,-5.87 62.61,-0.77 113.49,19.13 162.1,38.15 35.37,13.83 69.54,27.2 106.15,31.79 5.78,0.74 11.59,1.17 17.42,1.35 5.83,0.18 11.67,0.12 17.52,-0.15 29.49,-1.42 59.29,-9.21 87.12,-22.93 26.95,-13.29 52.06,-32.13 73.23,-56.12 25.81,-29.31 45.29,-65.88 57.41,-105.66 12.22,-40.1 16.95,-83.47 13.15,-125.96 -4.26,-47.79 -17.61,-93.61 -30.99,-139.52 -7.09,-24.33 -14.18,-48.68 -19.93,-73.35 -6.96,-29.33 -11.94,-59.31 -14.95,-89.57 -3.04,-30.48 -4.07,-61.24 -3.11,-91.9l0.44 0.01c-0.96,30.64 0.07,61.39 3.1,91.85 3.01,30.23 7.99,60.2 14.94,89.51 5.76,24.68 12.85,49.02 19.93,73.32 13.39,45.93 26.75,91.77 31.01,139.61 3.81,42.55 -0.94,85.97 -13.17,126.12 -12.14,39.85 -31.65,76.47 -57.5,105.83 -21.22,24.03 -46.36,42.91 -73.37,56.22 -27.88,13.75 -57.74,21.56 -87.29,22.98 -5.86,0.27 -11.71,0.33 -17.55,0.15 -5.84,-0.18 -11.67,-0.62 -17.46,-1.35 -36.67,-4.6 -70.86,-17.98 -106.26,-31.82 -48.58,-19.01 -99.41,-38.89 -161.93,-38.13 -21.53,0.27 -41.36,2.33 -59.74,5.87 -18.37,3.54 -35.28,8.55 -50.96,14.73 -25.39,10 -46.91,23.82 -66.34,40.11 -18.57,15.57 -35.24,33.4 -51.56,52.28l-0.58 0z"/>
    <path class="fil1" d="M309.35 748.03c14.41,-13.81 29.34,-26.65 45.71,-37.9 17.3,-11.87 36.22,-21.95 57.87,-29.5 15.83,-5.52 32.76,-10.08 51.03,-13.39 18.26,-3.31 37.85,-5.37 59.01,-5.91 60.28,-1.5 109.77,14.28 156.51,29.18 35.97,11.46 70.31,22.41 106.67,24.55 11.16,0.66 22.32,0.26 33.48,-0.93 28.27,-3.11 56.69,-12.25 83.13,-27 25.5,-14.21 49.16,-33.64 69.12,-57.9 24.33,-29.68 42.67,-66.15 54.16,-105.64 11.6,-39.88 16.22,-82.85 12.94,-125.05 -3.67,-46.67 -15.33,-91.76 -27.01,-136.91 -6.52,-25.21 -13.05,-50.43 -18.2,-75.97 -6.16,-29.99 -10.34,-60.63 -12.52,-91.5 -2.19,-31.04 -2.37,-62.32 -0.54,-93.43l0.44 0.02c-1.83,31.1 -1.65,62.36 0.54,93.38 2.18,30.86 6.35,61.47 12.51,91.44 5.15,25.53 11.67,50.75 18.19,75.95 11.69,45.17 23.36,90.28 27.03,136.98 3.28,42.25 -1.34,85.28 -12.96,125.21 -11.5,39.55 -29.87,76.07 -54.24,105.8 -19.99,24.3 -43.7,43.76 -69.24,58 -26.5,14.78 -54.97,23.94 -83.3,27.06 -11.19,1.19 -22.37,1.59 -33.55,0.93 -36.42,-2.14 -70.79,-13.1 -106.79,-24.58 -46.7,-14.88 -96.15,-30.65 -156.36,-29.15 -21.13,0.53 -40.7,2.59 -58.94,5.9 -18.24,3.31 -35.15,7.86 -50.97,13.37 -21.6,7.54 -40.49,17.6 -57.76,29.46 -16.23,11.14 -31.03,23.85 -45.32,37.53l-0.64 0z"/>
    <path class="fil1" d="M332.47 748.03c11.47,-8.38 23.44,-16.09 36.3,-22.92 14.03,-7.45 29.12,-13.86 45.76,-18.95 15.9,-4.86 32.83,-8.95 50.96,-12.03 18.13,-3.07 37.45,-5.13 58.14,-5.93 57.36,-2.18 105.03,9.48 149.54,20.36 37.13,9.08 72.07,17.62 108.58,17.14 5.38,-0.07 10.76,-0.4 16.12,-0.95 5.36,-0.55 10.71,-1.31 16.03,-2.24 26.97,-4.81 53.97,-15.33 79.04,-31.11 24.07,-15.15 46.36,-35.16 65.1,-59.63 22.9,-30.03 40.13,-66.37 51,-105.53 11.03,-39.7 15.53,-82.3 12.79,-124.12 -3.03,-45.74 -13.08,-90.21 -23.15,-134.78 -5.85,-25.91 -11.71,-51.85 -16.21,-78.09 -5.28,-30.73 -8.57,-62.08 -9.86,-93.62 -1.29,-31.59 -0.59,-63.37 2.13,-94.91l0.44 0.04c-2.72,31.52 -3.42,63.28 -2.13,94.85 1.29,31.52 4.58,62.85 9.85,93.56 4.5,26.24 10.36,52.18 16.21,78.07 10.08,44.6 20.13,89.08 23.16,134.86 2.74,41.86 -1.76,84.51 -12.8,124.26 -10.89,39.21 -28.15,75.61 -51.08,105.67 -18.77,24.52 -41.1,44.56 -65.22,59.74 -25.11,15.81 -52.17,26.35 -79.2,31.17 -5.32,0.93 -10.68,1.7 -16.05,2.25 -5.38,0.55 -10.77,0.88 -16.16,0.95 -36.58,0.48 -71.54,-8.07 -108.69,-17.15 -44.49,-10.88 -92.12,-22.53 -149.42,-20.35 -20.67,0.79 -39.98,2.85 -58.09,5.93 -18.11,3.07 -35.02,7.16 -50.9,12.01 -16.61,5.08 -31.67,11.48 -45.69,18.92 -12.65,6.73 -24.45,14.3 -35.76,22.53l-0.74 0z"/>
    <path class="fil1" d="M369.84 748.03c6.33,-2.91 12.86,-5.63 19.63,-8.14 8.52,-3.17 17.43,-6.01 26.8,-8.47 15.96,-4.19 32.86,-7.85 50.85,-10.71 17.99,-2.86 37.09,-4.92 57.44,-5.92 53.66,-2.75 98.92,4.92 140.77,12.02 39.05,6.61 75.13,12.73 112.28,9.39 5.01,-0.45 10.05,-1.13 15.08,-2 5.24,-0.91 10.46,-2.02 15.61,-3.31 25.72,-6.52 51.27,-18.37 74.92,-35.18 22.63,-16.09 43.51,-36.72 61.12,-61.54 21.43,-30.4 37.56,-66.69 47.82,-105.59 10.42,-39.5 14.79,-81.69 12.52,-123.13 -2.46,-44.34 -10.86,-87.63 -19.27,-131.04 -5.27,-27.14 -10.54,-54.32 -14.38,-81.85 -4.4,-31.4 -6.81,-63.41 -7.2,-95.56 -0.39,-32.11 1.22,-64.36 4.86,-96.28l0.44 0.05c-3.64,31.91 -5.25,64.14 -4.86,96.22 0.39,32.13 2.8,64.13 7.2,95.51 3.83,27.51 9.1,54.69 14.37,81.83 8.42,43.42 16.82,86.72 19.27,131.09 2.28,41.5 -2.09,83.73 -12.52,123.27 -10.28,38.95 -26.43,75.29 -47.89,105.73 -17.64,24.86 -38.56,45.53 -61.23,61.64 -23.69,16.85 -49.29,28.73 -75.07,35.26 -5.16,1.29 -10.39,2.4 -15.63,3.31 -5.04,0.87 -10.09,1.55 -15.12,2.01 -37.21,3.34 -73.31,-2.78 -112.39,-9.4 -41.83,-7.09 -87.06,-14.76 -140.68,-12.01 -20.34,1 -39.41,3.06 -57.39,5.92 -17.98,2.85 -34.86,6.51 -50.81,10.7 -9.36,2.46 -18.25,5.29 -26.76,8.45 -6.45,2.39 -12.67,4.98 -18.72,7.73l-1.06 0z"/>
    <path class="fil1" d="M464.22 748.03c7.26,-1.11 14.68,-2.14 22.28,-3.06 12.52,-1.51 25.5,-2.73 38.99,-3.58 48.68,-3.17 90.51,0.75 128.95,4.34 8.67,0.81 17.16,1.61 25.52,2.3l-5.17 0c-6.7,-0.58 -13.49,-1.21 -20.38,-1.86 -38.43,-3.59 -80.25,-7.51 -128.9,-4.34 -13.47,0.85 -26.44,2.07 -38.96,3.58 -6.6,0.8 -13.06,1.67 -19.41,2.62l-2.92 0zm299.79 0c3.2,-0.42 6.39,-0.9 9.59,-1.45 4.92,-0.87 9.84,-1.96 14.73,-3.24 4.89,-1.28 9.78,-2.74 14.63,-4.33 24.44,-8.22 48.54,-21.43 70.75,-39.23 21.24,-17.04 40.76,-38.27 57.2,-63.35 19.95,-30.65 34.92,-66.73 44.55,-105.19 9.87,-39.4 14.14,-81.31 12.46,-122.47 -1.83,-42.8 -8.63,-84.9 -15.46,-127.13 -4.61,-28.48 -9.23,-57.03 -12.33,-85.89 -3.49,-32.05 -4.96,-64.69 -4.41,-97.41 0.54,-32.62 3.09,-65.32 7.66,-97.63l0.44 0.06c-4.57,32.29 -7.12,64.98 -7.67,97.57 -0.54,32.71 0.93,65.33 4.41,97.36 3.11,28.86 7.72,57.4 12.33,85.87 6.83,42.25 13.64,84.35 15.47,127.18 1.68,41.2 -2.6,83.15 -12.48,122.59 -9.64,38.51 -24.62,74.63 -44.61,105.33 -16.46,25.12 -36.01,46.39 -57.29,63.45 -22.25,17.83 -46.39,31.07 -70.88,39.3l0 0c-4.86,1.6 -9.75,3.06 -14.66,4.35 -4.91,1.28 -9.84,2.38 -14.76,3.24 -2.15,0.37 -4.3,0.71 -6.45,1.02l-3.22 0z"/>
    <path class="fil1" d="M795.36 748.03c0.62,-0.25 1.24,-0.51 1.87,-0.77 23.18,-9.93 45.84,-24.48 66.62,-43.28 19.84,-17.95 37.97,-39.77 53.22,-65.14 18.48,-31 32.34,-66.98 41.36,-105.14 9.27,-39.24 13.41,-80.78 12.2,-121.61 -1.22,-40.94 -6.52,-81.45 -11.85,-122.13 -3.95,-30.13 -7.9,-60.35 -10.22,-90.89 -2.5,-32.77 -3,-66.11 -1.47,-99.49 1.51,-33.1 5,-66.23 10.52,-98.87l0.43 0.07c-5.51,32.62 -9.01,65.74 -10.51,98.81 -1.53,33.36 -1.03,66.69 1.47,99.44 2.31,30.56 6.27,60.76 10.21,90.88 5.33,40.68 10.64,81.2 11.86,122.17 1.21,40.86 -2.94,82.45 -12.21,121.72 -9.03,38.2 -22.91,74.22 -41.41,105.26 -15.27,25.41 -33.44,47.27 -53.31,65.24 -20.82,18.84 -43.52,33.42 -66.74,43.36 -0.3,0.13 -0.59,0.25 -0.89,0.37l-1.15 0z"/>
    <path class="fil1" d="M804.52 748.03c18.74,-11.56 36.78,-26.28 53.34,-43.92 16.88,-17.99 32.24,-39.03 45.24,-62.87 17.03,-31.25 29.77,-67.01 38.16,-104.76 8.72,-39.16 12.76,-80.46 12.08,-121.07 -0.65,-38.86 -4.51,-77.53 -8.38,-116.39 -3.19,-32 -6.4,-64.14 -7.84,-96.64 -1.49,-33.47 -0.98,-67.48 1.55,-101.47 2.51,-33.61 7,-67.2 13.5,-100.21l0.43 0.08c-6.49,33 -10.98,66.57 -13.49,100.16 -2.53,33.98 -3.04,67.98 -1.55,101.42 1.44,32.49 4.64,64.62 7.84,96.62 3.87,38.87 7.73,77.54 8.38,116.42 0.68,40.65 -3.37,81.98 -12.09,121.17 -8.4,37.79 -21.15,73.59 -38.2,104.88 -13.03,23.88 -28.4,44.94 -45.31,62.96 -16.41,17.48 -34.27,32.1 -52.83,43.62l-0.83 0z"/>
    <path class="fil1" d="M807.25 748.03c15.7,-12.69 30.64,-27.76 44.34,-45.02 14.01,-17.64 26.73,-37.58 37.68,-59.64 15.53,-31.52 27.16,-67.12 34.94,-104.48 8.12,-39.04 12.05,-80.01 11.85,-120.29 -0.14,-36.44 -2.69,-72.87 -5.25,-109.48 -2.4,-34.29 -4.81,-68.74 -5.26,-103.55 -0.44,-34.17 1.11,-68.85 4.69,-103.44 3.54,-34.09 9.04,-68.1 16.54,-101.44l0.42 0.1c-7.49,33.32 -12.99,67.31 -16.52,101.39 -3.58,34.57 -5.14,69.24 -4.69,103.38 0.45,34.78 2.86,69.24 5.26,103.54 2.56,36.6 5.11,73.03 5.25,109.5 0.2,40.31 -3.73,81.31 -11.86,120.38 -7.79,37.4 -19.43,73.03 -34.98,104.59 -10.96,22.08 -23.7,42.05 -37.72,59.72 -13.6,17.13 -28.42,32.1 -43.99,44.74l-0.7 0z"/>
    <path class="fil1" d="M807.22 748.03c13.17,-13.34 25.58,-28.46 36.95,-45.24 11.65,-17.21 22.22,-36.17 31.4,-56.75 14.06,-31.67 24.55,-66.94 31.71,-103.78 7.58,-39.07 11.41,-79.91 11.76,-120.07 0.25,-33.05 -1.07,-66.22 -2.39,-99.6 -1.48,-37.51 -2.97,-75.29 -2.27,-113.44 0.65,-35 3.29,-70.46 7.97,-105.75 4.59,-34.62 11.13,-69.06 19.66,-102.71l0.43 0.1c-8.53,33.65 -15.07,68.07 -19.66,102.67 -4.67,35.27 -7.31,70.72 -7.96,105.7 -0.7,38.13 0.79,75.9 2.27,113.42 1.32,33.37 2.63,66.55 2.38,99.61 -0.34,40.19 -4.17,81.06 -11.76,120.15 -7.16,36.87 -17.66,72.17 -31.74,103.88 -9.19,20.6 -19.77,39.58 -31.44,56.81 -11.3,16.68 -23.62,31.72 -36.69,45l-0.62 0z"/>
    <path class="fil1" d="M804.79 748.03c11.05,-13.7 21.39,-28.76 30.86,-45.08 9.78,-16.86 18.62,-35.07 26.35,-54.51 12.56,-31.83 21.93,-66.81 28.45,-103.16 7.02,-39.08 10.74,-79.75 11.56,-119.77 0.61,-29.13 0.28,-58.46 -0.07,-88.02 -0.47,-41.28 -0.95,-82.99 1.14,-125.15 1.78,-35.74 5.56,-71.91 11.37,-107.82 5.67,-35.08 13.28,-69.9 22.85,-103.84l0.43 0.12c-9.58,33.92 -17.18,68.73 -22.85,103.79 -5.8,35.89 -9.58,72.04 -11.36,107.77 -2.1,42.15 -1.61,83.85 -1.14,125.13 0.34,29.56 0.68,58.9 0.07,88.03 -0.82,40.04 -4.54,80.73 -11.56,119.84 -6.53,36.38 -15.92,71.38 -28.48,103.24 -7.74,19.47 -16.59,37.69 -26.38,54.57 -9.42,16.23 -19.7,31.21 -30.68,44.86l-0.56 0z"/>
    <path class="fil1" d="M800.33 748.03c9.27,-13.89 17.89,-28.82 25.76,-44.71 8.2,-16.56 15.59,-34.17 22.08,-52.74 11.02,-31.69 19.21,-66.03 25.06,-101.52 6.49,-39.4 10.1,-80.21 11.5,-120.36 0.82,-23.81 1.17,-47.85 1.52,-72.08 0.68,-46.44 1.37,-93.57 5.39,-141.1 2.89,-36.42 7.8,-73.23 14.75,-109.7 6.78,-35.61 15.51,-70.88 26.18,-105.14l0.42 0.13c-10.67,34.24 -19.39,69.5 -26.17,105.09 -6.95,36.45 -11.85,73.25 -14.74,109.66 -4.02,47.53 -4.71,94.65 -5.39,141.06 -0.35,24.24 -0.7,48.29 -1.53,72.09 -1.39,40.17 -5,81 -11.5,120.42 -5.85,35.51 -14.04,69.88 -25.08,101.59 -6.49,18.59 -13.89,36.22 -22.1,52.79 -7.83,15.82 -16.4,30.68 -25.62,44.52l-0.53 0z"/>
    <path class="fil1" d="M795.12 748.03c7.64,-13.87 14.68,-28.52 21.1,-43.87 6.79,-16.21 12.88,-33.21 18.25,-50.91 10.17,-33.84 17.55,-70.2 22.85,-107.54 5.3,-37.34 8.52,-75.66 10.39,-113.42 0.82,-17.16 1.51,-34.45 2.2,-51.86 2.09,-52.84 4.23,-106.82 10.43,-161.32 4.17,-37.3 10.34,-74.94 18.53,-112.14 7.94,-36.09 17.79,-71.76 29.56,-106.3l0.41 0.14c-11.76,34.52 -21.6,70.18 -29.54,106.25 -8.19,37.19 -14.35,74.81 -18.52,112.09 -6.2,54.5 -8.34,108.47 -10.44,161.29 -0.69,17.43 -1.37,34.73 -2.2,51.87 -1.86,37.77 -5.08,76.11 -10.39,113.47 -5.3,37.36 -12.68,73.74 -22.86,107.59 -5.37,17.73 -11.47,34.74 -18.26,50.96 -6.4,15.28 -13.41,29.87 -21.01,43.7l-0.5 0z"/>
    <path class="fil1" d="M788.54 748.03c6.25,-13.82 11.98,-28.21 17.2,-43.12 5.59,-15.97 10.6,-32.54 15.03,-49.66 8.77,-34.3 15.06,-70.63 19.73,-107.72 4.66,-37.09 7.72,-74.95 10.05,-112.32 0.46,-7.44 0.91,-14.92 1.37,-22.44 3.75,-61.88 7.63,-125.99 17.12,-190.75 5.45,-38.04 12.88,-76.38 22.3,-114.18 9.1,-36.48 20.06,-72.46 32.9,-107.17l0.41 0.15c-12.83,34.7 -23.79,70.66 -32.88,107.13 -9.42,37.78 -16.85,76.1 -22.3,114.14 -9.48,64.73 -13.37,128.84 -17.11,190.71 -0.46,7.51 -0.91,14.99 -1.37,22.44 -2.33,37.36 -5.39,75.23 -10.06,112.34 -4.67,37.12 -10.96,73.47 -19.74,107.78 -4.43,17.13 -9.44,33.71 -15.03,49.7 -5.2,14.85 -10.91,29.19 -17.13,42.97l-0.49 0z"/>
    <path class="fil1" d="M781.67 748.03c5.04,-13.77 9.61,-27.95 13.76,-42.51 4.39,-15.41 8.3,-31.25 11.77,-47.47 7.32,-34.7 12.53,-70.99 16.62,-107.84 4.09,-36.85 7.05,-74.25 9.84,-111.15 2.6,-34.17 5.45,-69.31 9.28,-104.99 3.82,-35.68 8.61,-71.89 15.06,-108.2 6.81,-38.97 15.59,-78.16 26.35,-116.68 10.36,-37.07 22.55,-73.51 36.58,-108.53l0.4 0.16c-14.02,35.01 -26.21,71.44 -36.56,108.49 -10.75,38.5 -19.53,77.67 -26.34,116.64 -6.45,36.3 -11.23,72.5 -15.05,108.16 -3.83,35.67 -6.69,70.81 -9.28,104.98 -2.79,36.91 -5.75,74.31 -9.84,111.17 -4.09,36.85 -9.31,73.16 -16.63,107.88 -3.47,16.23 -7.38,32.08 -11.77,47.5 -4.14,14.51 -8.7,28.65 -13.73,42.39l-0.46 0z"/>
    <path class="fil1" d="M773.62 748.03c3.96,-13.65 7.5,-27.58 10.68,-41.74 3.37,-15.02 6.33,-30.31 8.94,-45.84 9.34,-55.42 14.21,-113.75 19.05,-171.78 1.29,-15.41 2.57,-30.79 3.95,-46.29 3.13,-33.98 6.85,-69.09 11.69,-104.81 4.84,-35.73 10.79,-72.07 18.37,-108.51 8.2,-39.77 18.35,-79.68 30.45,-118.79 11.61,-37.55 25.02,-74.36 40.2,-109.62l0.41 0.18c-15.18,35.24 -28.58,72.04 -40.19,109.56 -12.1,39.11 -22.25,79 -30.44,118.76 -7.58,36.43 -13.53,72.76 -18.37,108.48 -4.83,35.72 -8.56,70.82 -11.68,104.79 -1.36,15.24 -2.65,30.75 -3.95,46.28 -4.84,58.04 -9.71,116.38 -19.06,171.83 -2.61,15.53 -5.57,30.83 -8.94,45.85 -3.17,14.14 -6.71,28.03 -10.65,41.65l-0.46 0z"/>
    <path class="fil1" d="M765.13 748.03c2.99,-13.46 5.62,-27.09 7.95,-40.87 2.46,-14.6 4.59,-29.38 6.46,-44.3 5.06,-40.33 8.28,-81.6 11.5,-122.96 2.45,-31.46 4.9,-62.98 8.18,-94.19 3.77,-35.48 8.68,-72.38 15.01,-110 5.73,-34.04 12.63,-68.66 20.9,-103.33 9.66,-40.67 21.25,-81.42 34.76,-121.24 12.89,-37.96 27.52,-75.09 43.87,-110.49l0.4 0.18c-16.35,35.39 -30.97,72.5 -43.85,110.45 -13.5,39.8 -25.09,80.54 -34.75,121.2 -8.28,34.67 -15.17,69.29 -20.9,103.3 -6.33,37.61 -11.23,74.51 -15,109.97 -3.28,31.19 -5.73,62.71 -8.18,94.18 -3.23,41.37 -6.44,82.65 -11.5,122.98 -1.87,14.92 -4,29.7 -6.47,44.32 -2.32,13.75 -4.94,27.36 -7.93,40.8l-0.45 0z"/>
    <path class="fil1" d="M756.06 748.03c8.78,-54.86 12.18,-111.09 15.57,-167.37 2.66,-44.06 5.32,-88.15 10.57,-131.63 8.95,-74.41 25,-155.9 48.11,-236.62 20.97,-73.19 47.74,-145.74 80.31,-211.77l0.39 0.2c-32.55,66 -59.32,138.52 -80.27,211.7 -23.11,80.68 -39.16,162.16 -48.1,236.54 -5.25,43.48 -7.91,87.56 -10.57,131.6 -3.4,56.27 -6.79,112.49 -15.57,167.35l-0.44 0z"/>
   </g>
  </g>
 </g>
</svg>
