<?xml version="1.0" encoding="UTF-8"?>
<!DOCTYPE svg PUBLIC "-//W3C//DTD SVG 1.1//EN" "http://www.w3.org/Graphics/SVG/1.1/DTD/svg11.dtd">
<!-- Creator: CorelDRAW -->
<svg xmlns="http://www.w3.org/2000/svg" xml:space="preserve" width="2000px" height="2195px" version="1.1" style="shape-rendering:geometricPrecision; text-rendering:geometricPrecision; image-rendering:optimizeQuality; fill-rule:evenodd; clip-rule:evenodd"
viewBox="0 0 261.4 286.9"
 xmlns:xlink="http://www.w3.org/1999/xlink"
 xmlns:xodm="http://www.corel.com/coreldraw/odm/2003">
 <defs>
  <style type="text/css">
   <![CDATA[
    .fil1 {fill:#E4E4E5;fill-rule:nonzero}
    .fil0 {fill:#F7F7F7;fill-rule:nonzero}
   ]]>
  </style>
 </defs>
 <g id="Слой_x0020_1">
  <metadata id="CorelCorpID_0Corel-Layer"/>
  <rect class="fil0" width="261.4" height="286.9"/>
  <g id="_2598228084704">
   <path class="fil1" d="M0 80.48c1.85,-1.46 3.76,-2.83 5.74,-4.13 2.07,-1.35 4.2,-2.61 6.42,-3.76 17.44,-9.18 36.85,-11.03 56.49,-8.2 23.92,3.41 48.16,13.76 69.56,26.22 10.57,6.18 20.96,12.87 31.36,19.57 27.85,17.99 55.73,35.97 87.15,43.54 0.81,0.19 1.61,0.37 2.42,0.56 0.76,0.15 1.52,0.33 2.26,0.48l0 0.41c-0.79,-0.17 -1.57,-0.32 -2.35,-0.5 -0.81,-0.17 -1.63,-0.37 -2.44,-0.56 -31.46,-7.59 -59.38,-25.6 -87.28,-43.58 -10.37,-6.7 -20.77,-13.42 -31.34,-19.57 -21.35,-12.44 -45.55,-22.77 -69.41,-26.18 -19.54,-2.81 -38.9,-0.96 -56.25,8.17 -2.17,1.16 -4.31,2.4 -6.37,3.74 -2.05,1.35 -4.05,2.79 -5.96,4.29l0 -0.5 0 0z"/>
   <path class="fil1" d="M0 89.98c2.46,-2 4.98,-3.87 7.63,-5.57 2.74,-1.78 5.59,-3.39 8.57,-4.82 13.57,-6.5 28.18,-8.64 43.16,-7.77 14.99,0.87 30.32,4.77 45.3,10.31 6.26,2.33 12.5,4.94 18.59,7.72 6.48,2.98 12.81,6.2 18.9,9.52 8.96,4.88 17.76,10.01 26.53,15.1 4.17,2.41 8.32,4.85 12.54,7.26 12.66,7.28 25.23,14.29 38.01,20.07 12.79,5.78 25.79,10.35 39.32,12.81 0.52,0.08 1.02,0.17 1.5,0.26l1.35 0.22 0 0.41c-0.46,-0.07 -0.92,-0.15 -1.42,-0.24 -0.54,-0.09 -1.04,-0.17 -1.52,-0.26 -13.55,-2.44 -26.57,-7.02 -39.38,-12.83 -12.81,-5.79 -25.4,-12.79 -38.05,-20.09 -4.13,-2.37 -8.35,-4.81 -12.57,-7.27 -8.74,-5.08 -17.57,-10.22 -26.51,-15.09 -6.09,-3.32 -12.39,-6.52 -18.87,-9.48 -6.07,-2.8 -12.29,-5.39 -18.57,-7.74 -14.94,-5.52 -30.23,-9.39 -45.17,-10.26 -14.91,-0.87 -29.46,1.24 -42.97,7.72 -2.95,1.43 -5.78,3.02 -8.52,4.78 -2.72,1.76 -5.33,3.7 -7.85,5.76l0 -0.52 0 0z"/>
   <path class="fil1" d="M0 99.2c0.33,-0.26 0.65,-0.54 0.98,-0.78 0.41,-0.35 0.82,-0.68 1.26,-1 2.78,-2.18 5.65,-4.2 8.65,-6.03 2.98,-1.82 6.11,-3.47 9.35,-4.89 13.66,-5.91 28.21,-7.48 43.1,-6.17 14.88,1.3 30.08,5.45 45.04,11.02 6.5,2.41 12.96,5.05 19.26,7.85 6.33,2.81 12.53,5.76 18.51,8.79 6.91,3.48 13.78,7.06 20.59,10.61 6.29,3.28 12.5,6.52 18.7,9.67 12.61,6.44 25.01,12.51 37.43,17.29 12.41,4.81 24.85,8.33 37.59,9.74l0.94 0.11 0 0.42 -0.98 -0.11c-12.79,-1.42 -25.27,-4.96 -37.71,-9.77 -12.44,-4.8 -24.83,-10.87 -37.44,-17.33 -6.16,-3.11 -12.4,-6.37 -18.72,-9.65 -6.77,-3.55 -13.62,-7.11 -20.58,-10.64 -5.98,-3 -12.17,-5.95 -18.48,-8.76 -6.33,-2.78 -12.76,-5.44 -19.24,-7.83 -14.94,-5.54 -30.12,-9.72 -44.95,-11 -14.83,-1.31 -29.31,0.26 -42.88,6.15 -3.24,1.39 -6.33,3.03 -9.33,4.85 -2.98,1.83 -5.83,3.83 -8.61,5.98 -0.41,0.33 -0.83,0.68 -1.24,1 -0.44,0.35 -0.85,0.68 -1.24,1.02l0 -0.54 0 0z"/>
   <path class="fil1" d="M0 108.29c0.94,-0.8 1.87,-1.59 2.85,-2.37 1.06,-0.85 2.15,-1.67 3.24,-2.44 2.87,-2.04 5.78,-3.91 8.81,-5.61 3.02,-1.69 6.15,-3.19 9.41,-4.45 13.68,-5.33 28.16,-6.31 42.97,-4.59 14.79,1.74 29.88,6.2 44.82,11.74 6.52,2.44 13,5.02 19.35,7.72 6.37,2.72 12.61,5.5 18.63,8.31 4.18,1.91 8.35,3.89 12.51,5.82 9.15,4.31 18.15,8.53 27.05,12.42 12.42,5.5 24.51,10.57 36.42,14.37 11.87,3.79 23.6,6.33 35.34,6.81l0 0.41c-11.79,-0.47 -23.55,-3.02 -35.47,-6.82 -11.94,-3.83 -24.03,-8.9 -36.47,-14.38 -8.82,-3.89 -17.87,-8.13 -27.05,-12.44 -4.11,-1.93 -8.26,-3.87 -12.48,-5.82 -6.06,-2.81 -12.28,-5.61 -18.63,-8.29 -6.35,-2.69 -12.83,-5.3 -19.36,-7.72 -14.89,-5.54 -29.96,-10 -44.7,-11.72 -14.75,-1.72 -29.16,-0.74 -42.78,4.57 -3.24,1.24 -6.35,2.74 -9.37,4.41 -3,1.68 -5.91,3.57 -8.76,5.59 -1.11,0.78 -2.18,1.61 -3.22,2.44 -1.04,0.82 -2.09,1.69 -3.11,2.56l0 0 0 -0.52z"/>
   <path class="fil1" d="M0 117.29c1.5,-1.35 3.04,-2.63 4.63,-3.85 1.7,-1.3 3.44,-2.54 5.24,-3.71 2.92,-1.92 5.9,-3.66 8.96,-5.2 3.05,-1.57 6.2,-2.92 9.48,-4.05 13.77,-4.74 28.16,-5.15 42.86,-3 14.7,2.18 29.68,6.9 44.64,12.46 6.55,2.46 13.05,5 19.44,7.59 6.4,2.61 12.68,5.24 18.79,7.85 6.83,2.92 13.57,5.79 20.2,8.5 6.64,2.74 13.14,5.33 19.53,7.75 12.03,4.52 23.62,8.54 34.88,11.35 11.2,2.8 22.07,4.41 32.75,4.13l0 0.41c-10.7,0.28 -21.62,-1.33 -32.86,-4.13 -11.29,-2.83 -22.88,-6.85 -34.92,-11.39 -6.37,-2.4 -12.9,-5.01 -19.53,-7.72 -6.65,-2.74 -13.39,-5.59 -20.2,-8.51 -6.09,-2.61 -12.37,-5.26 -18.79,-7.85 -6.41,-2.61 -12.94,-5.15 -19.44,-7.59 -14.92,-5.56 -29.88,-10.28 -44.55,-12.43 -14.64,-2.16 -28.97,-1.74 -42.67,2.98 -3.24,1.1 -6.39,2.47 -9.43,4.02 -3.05,1.54 -6.01,3.26 -8.92,5.17 -1.78,1.18 -3.52,2.4 -5.2,3.7 -1.67,1.28 -3.3,2.65 -4.89,4.07l0 0 0 -0.55 0 0z"/>
   <path class="fil1" d="M0 126.19c2.04,-1.87 4.18,-3.66 6.39,-5.35 2.33,-1.74 4.77,-3.39 7.31,-4.9 2.96,-1.78 5.98,-3.39 9.07,-4.8 3.11,-1.44 6.28,-2.65 9.56,-3.65 13.79,-4.14 28.12,-3.98 42.73,-1.4 14.62,2.59 29.49,7.61 44.43,13.23 11.35,4.24 22.72,8.67 33.57,12.91l4.94 1.92c6.87,2.67 13.68,5.24 20.35,7.63 6.68,2.37 13.22,4.56 19.6,6.52 11.56,3.57 22.63,6.59 33.22,8.48 10.53,1.89 20.62,2.63 30.23,1.68l0 0.39c-9.66,0.98 -19.75,0.22 -30.32,-1.66 -10.59,-1.89 -21.68,-4.93 -33.27,-8.5 -6.39,-1.95 -12.93,-4.15 -19.59,-6.54 -6.67,-2.37 -13.46,-4.94 -20.37,-7.64l-4.92 -1.91c-10.87,-4.24 -22.22,-8.65 -33.59,-12.92 -14.9,-5.58 -29.77,-10.59 -44.34,-13.17 -14.55,-2.57 -28.81,-2.74 -42.56,1.37 -3.26,1 -6.41,2.22 -9.5,3.63 -3.09,1.41 -6.09,3.02 -9.04,4.78 -2.53,1.5 -4.94,3.13 -7.25,4.87 -2.32,1.76 -4.52,3.61 -6.65,5.59l0 -0.02 0 -0.54 0 0z"/>
   <path class="fil1" d="M0 134.93c2.57,-2.44 5.26,-4.72 8.11,-6.85 2.96,-2.2 6.09,-4.2 9.39,-5.98 3.05,-1.65 6.12,-3.13 9.25,-4.42 3.13,-1.28 6.32,-2.37 9.63,-3.21 13.85,-3.55 28.09,-2.83 42.62,0.19 14.5,3.02 29.27,8.33 44.21,13.92 6.54,2.46 13.11,4.91 19.63,7.33 6.51,2.39 12.9,4.69 19.1,6.89 6.95,2.44 13.83,4.72 20.52,6.76 6.72,2.02 13.29,3.85 19.66,5.37 11.05,2.66 21.55,4.74 31.47,5.77 9.87,1.02 19.17,0.97 27.81,-0.57l0 0.41c-8.66,1.55 -17.96,1.59 -27.86,0.57 -9.94,-1.02 -20.46,-3.11 -31.53,-5.79 -6.37,-1.52 -12.94,-3.32 -19.66,-5.37 -6.72,-2.04 -13.59,-4.32 -20.55,-6.76 -6.21,-2.2 -12.63,-4.52 -19.11,-6.91 -6.46,-2.37 -13.05,-4.83 -19.63,-7.31 -14.9,-5.61 -29.67,-10.89 -44.15,-13.9 -14.46,-3.02 -28.64,-3.74 -42.42,-0.21 -3.29,0.85 -6.46,1.91 -9.59,3.19 -3.11,1.29 -6.16,2.77 -9.2,4.42 -3.28,1.76 -6.39,3.76 -9.33,5.93 -2.96,2.2 -5.74,4.57 -8.37,7.09l0 0 0 -0.56 0 0z"/>
   <path class="fil1" d="M0 143.54c3.04,-3.02 6.31,-5.81 9.79,-8.35 3.58,-2.59 7.43,-4.92 11.54,-6.94 3.09,-1.5 6.2,-2.85 9.37,-4 3.16,-1.17 6.4,-2.13 9.7,-2.83 27.36,-5.8 55.71,4.85 85,15.88l1.48 0.56c6.81,2.57 13.66,5.05 20.42,7.42 6.29,2.19 12.5,4.26 18.55,6.17 7.13,2.27 14.18,4.27 21.05,5.98 6.63,1.66 13.11,3.03 19.35,4.09 10.48,1.79 20.4,2.98 29.64,3.22 9.22,0.22 17.74,-0.5 25.51,-2.54l0 0.41c-7.77,2.04 -16.31,2.76 -25.51,2.54 -9.28,-0.24 -19.22,-1.43 -29.73,-3.21 -6.24,-1.07 -12.72,-2.46 -19.35,-4.11 -6.89,-1.72 -13.96,-3.72 -21.09,-5.98 -6.02,-1.9 -12.24,-3.98 -18.55,-6.18 -6.76,-2.37 -13.63,-4.87 -20.44,-7.44l-1.46 -0.54c-29.24,-11 -57.53,-21.64 -84.8,-15.87 -3.29,0.71 -6.48,1.65 -9.64,2.8 -3.15,1.15 -6.24,2.5 -9.32,4 -4.09,2 -7.92,4.33 -11.49,6.92 -3.56,2.58 -6.91,5.45 -10,8.56l-0.02 0 0 -0.56 0 0z"/>
   <path class="fil1" d="M0 152.11c3.5,-3.63 7.28,-6.96 11.42,-9.9 4.24,-3.02 8.8,-5.65 13.78,-7.83 3.16,-1.39 6.31,-2.63 9.53,-3.63 3.19,-1.02 6.43,-1.82 9.76,-2.37 25.66,-4.32 51.71,5.61 78.91,15.99 2.44,0.93 4.9,1.87 7.24,2.76 6.64,2.52 13.33,4.89 19.94,7.09 6.53,2.17 13.01,4.17 19.29,5.93 7.09,2 14.07,3.7 20.88,5.05 6.8,1.32 13.41,2.35 19.76,3 9.79,1.02 19.05,1.41 27.6,0.93 8.52,-0.45 16.35,-1.78 23.29,-4.17l0 0.43c-6.96,2.39 -14.77,3.7 -23.27,4.16 -8.57,0.47 -17.85,0.06 -27.66,-0.94 -6.37,-0.65 -12.98,-1.67 -19.81,-3.02 -6.81,-1.35 -13.81,-3.02 -20.9,-5.02 -6.28,-1.79 -12.76,-3.79 -19.31,-5.96 -6.63,-2.2 -13.33,-4.59 -19.96,-7.09 -2.5,-0.96 -4.87,-1.87 -7.24,-2.76 -27.14,-10.35 -53.14,-20.29 -78.69,-15.96 -3.31,0.52 -6.53,1.32 -9.72,2.34 -3.18,1 -6.33,2.22 -9.49,3.61 -4.93,2.16 -9.48,4.79 -13.69,7.79 -4.22,3.02 -8.09,6.41 -11.64,10.13l-0.02 -0.02 0 -0.54 0 0z"/>
   <path class="fil1" d="M0 160.74c3.91,-4.24 8.24,-8.09 12.98,-11.44 4.87,-3.43 10.2,-6.35 16.03,-8.61 3.22,-1.26 6.43,-2.35 9.65,-3.22 3.24,-0.89 6.5,-1.56 9.85,-1.98 24.08,-3.04 48.17,6.37 73.37,16.25 4.11,1.61 8.26,3.22 12.44,4.8 6.7,2.53 13.46,4.87 20.16,6.98 6.52,2.07 13,3.9 19.31,5.44 7.13,1.76 14.15,3.15 20.98,4.15 6.85,1 13.5,1.61 19.83,1.83 9.09,0.28 17.66,-0.04 25.53,-1.11 7.85,-1.07 15,-2.89 21.27,-5.59l0 0.44c-6.27,2.67 -13.4,4.5 -21.23,5.56 -7.89,1.07 -16.48,1.39 -25.59,1.11 -6.35,-0.22 -13,-0.82 -19.85,-1.85 -6.85,-1 -13.9,-2.37 -21.05,-4.15 -6.31,-1.54 -12.79,-3.37 -19.31,-5.44 -6.72,-2.1 -13.48,-4.45 -20.2,-6.98 -4.18,-1.58 -8.33,-3.21 -12.44,-4.82 -25.16,-9.83 -49.19,-19.25 -73.17,-16.2 -3.31,0.41 -6.57,1.08 -9.79,1.95 -3.22,0.87 -6.41,1.96 -9.61,3.2 -5.81,2.26 -11.11,5.15 -15.94,8.57 -4.85,3.41 -9.22,7.35 -13.2,11.7l-0.02 -0.03 0 -0.56 0 0z"/>
   <path class="fil1" d="M0 169.05c4.31,-4.87 9.11,-9.27 14.48,-13.01 5.48,-3.8 11.55,-6.96 18.31,-9.28 3.29,-1.13 6.53,-2.09 9.81,-2.83 3.28,-0.76 6.57,-1.28 9.91,-1.57 22.88,-1.87 45.34,7.25 68.91,16.81 5.46,2.22 10.99,4.46 16.57,6.59 6.61,2.52 13.31,4.81 19.99,6.79 6.65,1.98 13.26,3.65 19.7,5.02 7.24,1.54 14.37,2.65 21.27,3.31 6.85,0.65 13.48,0.89 19.76,0.65 8.46,-0.31 16.42,-1.26 23.7,-2.89 7.03,-1.57 13.4,-3.77 18.99,-6.61l0 0.45c-5.57,2.83 -11.92,5 -18.9,6.57 -7.31,1.63 -15.29,2.56 -23.77,2.89 -6.32,0.22 -12.96,0 -19.83,-0.65 -6.91,-0.68 -14.05,-1.78 -21.31,-3.31 -6.43,-1.37 -13.07,-3.06 -19.74,-5.04 -6.68,-2 -13.4,-4.26 -20.01,-6.79 -5.59,-2.13 -11.11,-4.37 -16.57,-6.58 -23.53,-9.57 -45.95,-18.66 -68.71,-16.79 -3.35,0.28 -6.61,0.8 -9.87,1.54 -3.27,0.74 -6.51,1.7 -9.77,2.81 -6.72,2.32 -12.76,5.46 -18.22,9.26 -5.44,3.81 -10.31,8.26 -14.68,13.24l-0.02 0 0 -0.58 0 0z"/>
   <path class="fil1" d="M0 177.7c4.7,-5.59 9.98,-10.57 15.98,-14.72 6.13,-4.26 13.01,-7.68 20.77,-10.03 3.33,-1 6.63,-1.82 9.94,-2.43 3.32,-0.61 6.65,-1 10.02,-1.15 21.64,-0.85 42.64,8.02 64.65,17.33 6.7,2.85 13.5,5.72 20.48,8.39 6.59,2.52 13.29,4.72 19.94,6.59 6.74,1.91 13.49,3.46 20.03,4.65 7.29,1.29 14.46,2.09 21.38,2.42 6.93,0.32 13.59,0.17 19.89,-0.5 7.48,-0.79 14.55,-2.18 21.03,-4.11 6.37,-1.89 12.2,-4.35 17.29,-7.33l0 0.48c-5.07,2.93 -10.85,5.35 -17.18,7.24 -6.5,1.96 -13.59,3.33 -21.09,4.13 -6.31,0.65 -13.01,0.83 -19.97,0.5 -6.93,-0.33 -14.11,-1.13 -21.41,-2.44 -6.57,-1.17 -13.31,-2.73 -20.08,-4.63 -6.67,-1.89 -13.37,-4.08 -19.98,-6.63 -6.94,-2.65 -13.76,-5.52 -20.5,-8.37 -21.97,-9.31 -42.91,-18.18 -64.46,-17.31 -3.35,0.15 -6.67,0.52 -9.96,1.13 -3.3,0.61 -6.59,1.44 -9.89,2.44 -7.74,2.34 -14.57,5.74 -20.68,9.96 -6.09,4.24 -11.44,9.3 -16.18,15l-0.02 -0.02 0 -0.59 0 0z"/>
   <path class="fil1" d="M0 186.07c5.02,-6.26 10.76,-11.83 17.37,-16.37 6.75,-4.66 14.4,-8.26 23.16,-10.53 3.4,-0.87 6.74,-1.56 10.09,-2.04 3.35,-0.48 6.68,-0.74 10.05,-0.74 20.53,0.02 40.21,8.76 60.78,17.87 7.85,3.48 15.83,7.01 24.02,10.14 6.64,2.54 13.38,4.72 20.1,6.48 6.78,1.8 13.52,3.19 20.11,4.15 7.31,1.09 14.5,1.59 21.42,1.57 7,-0.02 13.74,-0.59 20.07,-1.7 6.61,-1.17 12.85,-2.87 18.57,-5.02 5.76,-2.15 11.03,-4.79 15.66,-7.83l0 0.5c-4.61,3 -9.81,5.59 -15.51,7.72 -5.76,2.15 -12.02,3.85 -18.65,5.02 -6.35,1.11 -13.12,1.7 -20.14,1.72 -6.94,0.02 -14.16,-0.5 -21.48,-1.57 -6.59,-0.97 -13.36,-2.37 -20.16,-4.17 -6.72,-1.76 -13.48,-3.94 -20.14,-6.48 -8.2,-3.13 -16.18,-6.68 -24.03,-10.16 -20.55,-9.08 -40.18,-17.8 -60.62,-17.83 -3.35,0 -6.68,0.26 -10,0.72 -3.33,0.48 -6.66,1.18 -10.05,2.05 -8.7,2.26 -16.31,5.84 -23.03,10.45 -6.7,4.64 -12.48,10.29 -17.57,16.68l-0.02 -0.02 0 -0.61 0 0z"/>
   <path class="fil1" d="M0 194.55c5.35,-7.04 11.5,-13.22 18.72,-18.2 7.35,-5.09 15.81,-8.89 25.62,-11.07 3.46,-0.74 6.85,-1.3 10.24,-1.63 3.37,-0.32 6.74,-0.43 10.16,-0.3 19.61,0.85 38.22,9.52 57.6,18.55 8.76,4.09 17.65,8.24 26.9,11.78 6.59,2.55 13.33,4.66 20.07,6.33 6.85,1.7 13.7,2.91 20.35,3.68 7.42,0.84 14.7,1.08 21.7,0.71 7,-0.34 13.72,-1.32 20.03,-2.87 5.72,-1.41 11.11,-3.28 16.13,-5.52 5.05,-2.24 9.7,-4.89 13.88,-7.89l0 0.5c-4.13,2.93 -8.72,5.54 -13.72,7.78 -5.03,2.24 -10.46,4.11 -16.2,5.52 -6.31,1.57 -13.07,2.53 -20.12,2.9 -7,0.37 -14.31,0.13 -21.74,-0.72 -6.68,-0.76 -13.53,-2 -20.4,-3.7 -6.76,-1.67 -13.53,-3.78 -20.14,-6.35 -9.24,-3.54 -18.15,-7.69 -26.92,-11.76 -19.35,-9.03 -37.9,-17.68 -57.45,-18.53 -3.37,-0.13 -6.74,-0.04 -10.11,0.31 -3.35,0.32 -6.74,0.87 -10.17,1.63 -9.77,2.15 -18.16,5.93 -25.47,10.98 -7.33,5.04 -13.55,11.35 -18.94,18.5l-0.02 -0.02 0 -0.61z"/>
   <path class="fil1" d="M0 203.06c5.65,-7.81 12.2,-14.64 20.03,-20.05 7.93,-5.51 17.18,-9.51 28.09,-11.51 3.5,-0.63 6.96,-1.06 10.37,-1.26 3.42,-0.19 6.81,-0.15 10.2,0.13 18.75,1.57 36.32,10.22 54.58,19.2 9.59,4.7 19.36,9.51 29.6,13.42 6.65,2.57 13.46,4.63 20.26,6.22 6.85,1.56 13.7,2.65 20.44,3.2 7.46,0.6 14.81,0.54 21.86,-0.18 7.02,-0.69 13.76,-2.06 20.05,-4.06 4.87,-1.55 9.48,-3.46 13.81,-5.66 4.37,-2.26 8.43,-4.83 12.11,-7.67l0 0.52c-3.63,2.78 -7.64,5.3 -11.94,7.5 -4.33,2.24 -8.96,4.15 -13.87,5.7 -6.29,2 -13.07,3.37 -20.14,4.08 -7.07,0.72 -14.42,0.79 -21.92,0.18 -6.74,-0.57 -13.61,-1.63 -20.5,-3.22 -6.83,-1.59 -13.64,-3.65 -20.31,-6.22 -10.25,-3.91 -20.03,-8.74 -29.62,-13.44 -18.22,-8.98 -35.77,-17.59 -54.45,-19.15 -3.37,-0.29 -6.74,-0.33 -10.13,-0.13 -3.4,0.19 -6.83,0.6 -10.33,1.23 -10.85,2.01 -20.03,5.98 -27.95,11.44 -7.89,5.48 -14.52,12.44 -20.2,20.38l-0.04 -0.02 0 -0.63 0 0z"/>
   <path class="fil1" d="M0 211.64c5.96,-8.63 12.89,-16.2 21.31,-22.04 8.55,-5.96 18.59,-10.14 30.62,-11.88 3.56,-0.52 7.06,-0.82 10.54,-0.89 3.46,-0.04 6.88,0.13 10.29,0.54 18.03,2.27 34.77,10.96 52.08,19.97 10.26,5.35 20.72,10.78 31.75,15.02 6.63,2.57 13.43,4.59 20.26,6.07 6.92,1.48 13.88,2.41 20.66,2.78 7.57,0.37 15,0.02 22.12,-1.02 7.06,-1.07 13.8,-2.8 20.02,-5.24 4.03,-1.57 7.87,-3.41 11.48,-5.48 3.66,-2.11 7.09,-4.46 10.27,-7l0 0.52c-3.11,2.48 -6.48,4.76 -10.07,6.83 -3.63,2.09 -7.48,3.93 -11.53,5.52 -6.26,2.44 -13.02,4.2 -20.11,5.24 -7.13,1.07 -14.59,1.42 -22.2,1.02 -6.83,-0.34 -13.79,-1.28 -20.72,-2.78 -6.85,-1.48 -13.68,-3.5 -20.34,-6.07 -11.04,-4.26 -21.5,-9.69 -31.77,-15.04 -17.28,-8.98 -34,-17.68 -51.97,-19.92 -3.37,-0.42 -6.78,-0.59 -10.22,-0.55 -3.43,0.07 -6.93,0.35 -10.48,0.87 -11.96,1.74 -21.96,5.9 -30.44,11.81 -8.52,5.92 -15.53,13.61 -21.51,22.4l-0.04 -0.02 0 -0.66 0 0z"/>
   <path class="fil1" d="M0 220.43c6.24,-9.52 13.57,-17.9 22.57,-24.25 9.16,-6.45 20.03,-10.85 33.27,-12.3 3.61,-0.4 7.18,-0.57 10.68,-0.48 3.5,0.06 6.93,0.39 10.33,0.95 17.35,2.9 33.35,11.66 49.79,20.71 10.88,5.95 21.92,12.02 33.71,16.59 6.67,2.56 13.52,4.54 20.42,5.91 6.96,1.39 13.91,2.15 20.74,2.31 7.61,0.15 15.09,-0.48 22.22,-1.87 7.12,-1.42 13.9,-3.57 20.14,-6.44 3.2,-1.48 6.26,-3.15 9.16,-4.98 2.95,-1.85 5.76,-3.87 8.37,-6.02l0 0.52c-2.57,2.11 -5.29,4.07 -8.16,5.85 -2.91,1.85 -5.98,3.5 -9.2,5 -6.26,2.89 -13.09,5.07 -20.24,6.46 -7.15,1.41 -14.66,2.04 -22.31,1.89 -6.85,-0.15 -13.83,-0.93 -20.81,-2.33 -6.89,-1.37 -13.76,-3.35 -20.48,-5.93 -11.81,-4.57 -22.88,-10.66 -33.75,-16.62 -16.42,-9 -32.38,-17.76 -49.67,-20.65 -3.37,-0.57 -6.8,-0.87 -10.28,-0.96 -3.48,-0.07 -7.01,0.09 -10.62,0.5 -13.15,1.43 -23.98,5.81 -33.07,12.24 -9.11,6.42 -16.48,14.9 -22.77,24.57l-0.04 -0.02 0 -0.65 0 0z"/>
   <path class="fil1" d="M0 229.02l0.59 -0.91c0.26,-0.44 0.56,-0.92 0.89,-1.4 6.5,-9.93 14.13,-18.57 23.59,-25 9.48,-6.46 20.77,-10.68 34.6,-11.77 3.67,-0.28 7.28,-0.3 10.81,-0.08 3.54,0.21 7,0.67 10.43,1.37 16.75,3.45 32.06,12.35 47.73,21.44 11.4,6.61 22.97,13.33 35.43,18.15 6.65,2.59 13.52,4.5 20.44,5.79 7,1.28 14.04,1.89 20.94,1.82 7.72,-0.08 15.26,-1 22.46,-2.74 7.13,-1.74 13.92,-4.28 20.14,-7.58 2.39,-1.29 4.69,-2.68 6.91,-4.18 2.24,-1.5 4.39,-3.11 6.44,-4.83l0 0.55c-1.98,1.63 -4.05,3.17 -6.22,4.63 -2.22,1.5 -4.55,2.89 -6.94,4.17 -6.24,3.35 -13.07,5.9 -20.24,7.64 -7.22,1.76 -14.81,2.67 -22.55,2.76 -6.92,0.06 -13.98,-0.55 -21.03,-1.85 -6.91,-1.26 -13.81,-3.2 -20.51,-5.81 -12.48,-4.82 -24.07,-11.56 -35.46,-18.18 -15.66,-9.06 -30.94,-17.94 -47.62,-21.39 -3.42,-0.68 -6.85,-1.13 -10.38,-1.35 -3.5,-0.22 -7.08,-0.2 -10.74,0.09 -13.76,1.08 -24.98,5.28 -34.4,11.67 -9.41,6.4 -17,15.01 -23.48,24.9 -0.29,0.44 -0.59,0.89 -0.89,1.39 -0.33,0.5 -0.64,0.98 -0.9,1.42l-0.04 -0.05 0 -0.67 0 0z"/>
   <path class="fil1" d="M0 237.91c0.61,-1 1.22,-2 1.85,-2.98 0.72,-1.13 1.46,-2.26 2.22,-3.37 6.67,-9.85 14.48,-18.37 24.13,-24.59 9.68,-6.22 21.23,-10.16 35.38,-10.76 3.74,-0.16 7.37,-0.07 10.94,0.3 3.57,0.37 7.07,0.98 10.48,1.83 16.22,4 30.92,13 45.88,22.18 11.85,7.26 23.88,14.63 36.95,19.72 6.67,2.59 13.57,4.48 20.5,5.63 7.07,1.2 14.2,1.65 21.16,1.37 7.81,-0.32 15.46,-1.52 22.73,-3.63 7.15,-2.07 13.93,-4.98 20.11,-8.72 1.59,-0.98 3.13,-2 4.63,-3.07 1.52,-1.08 3.02,-2.21 4.44,-3.39l0 0.55c-1.35,1.1 -2.76,2.17 -4.2,3.19 -1.5,1.07 -3.07,2.09 -4.67,3.07 -6.2,3.76 -13.01,6.7 -20.21,8.76 -7.28,2.11 -14.98,3.33 -22.81,3.63 -7,0.29 -14.15,-0.15 -21.24,-1.35 -6.96,-1.17 -13.9,-3.06 -20.59,-5.67 -13.12,-5.09 -25.14,-12.46 -37.01,-19.75 -14.94,-9.15 -29.62,-18.15 -45.76,-22.13 -3.41,-0.85 -6.87,-1.46 -10.43,-1.81 -3.55,-0.37 -7.18,-0.48 -10.88,-0.3 -14.09,0.61 -25.55,4.5 -35.18,10.7 -9.61,6.17 -17.37,14.68 -24.01,24.46 -0.76,1.11 -1.5,2.24 -2.21,3.37 -0.74,1.15 -1.46,2.31 -2.16,3.48l-0.04 -0.02 0 -0.7 0 0z"/>
   <path class="fil1" d="M0 246.46c0.98,-1.65 1.96,-3.29 3,-4.89 1.13,-1.79 2.28,-3.53 3.48,-5.22 6.83,-9.77 14.81,-18.16 24.68,-24.16 9.89,-6.03 21.68,-9.63 36.14,-9.81 3.81,-0.04 7.5,0.18 11.11,0.68 3.59,0.5 7.11,1.26 10.57,2.24 15.74,4.52 29.92,13.69 44.32,23 12.22,7.92 24.59,15.92 38.16,21.2 6.7,2.61 13.63,4.44 20.61,5.53 7.11,1.08 14.27,1.39 21.27,0.91 7.92,-0.54 15.68,-2.07 23.01,-4.52 7.15,-2.4 13.91,-5.7 20,-9.9 0.87,-0.58 1.72,-1.17 2.57,-1.8 0.82,-0.63 1.67,-1.26 2.48,-1.92l0 0.53c-0.74,0.58 -1.48,1.15 -2.24,1.71 -0.85,0.61 -1.7,1.22 -2.57,1.83 -6.13,4.22 -12.92,7.52 -20.11,9.94 -7.37,2.48 -15.16,3.98 -23.1,4.54 -7.04,0.48 -14.24,0.18 -21.37,-0.93 -7,-1.07 -13.96,-2.92 -20.7,-5.53 -13.61,-5.32 -25.99,-13.33 -38.23,-21.24 -14.37,-9.31 -28.53,-18.46 -44.23,-22.96 -3.41,-0.98 -6.91,-1.74 -10.5,-2.22 -3.59,-0.5 -7.27,-0.74 -11.03,-0.7 -14.39,0.2 -26.11,3.79 -35.94,9.77 -9.83,5.95 -17.77,14.33 -24.57,24.05 -1.2,1.69 -2.35,3.43 -3.46,5.19 -1.13,1.76 -2.22,3.57 -3.31,5.42l-0.04 -0.05 0 -0.69 0 0z"/>
   <path class="fil1" d="M0 254.96c1.35,-2.33 2.72,-4.63 4.13,-6.85 1.52,-2.39 3.11,-4.74 4.74,-7 7,-9.7 15.16,-17.96 25.25,-23.77 10.09,-5.78 22.11,-9.09 36.92,-8.85 3.85,0.07 7.59,0.44 11.22,1.07 3.63,0.63 7.18,1.52 10.63,2.67 15.31,4.98 29.01,14.35 42.86,23.81 12.55,8.57 25.23,17.22 39.28,22.73 6.69,2.63 13.65,4.41 20.65,5.39 7.16,0.98 14.38,1.13 21.49,0.43 7.93,-0.76 15.74,-2.54 23.09,-5.35 7.22,-2.74 14.03,-6.45 20.14,-11.06l0.52 -0.4 0.48 -0.39 0 0.53 -0.74 0.58c-6.16,4.66 -13.01,8.37 -20.27,11.14 -7.37,2.8 -15.2,4.61 -23.2,5.37 -7.11,0.69 -14.37,0.54 -21.55,-0.44 -7.05,-0.98 -14.03,-2.78 -20.77,-5.41 -14.09,-5.53 -26.76,-14.2 -39.35,-22.79 -13.81,-9.44 -27.51,-18.79 -42.76,-23.77 -3.43,-1.11 -6.95,-2 -10.56,-2.63 -3.64,-0.63 -7.35,-1 -11.18,-1.07 -14.7,-0.23 -26.68,3.05 -36.71,8.81 -10.02,5.74 -18.13,13.98 -25.11,23.64 -1.63,2.24 -3.2,4.59 -4.72,6.98 -1.52,2.41 -3,4.87 -4.44,7.37l-0.04 -0.02 0 -0.72zm261.4 -184.96l0 -1.79c-2.07,-10.82 -3.33,-21.85 -3.74,-32.94 -0.46,-11.74 0.02,-23.55 1.39,-35.27l-0.41 0c-1.37,11.72 -1.83,23.53 -1.4,35.27 0.46,11.7 1.81,23.33 4.09,34.73l0.07 0 0 0z"/>
   <path class="fil1" d="M0 263.7c7.85,-13.96 16.79,-26.57 28.53,-35.53 11.94,-9.09 26.77,-14.39 46.36,-13.5 24.7,1.11 44.14,15.09 63.71,29.18 12.83,9.24 25.73,18.53 40.19,24.2 13.74,5.39 28.57,7.02 42.86,5.18 14.35,-1.85 28.16,-7.22 39.75,-15.86l0 0.53c-11.59,8.54 -25.38,13.89 -39.69,15.74 -14.37,1.85 -29.27,0.2 -43.05,-5.22 -14.53,-5.67 -27.44,-14.98 -40.3,-24.24 -19.52,-14.05 -38.9,-28.01 -63.47,-29.12 -19.51,-0.87 -34.25,4.41 -46.1,13.44 -11.87,9.02 -20.83,21.83 -28.75,35.96l-0.04 -0.02 0 -0.74 0 0zm261.4 -184.9l0 -1.19c-3.66,-12.33 -6.22,-24.99 -7.68,-37.73 -1.54,-13.26 -1.91,-26.64 -1.11,-39.88l-0.41 0c-0.78,13.26 -0.44,26.66 1.11,39.92 1.52,13.16 4.19,26.18 8.02,38.91l0.07 -0.03 0 0z"/>
   <path class="fil1" d="M0 270.49c4.61,-7.53 9.55,-14.66 15.16,-20.94 5.72,-6.44 12.15,-12.01 19.61,-16.27 5.48,-3.11 11.53,-5.57 18.22,-7.15 6.72,-1.59 14.09,-2.33 22.29,-2.05 24.31,0.81 43.56,13.48 62.74,26.12 12.65,8.33 25.31,16.66 39.35,21.53 2.35,0.78 4.72,1.47 7.09,2.06 2.4,0.59 4.81,1.07 7.24,1.46 12.14,1.83 24.66,0.98 36.47,-2.41 11.59,-3.33 22.49,-9.14 31.71,-17.23l0.76 -0.67 0.76 -0.7 0 0 0 0.55 -0.48 0.43 -0.78 0.7c-9.25,8.13 -20.23,13.96 -31.86,17.31 -11.87,3.41 -24.44,4.26 -36.64,2.41 -2.44,-0.37 -4.87,-0.87 -7.26,-1.46 -2.4,-0.58 -4.79,-1.28 -7.14,-2.08 -14.11,-4.88 -26.76,-13.23 -39.44,-21.58 -19.14,-12.59 -38.34,-25.22 -62.54,-26.05 -8.15,-0.28 -15.5,0.46 -22.18,2.05 -6.65,1.59 -12.66,4.02 -18.09,7.11 -7.44,4.24 -13.83,9.78 -19.53,16.2 -5.72,6.39 -10.74,13.68 -15.42,21.37l-0.04 -0.02 0 -0.69 0 0zm261.4 -179.14l0 -1.09c-4.68,-14.26 -7.85,-28.98 -9.59,-43.86 -1.81,-15.44 -2.05,-31 -0.74,-46.4l-0.41 0c-1.29,15.4 -1.07,31.01 0.73,46.45 1.79,15.24 5.09,30.33 9.94,44.92l0.07 -0.02 0 0z"/>
   <path class="fil1" d="M0 277.27c4.76,-7.13 9.81,-13.83 15.53,-19.77 5.82,-6.04 12.35,-11.26 19.91,-15.24 5.51,-2.87 11.53,-5.15 18.18,-6.65 6.66,-1.52 13.94,-2.26 21.99,-2.07 23.9,0.52 42.92,11.85 61.71,23.03 12.53,7.46 24.94,14.85 38.64,18.92 2.26,0.65 4.57,1.22 6.87,1.67 2.31,0.46 4.63,0.83 6.98,1.09 11.72,1.26 23.73,-0.07 35.06,-3.83 11.06,-3.67 21.46,-9.7 30.24,-17.87 1.09,-1.02 2.16,-2.07 3.2,-3.15 1.04,-1.09 2.09,-2.22 3.07,-3.4l0.02 0.02 0 0.59c-0.89,1.05 -1.83,2.07 -2.79,3.07 -1.04,1.09 -2.13,2.15 -3.21,3.17 -8.83,8.22 -19.29,14.27 -30.4,17.96 -11.38,3.77 -23.47,5.11 -35.23,3.85 -2.37,-0.26 -4.7,-0.63 -7.02,-1.11 -2.33,-0.45 -4.61,-1.02 -6.92,-1.67 -13.72,-4.09 -26.18,-11.5 -38.73,-18.96 -18.72,-11.16 -37.7,-22.44 -61.51,-22.99 -8.01,-0.17 -15.27,0.57 -21.88,2.07 -6.63,1.5 -12.61,3.76 -18.07,6.63 -7.55,3.96 -14.03,9.13 -19.81,15.16 -5.83,6.02 -10.96,12.89 -15.79,20.16l-0.04 -0.03 0 -0.65 0 0zm261.4 -173.37l0 -1.05c-0.22,-0.6 -0.42,-1.21 -0.63,-1.82 -0.33,-0.92 -0.63,-1.85 -0.94,-2.76 -5.22,-15.62 -8.63,-31.86 -10.33,-48.28 -1.72,-16.63 -1.63,-33.46 0.2,-49.99l-0.41 0c-1.83,16.55 -1.9,33.38 -0.2,50.04 1.7,16.43 5.13,32.7 10.35,48.36 0.3,0.91 0.61,1.82 0.94,2.76 0.3,0.89 0.63,1.82 0.95,2.76l0.07 -0.02z"/>
   <path class="fil1" d="M0 283.73c4.89,-6.65 10.07,-12.9 15.85,-18.4 5.92,-5.61 12.46,-10.43 20.07,-14.09 5.53,-2.65 11.55,-4.76 18.16,-6.2 6.59,-1.41 13.81,-2.15 21.7,-2.04 23.4,0.22 42.14,10.13 60.43,19.83 12.46,6.61 24.73,13.11 38.14,16.35 2.18,0.55 4.39,0.98 6.63,1.31 2.22,0.3 4.46,0.54 6.7,0.67 11.29,0.7 22.79,-1.11 33.6,-5.24 10.57,-4.02 20.44,-10.26 28.79,-18.57 2.09,-2.06 4.06,-4.26 5.93,-6.54 1.92,-2.35 3.7,-4.79 5.38,-7.33l0.02 0.02 0 0.68c-1.59,2.37 -3.29,4.67 -5.07,6.87 -1.89,2.32 -3.87,4.52 -5.96,6.61 -8.39,8.33 -18.33,14.61 -28.94,18.65 -10.85,4.16 -22.44,5.96 -33.77,5.27 -2.24,-0.16 -4.5,-0.37 -6.74,-0.7 -2.24,-0.33 -4.48,-0.74 -6.68,-1.28 -13.44,-3.26 -25.74,-9.77 -38.22,-16.4 -18.25,-9.67 -36.93,-19.57 -60.24,-19.81 -7.87,-0.08 -15.05,0.65 -21.61,2.07 -6.59,1.41 -12.57,3.5 -18.07,6.15 -7.55,3.63 -14.09,8.44 -19.97,14.03 -5.89,5.59 -11.13,11.96 -16.09,18.72l-0.04 -0.02 0 -0.61 0 0zm261.4 -165.94l0 -1.02c-0.96,-2.74 -1.92,-5.46 -2.83,-8.2 -1.02,-3.04 -2,-6.09 -2.94,-9.17 -4.78,-15.92 -7.8,-32.45 -9.08,-49.08 -1.29,-16.81 -0.79,-33.73 1.45,-50.32l-0.41 0c-2.24,16.59 -2.74,33.55 -1.46,50.34 1.29,16.68 4.31,33.23 9.11,49.17 0.92,3.06 1.92,6.13 2.94,9.19 1.02,3.07 2.09,6.09 3.15,9.11l0.07 -0.02 0 0z"/>
   <path class="fil1" d="M2.81 286.9c4.74,-5.54 9.72,-10.69 15.24,-15.24 5.52,-4.54 11.59,-8.44 18.48,-11.46 5.55,-2.43 11.57,-4.37 18.14,-5.7 6.56,-1.32 13.67,-2.04 21.44,-2.08 22.9,-0.11 41.34,8.41 59.14,16.65 12.42,5.74 24.53,11.35 37.62,13.79 2.07,0.39 4.16,0.67 6.24,0.89 2.22,0.2 4.42,0.31 6.64,0.33 10.83,0.11 21.85,-2.18 32.18,-6.66 10.05,-4.37 19.42,-10.83 27.33,-19.2 3.22,-3.41 6.16,-7.11 8.83,-11.07 2.7,-4 5.13,-8.28 7.26,-12.76l0.05 0.02 0 0.83c-2.05,4.24 -4.4,8.3 -6.98,12.15 -2.68,3.96 -5.63,7.68 -8.85,11.12 -7.96,8.41 -17.4,14.89 -27.49,19.28 -10.37,4.5 -21.44,6.81 -32.36,6.7 -2.21,-0.02 -4.43,-0.13 -6.63,-0.35 -2.11,-0.19 -4.22,-0.48 -6.28,-0.87 -13.16,-2.45 -25.29,-8.06 -37.73,-13.83 -17.79,-8.22 -36.18,-16.74 -58.97,-16.63 -7.72,0.06 -14.81,0.78 -21.36,2.11 -6.54,1.32 -12.52,3.24 -18.04,5.65 -6.88,3 -12.9,6.89 -18.4,11.42 -5.41,4.43 -10.31,9.5 -14.96,14.91l-0.54 0 0 0zm258.59 -153.76l0 -1.13c-0.72,-2.24 -1.42,-4.41 -2.11,-6.56 -2.68,-8.24 -5.37,-16.51 -7.61,-24.88 -4.37,-16.18 -6.96,-32.96 -7.79,-49.84 -0.85,-16.98 0.09,-34.07 2.79,-50.73l-0.42 0c-2.69,16.66 -3.63,33.75 -2.78,50.73 0.83,16.92 3.44,33.73 7.81,49.95 2.24,8.37 4.93,16.63 7.61,24.9 0.82,2.56 1.67,5.15 2.43,7.59l0.07 -0.03 0 0z"/>
   <path class="fil1" d="M9.59 286.9c3.98,-3.65 8.15,-7.04 12.72,-10.04 4.55,-2.98 9.46,-5.61 14.85,-7.72 5.57,-2.2 11.57,-3.98 18.09,-5.24 6.51,-1.26 13.55,-1.98 21.18,-2.07 22.21,-0.28 40.21,6.76 57.43,13.51 12.51,4.89 24.6,9.61 37.53,11.24 0.42,0.04 0.85,0.11 1.29,0.15 0.41,0.04 0.82,0.09 1.26,0.11l0 0.06 -3.2 0c-12.76,-1.69 -24.68,-6.37 -37.03,-11.19 -17.18,-6.72 -35.16,-13.75 -57.28,-13.49 -7.59,0.11 -14.61,0.83 -21.11,2.09 -6.5,1.24 -12.46,3.02 -18.01,5.2 -5.37,2.11 -10.26,4.72 -14.78,7.7 -4.42,2.91 -8.48,6.17 -12.33,9.69l-0.61 0 0 0 0 0zm176.55 0l3.39 0c8.96,-1.13 17.9,-3.89 26.29,-8.19 9.15,-4.68 17.68,-11.18 24.9,-19.38 4.76,-5.41 8.91,-11.52 12.41,-18.11 3.4,-6.4 6.18,-13.27 8.27,-20.4l0 -1.24 -0.07 -0.02c-2.13,7.52 -5,14.74 -8.54,21.46 -3.48,6.57 -7.64,12.66 -12.38,18.05 -7.19,8.15 -15.65,14.61 -24.76,19.27 -9.42,4.82 -19.49,7.69 -29.51,8.5l0 0.06zm75.26 -133.62l0 -1.46c-1.94,-8.09 -4.29,-16.09 -6.61,-24.11 -2.5,-8.61 -5.03,-17.22 -7.05,-25.94 -3.91,-16.51 -6.07,-33.58 -6.46,-50.69 -0.37,-17.16 1,-34.36 4.13,-51.08l-0.41 0c-3.13,16.72 -4.5,33.92 -4.11,51.08 0.37,17.16 2.52,34.25 6.44,50.77 2.04,8.75 4.56,17.36 7.07,25.97 2.45,8.46 4.93,16.94 6.93,25.48l0.07 -0.02 0 0z"/>
   <path class="fil1" d="M19.79 286.88c2.72,-1.74 5.54,-3.35 8.52,-4.82 2.98,-1.46 6.11,-2.79 9.42,-3.94 5.61,-1.96 11.61,-3.57 18.09,-4.74 6.46,-1.18 13.39,-1.91 20.9,-2.09 21.35,-0.54 38.88,5.05 55.45,10.33 5.89,1.87 11.7,3.72 17.48,5.24l-0.02 0.04 -1.37 0c-5.37,-1.43 -10.74,-3.15 -16.22,-4.89 -16.53,-5.28 -34.01,-10.85 -55.3,-10.33 -7.48,0.2 -14.4,0.94 -20.86,2.09 -6.45,1.17 -12.43,2.78 -18.02,4.74 -3.29,1.15 -6.39,2.46 -9.37,3.91 -2.79,1.37 -5.44,2.88 -7.98,4.48l-0.7 0 -0.02 -0.02 0 0zm176.5 0.02l1.16 0c7.08,-2.37 13.98,-5.78 20.44,-10.19 6.54,-4.48 12.61,-10.01 17.94,-16.49 8.63,-10.54 15.15,-23.48 19.22,-37.49 4.13,-14.15 5.76,-29.39 4.61,-44.36 -1.31,-16.54 -5.44,-32.5 -9.59,-48.51 -2.31,-8.91 -4.61,-17.85 -6.44,-26.88 -3.43,-16.78 -5.13,-34.16 -5.04,-51.51 0.06,-17.35 1.91,-34.68 5.5,-51.47l-0.41 0c-3.59,16.79 -5.42,34.12 -5.51,51.45 -0.08,17.39 1.61,34.79 5.07,51.62 1.83,9.05 4.13,17.96 6.44,26.9 4.13,15.96 8.26,31.92 9.56,48.43 1.16,14.91 -0.47,30.11 -4.58,44.23 -4.05,13.96 -10.55,26.85 -19.14,37.33 -5.31,6.46 -11.35,11.94 -17.87,16.4 -6.72,4.61 -13.96,8.13 -21.38,10.5l0.02 0.04 0 0z"/>
   <path class="fil1" d="M39.29 286.86c5.5,-1.65 11.38,-3.02 17.64,-4.07 6.24,-1.02 12.92,-1.74 20.03,-2 9.15,-0.34 17.61,0.31 25.57,1.46 7.98,1.17 15.46,2.87 22.66,4.61l0 0.04 -1.53 0c-6.74,-1.61 -13.76,-3.15 -21.18,-4.24 -7.95,-1.17 -16.39,-1.8 -25.5,-1.45 -7.11,0.26 -13.75,0.95 -19.99,2 -5.8,0.95 -11.26,2.22 -16.41,3.69l-1.26 0 -0.03 -0.04zm159.33 0.04l0.85 0c5.85,-2.8 11.52,-6.37 16.81,-10.67 5.32,-4.33 10.26,-9.37 14.65,-15.12 8.14,-10.65 14.25,-23.55 18.12,-37.44 3.91,-14.09 5.5,-29.2 4.52,-44.03 -1.07,-16.2 -4.63,-31.97 -8.2,-47.76 -2.06,-9.15 -4.13,-18.33 -5.74,-27.61 -2.94,-17.16 -4.13,-34.86 -3.57,-52.49 0.57,-17.51 2.87,-34.97 6.92,-51.78l-0.41 0c-4.05,16.81 -6.35,34.27 -6.9,51.75 -0.58,17.68 0.61,35.4 3.57,52.58 1.59,9.29 3.67,18.49 5.74,27.64 3.57,15.79 7.11,31.51 8.2,47.71 0.95,14.79 -0.63,29.83 -4.53,43.88 -3.84,13.85 -9.93,26.68 -18.04,37.32 -4.37,5.69 -9.29,10.74 -14.59,15.02 -5.48,4.46 -11.36,8.13 -17.42,10.96l0.02 0.04 0 0z"/>
   <path class="fil1" d="M198.99 286.88c5.07,-3.09 9.96,-6.78 14.52,-11.07 4.42,-4.15 8.55,-8.87 12.25,-14.09 7.59,-10.74 13.28,-23.57 16.91,-37.33 3.68,-13.96 5.22,-28.88 4.42,-43.54 -0.87,-15.7 -3.83,-31 -6.81,-46.38 -1.87,-9.59 -3.74,-19.22 -5.09,-28.96 -2.45,-17.51 -3.15,-35.53 -2.08,-53.45 1.04,-17.66 3.82,-35.21 8.35,-52.06l0.41 0c-4.52,16.85 -7.31,34.42 -8.35,52.08 -1.09,17.9 -0.37,35.9 2.07,53.36 1.37,9.74 3.24,19.35 5.08,28.97 2.98,15.37 5.96,30.7 6.83,46.42 0.81,14.7 -0.74,29.66 -4.43,43.67 -3.64,13.78 -9.38,26.68 -16.96,37.46 -3.75,5.24 -7.88,9.98 -12.31,14.14 -4.44,4.17 -9.18,7.78 -14.09,10.8l-0.7 0 -0.02 -0.02 0 0z"/>
   <path class="fil1" d="M198.23 286.88c4.33,-3.19 8.46,-6.89 12.33,-11.04 3.76,-4.01 7.26,-8.46 10.43,-13.31 7.07,-10.85 12.36,-23.6 15.77,-37.21 3.48,-13.91 5,-28.74 4.41,-43.29 -0.65,-15.16 -3.06,-30.05 -5.48,-44.99 -1.63,-10.09 -3.26,-20.2 -4.37,-30.4 -1.93,-17.81 -2.11,-36.14 -0.52,-54.3 1.55,-17.81 4.81,-35.47 9.79,-52.34l0.43 0c-5,16.87 -8.26,34.55 -9.83,52.38 -1.56,18.14 -1.39,36.43 0.55,54.21 1.08,10.22 2.74,20.31 4.35,30.38 2.43,14.96 4.85,29.86 5.48,45.04 0.6,14.59 -0.92,29.44 -4.42,43.42 -3.41,13.64 -8.72,26.44 -15.81,37.32 -3.19,4.87 -6.72,9.35 -10.48,13.37 -3.76,4.04 -7.78,7.63 -11.98,10.78l-0.63 0 -0.02 -0.02 0 0z"/>
   <path class="fil1" d="M196.75 286.9c3.65,-3.26 7.18,-6.91 10.46,-10.89 3.2,-3.89 6.17,-8.09 8.89,-12.63 6.55,-10.96 11.44,-23.68 14.64,-37.19 3.26,-13.87 4.74,-28.55 4.3,-42.99 -0.43,-14.48 -2.3,-28.83 -4.19,-43.23 -1.4,-10.65 -2.79,-21.35 -3.61,-32.18 -1.4,-18.16 -1.05,-36.84 1.08,-55.25 2.05,-17.97 5.81,-35.71 11.25,-52.54l0.43 0c-5.46,16.85 -9.22,34.6 -11.29,52.58 -2.1,18.4 -2.45,37.05 -1.06,55.19 0.8,10.81 2.22,21.5 3.61,32.16 1.89,14.39 3.76,28.75 4.2,43.25 0.43,14.48 -1.05,29.2 -4.33,43.12 -3.2,13.53 -8.11,26.29 -14.68,37.29 -2.72,4.55 -5.72,8.79 -8.94,12.68 -3.19,3.89 -6.61,7.44 -10.15,10.63l-0.61 0 0 0 0 0z"/>
   <path class="fil1" d="M194.75 286.9c3.11,-3.26 6.07,-6.82 8.85,-10.67 2.72,-3.74 5.24,-7.74 7.57,-12.01 6.02,-11.04 10.52,-23.68 13.48,-37.03 3.09,-13.85 4.52,-28.46 4.28,-42.81 -0.24,-13.77 -1.61,-27.45 -2.98,-41.19 -1.13,-11.33 -2.26,-22.72 -2.76,-34.23 -0.83,-18.5 0.07,-37.48 2.74,-56.16 2.59,-18.12 6.83,-35.95 12.77,-52.8l0.43 0c-5.96,16.87 -10.2,34.73 -12.81,52.86 -2.65,18.66 -3.54,37.6 -2.74,56.08 0.52,11.51 1.66,22.88 2.79,34.21 1.37,13.76 2.74,27.44 2.98,41.2 0.23,14.4 -1.2,29.03 -4.29,42.93 -2.98,13.37 -7.5,26.07 -13.55,37.14 -2.32,4.28 -4.87,8.31 -7.58,12.05 -2.7,3.74 -5.59,7.24 -8.62,10.43l-0.56 0 0 0z"/>
   <path class="fil1" d="M192.27 286.9c2.65,-3.26 5.15,-6.74 7.5,-10.43 2.33,-3.61 4.48,-7.44 6.48,-11.48 5.5,-11.14 9.61,-23.73 12.37,-36.95 2.88,-13.81 4.27,-28.29 4.18,-42.55 -0.04,-12.88 -0.94,-25.77 -1.85,-38.73 -0.85,-12.14 -1.69,-24.34 -1.87,-36.66 -0.24,-18.86 1.24,-38.17 4.48,-57.09 3.11,-18.26 7.85,-36.18 14.29,-53.01l0.43 0c-6.43,16.85 -11.2,34.79 -14.33,53.08 -3.22,18.9 -4.69,38.18 -4.46,57.02 0.16,12.28 1.03,24.48 1.87,36.64 0.9,12.93 1.81,25.83 1.85,38.75 0.07,14.28 -1.32,28.81 -4.19,42.64 -2.77,13.24 -6.88,25.87 -12.4,37.05 -2,4.05 -4.17,7.87 -6.5,11.53 -2.31,3.61 -4.74,7 -7.31,10.19l-0.54 0 0 0z"/>
   <path class="fil1" d="M189.68 286.9c2.22,-3.17 4.31,-6.54 6.29,-10.06 1.93,-3.48 3.76,-7.11 5.43,-10.9 4.98,-11.2 8.7,-23.68 11.22,-36.7 2.68,-13.83 4.05,-28.27 4.16,-42.47 0.08,-11.7 -0.37,-23.44 -0.83,-35.25 -0.54,-13.29 -1.07,-26.66 -0.8,-40.16 0.34,-19.29 2.41,-38.97 6.24,-58.17 3.65,-18.4 8.93,-36.38 15.87,-53.19l0.44 0c-6.94,16.81 -12.25,34.84 -15.92,53.28 -3.81,19.17 -5.87,38.83 -6.24,58.08 -0.24,13.5 0.28,26.85 0.8,40.14 0.48,11.81 0.94,23.55 0.85,35.27 -0.11,14.24 -1.48,28.7 -4.15,42.55 -2.55,13.05 -6.27,25.55 -11.25,36.8 -1.69,3.78 -3.52,7.43 -5.48,10.91 -1.93,3.46 -3.97,6.74 -6.13,9.87l-0.5 0 0 0z"/>
   <path class="fil1" d="M186.79 286.9c1.85,-3.11 3.59,-6.35 5.24,-9.72 1.63,-3.34 3.15,-6.8 4.57,-10.39 4.45,-11.24 7.76,-23.62 10.07,-36.49 2.47,-13.83 3.8,-28.2 4.08,-42.36 0.22,-10.3 0.11,-20.7 -0.02,-31.16 -0.17,-14.61 -0.32,-29.38 0.41,-44.29 0.98,-19.66 3.66,-39.69 8.09,-59.15 4.22,-18.55 10.03,-36.57 17.46,-53.34l0.46 0c-7.46,16.79 -13.28,34.86 -17.52,53.43 -4.42,19.44 -7.12,39.44 -8.09,59.08 -0.74,14.92 -0.57,29.66 -0.4,44.27 0.11,10.46 0.24,20.86 0.03,31.16 -0.29,14.18 -1.61,28.6 -4.09,42.45 -2.33,12.87 -5.63,25.27 -10.09,36.55 -1.44,3.61 -2.96,7.07 -4.59,10.42 -1.63,3.3 -3.33,6.48 -5.13,9.54l-0.48 0 0 0z"/>
   <path class="fil1" d="M183.55 286.9c1.52,-3.02 2.96,-6.17 4.33,-9.39 1.37,-3.22 2.63,-6.54 3.82,-9.96 3.9,-11.2 6.81,-23.35 8.88,-35.9 2.28,-13.94 3.56,-28.38 4.06,-42.58 0.29,-8.43 0.42,-16.94 0.55,-25.53 0.24,-16.43 0.47,-33.11 1.89,-49.94 1.59,-19.99 4.89,-40.32 9.94,-60 4.8,-18.72 11.17,-36.88 19.13,-53.6l0.46 0c-7.98,16.77 -14.38,34.94 -19.18,53.71 -5.05,19.66 -8.35,39.95 -9.94,59.93 -1.41,16.83 -1.65,33.49 -1.89,49.93 -0.13,8.56 -0.26,17.09 -0.54,25.5 -0.5,14.22 -1.79,28.68 -4.09,42.65 -2.07,12.56 -4.96,24.74 -8.87,35.98 -1.2,3.42 -2.48,6.74 -3.85,9.96 -1.33,3.18 -2.74,6.27 -4.24,9.24l-0.46 0 0 0z"/>
   <path class="fil1" d="M180.24 286.9c1.22,-2.91 2.4,-5.89 3.51,-8.95 1.08,-3.09 2.13,-6.22 3.11,-9.44 3.58,-11.96 6.21,-24.83 8.08,-38.03 1.87,-13.23 3.03,-26.79 3.68,-40.15 0.28,-6.08 0.52,-12.19 0.78,-18.35 0.74,-18.7 1.5,-37.81 3.68,-57.12 2.3,-20.44 6.28,-41.17 11.98,-61.17 5.37,-18.85 12.28,-37.03 20.77,-53.69l0.45 0c-8.5,16.68 -15.44,34.92 -20.83,53.8 -5.7,19.98 -9.68,40.68 -11.96,61.12 -2.2,19.29 -2.96,38.38 -3.7,57.06 -0.24,6.18 -0.47,12.31 -0.76,18.38 -0.67,13.37 -1.8,26.94 -3.69,40.16 -1.87,13.24 -4.48,26.12 -8.09,38.1 -0.98,3.24 -2.03,6.37 -3.13,9.46 -1.09,3.02 -2.22,5.95 -3.44,8.82l-0.44 0z"/>
   <path class="fil1" d="M176.66 286.9c0.98,-2.82 1.91,-5.69 2.8,-8.61 0.89,-2.98 1.74,-6 2.55,-9.06 3.11,-12.14 5.32,-24.99 6.98,-38.12 1.65,-13.12 2.74,-26.51 3.56,-39.75l0.48 -7.94c1.33,-21.9 2.7,-44.6 6.07,-67.52 2.98,-20.85 7.63,-41.95 14,-62.19 5.96,-18.96 13.42,-37.16 22.38,-53.71l0.45 0c-8.98,16.57 -16.46,34.84 -22.44,53.82 -6.35,20.22 -11.02,41.31 -14,62.12 -3.35,22.92 -4.72,45.6 -6.05,67.5l-0.5 7.94c-0.82,13.24 -1.89,26.64 -3.54,39.79 -1.67,13.14 -3.89,26.01 -7,38.16 -0.79,3.07 -1.63,6.09 -2.55,9.07 -0.87,2.89 -1.8,5.72 -2.76,8.5l-0.43 0 0 0z"/>
   <path class="fil1" d="M173.07 286.9c0.76,-2.69 1.5,-5.41 2.17,-8.19 0.7,-2.79 1.35,-5.61 1.96,-8.48 2.59,-12.29 4.44,-25.12 5.89,-38.17 1.44,-13.04 2.48,-26.26 3.48,-39.33 0.92,-12.09 1.92,-24.53 3.29,-37.17 1.34,-12.63 3.04,-25.46 5.32,-38.31 3.72,-21.33 9.11,-42.84 16.2,-63.37 6.59,-19.13 14.64,-37.4 24.14,-53.88l0.48 0c-9.55,16.5 -17.64,34.84 -24.25,54.01 -7.06,20.51 -12.43,42.02 -16.17,63.33 -2.27,12.83 -3.96,25.63 -5.33,38.27 -1.35,12.61 -2.35,25.05 -3.29,37.14 -0.97,13.07 -2.02,26.31 -3.48,39.36 -1.43,13.04 -3.28,25.89 -5.87,38.2 -0.63,2.87 -1.28,5.7 -1.98,8.5 -0.67,2.74 -1.39,5.44 -2.13,8.09l-0.43 0 0 0z"/>
   <path class="fil1" d="M169.18 286.9c0.58,-2.56 1.11,-5.15 1.63,-7.8 0.52,-2.66 1,-5.33 1.45,-8.03 3.31,-19.61 5.03,-40.25 6.75,-60.8 0.45,-5.41 0.89,-10.85 1.39,-16.37 1.11,-12.02 2.43,-24.46 4.13,-37.1 1.72,-12.65 3.83,-25.53 6.52,-38.42 4.48,-21.75 10.61,-43.6 18.38,-64.37 7.22,-19.28 15.83,-37.61 25.85,-54.01l0.48 0c-10.05,16.44 -18.72,34.81 -25.94,54.15 -7.76,20.74 -13.9,42.59 -18.38,64.32 -2.67,12.89 -4.78,25.74 -6.5,38.38 -1.72,12.63 -3.02,25.07 -4.13,37.09 -0.48,5.33 -0.93,10.85 -1.39,16.38 -1.72,20.53 -3.44,41.18 -6.76,60.82 -0.46,2.72 -0.94,5.39 -1.46,8.04 -0.5,2.59 -1.02,5.16 -1.59,7.72l-0.43 0 0 0z"/>
   <path class="fil1" d="M165.24 286.9c0.41,-2.43 0.78,-4.91 1.15,-7.39 0.35,-2.5 0.7,-5.02 1.03,-7.59 1.78,-14.26 2.93,-28.88 4.06,-43.51 0.87,-11.13 1.74,-22.29 2.89,-33.34 1.35,-12.56 3.07,-25.61 5.33,-38.94 2.02,-12.05 4.46,-24.31 7.39,-36.58 5.29,-22.24 12.2,-44.55 20.73,-65.6 7.85,-19.38 17.07,-37.71 27.64,-53.95l0.47 0c-10.61,16.27 -19.85,34.66 -27.74,54.1 -8.51,21.03 -15.42,43.32 -20.7,65.54 -2.94,12.27 -5.38,24.53 -7.4,36.55 -2.24,13.31 -3.98,26.38 -5.3,38.93 -1.16,11.02 -2.03,22.18 -2.9,33.31 -1.15,14.66 -2.28,29.27 -4.08,43.56 -0.31,2.52 -0.66,5.04 -1.03,7.59 -0.34,2.45 -0.71,4.89 -1.13,7.32l-0.41 0 0 0z"/>
   <path class="fil1" d="M161.15 286.9c1.68,-14.54 2.57,-29.29 3.46,-44.05 0.94,-15.59 1.89,-31.21 3.74,-46.6 4.09,-34.05 12.39,-72.3 24.85,-108.7 10.9,-31.84 24.99,-62.28 42.26,-87.29l0.17 -0.26 0.5 0 -0.33 0.48c-17.24,24.98 -31.31,55.38 -42.2,87.2 -12.46,36.38 -20.75,74.6 -24.84,108.61 -1.87,15.4 -2.8,30.99 -3.74,46.58 -0.89,14.74 -1.78,29.51 -3.45,44.03l-0.42 0 0 0z"/>
  </g>
 </g>
</svg>
