<svg width="165" height="20" viewBox="0 0 165 20" fill="none" xmlns="http://www.w3.org/2000/svg">
<path d="M139.315 0.0422372C139.299 0.0696972 138.914 1.07473 138.464 2.28298C138.008 3.49122 137.618 4.52371 137.602 4.57314C137.563 4.66651 137.821 4.672 142.533 4.672H147.504L146.631 2.35437C146.153 1.08023 145.757 0.0312532 145.757 0.0202692C145.757 -0.0181748 139.337 0.00379319 139.315 0.0422372Z" fill="#AC1B42"/>
<path d="M0 2.39282V4.672H8.84762H17.6952L17.6568 4.49076C17.2229 2.44224 15.3721 0.893498 12.7195 0.360773C11.5881 0.135601 11.0115 0.113633 5.37118 0.113633H0V2.39282Z" fill="#AC1B42"/>
<path d="M23.3408 2.39282V4.672H31.4415H39.5422V2.39282V0.113633H31.4415H23.3408V2.39282Z" fill="#AC1B42"/>
<path d="M44.6883 0.146585C44.6664 0.168553 44.6499 1.19556 44.6499 2.43126V4.672H53.9863C61.428 4.672 63.3172 4.65552 63.2953 4.6006C63.0866 3.91959 62.9932 3.68893 62.7845 3.27703C62.3671 2.45872 61.4499 1.59647 60.4888 1.11318C59.7474 0.739722 58.6216 0.415694 57.4463 0.245441C56.8861 0.163061 56.1117 0.146585 50.7735 0.130109C47.4508 0.119125 44.7103 0.124617 44.6883 0.146585Z" fill="#AC1B42"/>
<path d="M68.2656 2.39282V4.672H76.3663H84.467V2.39282V0.113633H76.3663H68.2656V2.39282Z" fill="#AC1B42"/>
<path d="M88.2401 0.152077C88.2181 0.168553 88.2017 1.19556 88.2017 2.43126V4.672H98.1147H108.028V2.39282V0.113633H98.1532C92.7216 0.113633 88.2566 0.130109 88.2401 0.152077Z" fill="#AC1B42"/>
<path d="M111.268 2.39282V4.672H121.181H131.094V2.39282V0.113633H121.181H111.268V2.39282Z" fill="#AC1B42"/>
<path d="M156.083 6.20968V7.74744H156.495H156.907V6.24263V4.74331L156.704 4.70487C156.588 4.68839 156.402 4.67191 156.292 4.67191H156.083V6.20968Z" fill="#AC1B42"/>
<path d="M157.675 6.20966V7.6925H158.087H158.499V6.20966V4.72682H158.087H157.675V6.20966Z" fill="#AC1B42"/>
<path d="M159.323 6.23176V7.70911L160.41 7.67066C161.525 7.62673 162.656 7.52238 163.14 7.41254C163.793 7.26425 164.518 6.81391 164.688 6.45693C164.908 5.9956 164.496 5.5123 163.585 5.1718C162.915 4.92466 162.234 4.83679 160.597 4.78736L159.323 4.75441V6.23176Z" fill="#AC1B42"/>
<path d="M0 13.8709V20L6.2499 19.978C13.0655 19.9616 12.8458 19.967 14.1968 19.632C16.2563 19.1158 17.6458 18.0284 18.195 16.5071C18.4147 15.8865 18.4696 15.4032 18.4421 14.2224C18.4202 13.2558 18.4037 13.113 18.2719 12.7176C18.0138 11.9377 17.5085 11.2348 16.822 10.7185C16.465 10.4494 15.3996 9.87274 14.9987 9.73544L14.8119 9.66954L15.3337 9.40592C16.0806 9.03247 16.7232 8.48327 17.1021 7.89562L17.201 7.74734H8.60048H0V13.8709ZM11.3959 11.9927C11.8408 12.1245 12.2966 12.41 12.4943 12.6901C12.6591 12.9153 12.6591 12.9263 12.6755 13.7721C12.6975 14.7551 12.6481 14.9638 12.3186 15.2879C11.8517 15.7602 11.3684 15.8206 8.20505 15.8206H5.71168V13.838V11.8608L8.39178 11.8773C10.7259 11.8993 11.1103 11.9103 11.3959 11.9927Z" fill="#AC1B42"/>
<path d="M23.3408 9.889V12.0309H30.4804H37.62V9.889V7.74712H30.4804H23.3408V9.889Z" fill="#AC1B42"/>
<path d="M44.6499 13.8707V19.9943H47.5057H50.3616V16.6441V13.294H52.163H53.9698L55.9909 16.6441L58.0174 19.9943H61.1094C62.812 19.9943 64.2014 19.9778 64.2014 19.9613C64.2014 19.9393 63.114 18.1654 61.785 16.0181C60.4559 13.8707 59.374 12.0858 59.3795 12.0583C59.385 12.0254 59.5882 11.9265 59.8353 11.8331C61.6751 11.1192 62.8449 9.90545 63.2623 8.25785C63.3282 8.01071 63.3776 7.79652 63.3776 7.78005C63.3776 7.76357 62.0815 7.74709 60.4998 7.74709H57.622L57.5561 7.91735C57.4463 8.16998 57.0618 8.53245 56.7213 8.7027C56.0513 9.02673 56.0623 9.02673 53.0966 9.0487L50.3616 9.07067V8.41163V7.74709H47.5057H44.6499V13.8707Z" fill="#AC1B42"/>
<path d="M68.2656 9.889V12.0309H75.4052H82.5448V9.889V7.74712H75.4052H68.2656V9.889Z" fill="#AC1B42"/>
<path d="M95.2866 13.8707V19.9943H98.1425H100.998V13.8707V7.74709H98.1425H95.2866V13.8707Z" fill="#AC1B42"/>
<path d="M118.353 13.8707V19.9943H121.209H124.065V13.8707V7.74709H121.209H118.353V13.8707Z" fill="#AC1B42"/>
<path d="M136.404 7.78554C136.388 7.813 135.416 10.3997 134.235 13.5412C133.054 16.6826 132.027 19.4176 131.95 19.6263L131.808 19.9943L134.998 19.9833L138.189 19.9668L138.733 18.3027L139.282 16.6441H142.544H145.801L146.361 18.3192L146.922 19.9943H150.101H153.281L153.161 19.6757C153.1 19.5055 152.062 16.754 150.859 13.5686L148.674 7.77455L145.988 7.75808L143.302 7.74709L144.055 10.0812L144.807 12.4153H142.566C141.188 12.4153 140.32 12.3933 140.32 12.3659C140.32 12.3219 141.693 8.07661 141.787 7.813C141.809 7.76357 141.254 7.74709 139.123 7.74709C137.64 7.74709 136.415 7.76357 136.404 7.78554Z" fill="#AC1B42"/>
<path d="M68.2656 17.7041V19.9943H76.6684H85.0712V17.7425V15.4908H80.9631C78.7004 15.4908 74.9219 15.4743 72.5604 15.4524L68.2656 15.4194V17.7041Z" fill="#AC1B42"/>
<path d="M23.3408 17.7425V19.9943H31.7436H40.1464V17.7425V15.4908H31.7436H23.3408V17.7425Z" fill="#AC1B42"/>
</svg>
